<svg width="324" height="297" viewBox="0 0 324 297" fill="none" xmlns="http://www.w3.org/2000/svg">
<circle cx="161.821" cy="112.821" r="112.821" fill="#160F30"/>
<mask id="mask0" mask-type="alpha" maskUnits="userSpaceOnUse" x="49" y="0" width="226" height="226">
<circle cx="161.821" cy="112.855" r="112.821" fill="#E5E5E5"/>
</mask>
<g mask="url(#mask0)">
<circle cx="133.767" cy="212.448" r="117.067" fill="#9FFCF7"/>
</g>
<path fill-rule="evenodd" clip-rule="evenodd" d="M169.834 69.1469C169.708 69.4617 169.435 69.6968 169.104 69.771C133.213 77.8335 109.119 112.385 114.642 149.344C120.423 188.038 156.478 214.719 195.172 208.937C197.748 208.552 200.271 208.033 202.734 207.388C203.797 207.11 203.629 205.546 202.543 205.383C179.011 201.859 159.518 183.368 155.818 158.61C151.282 128.246 172.219 99.9527 202.583 95.4158C218.691 93.0089 234.216 97.771 245.921 107.306C246.771 107.999 248.035 107.074 247.528 106.101C243.844 99.0388 239.025 92.7276 233.345 87.3709C233.099 87.1384 232.985 86.7982 233.038 86.4635C233.55 83.2237 233.583 79.852 233.073 76.436C230.383 58.4325 213.607 46.0184 195.604 48.7085C183.568 50.5068 174.031 58.6001 169.834 69.1469Z" fill="url(#paint0_linear)"/>
<path fill-rule="evenodd" clip-rule="evenodd" d="M213.454 94.1818C213.58 94.5905 213.946 94.8825 214.373 94.9096C219.142 95.2122 223.783 96.1277 228.202 97.5882C228.656 97.7383 229.157 97.5547 229.388 97.1351C232.73 91.0399 234.179 83.8421 233.073 76.4366C230.383 58.433 213.607 46.019 195.604 48.709C182.505 50.6662 172.365 60.0795 168.848 71.9971C168.614 72.7909 169.427 73.4686 170.2 73.1737C172.386 72.3403 174.695 71.7282 177.104 71.3683C193.417 68.9307 208.723 78.8949 213.454 94.1818Z" fill="url(#paint1_linear)"/>
<path fill-rule="evenodd" clip-rule="evenodd" d="M214.048 94.8894C215.788 89.9723 216.382 84.5697 215.558 79.0517C213.321 64.0829 201.347 52.978 187.027 51.2057C189.697 50.0145 192.571 49.1616 195.604 48.7084C213.608 46.0184 230.383 58.4324 233.073 76.436C234.223 84.1343 232.612 91.6081 228.983 97.8521C224.231 96.2029 219.214 95.1866 214.048 94.8894Z" fill="url(#paint2_linear)"/>
<path d="M181.752 71.5416C183.872 82.546 176.643 93.1906 165.605 95.3169C145.447 99.2005 94.2489 89.6007 61.3138 75.9082C60.4076 75.5314 60.543 74.2277 61.5067 74.042C91.0946 68.3419 147.281 57.5175 157.928 55.4664C168.965 53.3401 179.632 60.5372 181.752 71.5416Z" fill="url(#paint3_linear)"/>
<mask id="mask1" mask-type="alpha" maskUnits="userSpaceOnUse" x="60" y="55" width="123" height="42">
<path d="M181.752 71.5416C183.872 82.546 176.643 93.1906 165.605 95.3169C145.447 99.2005 94.2489 89.6007 61.3138 75.9082C60.4076 75.5314 60.543 74.2277 61.5067 74.042C91.0946 68.3419 147.281 57.5175 157.928 55.4664C168.965 53.3401 179.632 60.5372 181.752 71.5416Z" fill="url(#paint4_linear)"/>
</mask>
<g mask="url(#mask1)">
<path d="M186.87 63.9801C188.99 74.9845 181.761 85.6291 170.724 87.7554C150.565 91.6389 99.3673 82.0392 66.4322 68.3466C65.526 67.9699 65.6614 66.6661 66.6251 66.4805C96.2131 60.7804 152.4 49.956 163.047 47.9049C174.084 45.7785 184.75 52.9757 186.87 63.9801Z" fill="#9FFCF7"/>
</g>
<mask id="mask2" mask-type="alpha" maskUnits="userSpaceOnUse" x="113" y="68" width="135" height="142">
<path fill-rule="evenodd" clip-rule="evenodd" d="M247.528 106.1C248.035 107.072 246.772 107.999 245.921 107.306C234.216 97.7708 218.691 93.0087 202.583 95.4156C172.219 99.9525 151.282 128.246 155.819 158.61C159.518 183.367 179.011 201.858 202.542 205.383C203.629 205.546 203.797 207.11 202.734 207.388C200.271 208.033 197.748 208.552 195.173 208.937C156.478 214.718 120.424 188.038 114.642 149.343C108.86 110.649 135.541 74.5943 174.235 68.8127C204.919 64.228 233.942 80.0559 247.528 106.1Z" fill="#DB46C4"/>
</mask>
<g mask="url(#mask2)">
<circle cx="192.69" cy="169.018" r="67.3962" transform="rotate(-8.49818 192.69 169.018)" fill="url(#paint5_linear)"/>
</g>
<path d="M26.84 259.6V288H21.36V275.88H8.48V288H2.96V259.6H8.48V271.08H21.36V259.6H26.84ZM41.6131 288.4C39.3465 288.4 37.3865 287.907 35.7331 286.92C34.1065 285.934 32.8398 284.627 31.9331 283C31.0265 281.347 30.5731 279.56 30.5731 277.64C30.5731 275.667 31.0131 273.854 31.8931 272.2C32.7998 270.52 34.0798 269.187 35.7331 268.2C37.3865 267.187 39.3598 266.68 41.6531 266.68C43.9465 266.68 45.9065 267.187 47.5331 268.2C49.1598 269.187 50.3998 270.507 51.2531 272.16C52.1331 273.787 52.5731 275.547 52.5731 277.44C52.5731 278.134 52.5331 278.734 52.4531 279.24H36.2531C36.3865 280.867 36.9865 282.147 38.0531 283.08C39.1465 284.014 40.3998 284.48 41.8131 284.48C42.8798 284.48 43.8798 284.227 44.8131 283.72C45.7731 283.187 46.4265 282.494 46.7731 281.64L51.3731 282.92C50.5998 284.52 49.3598 285.84 47.6531 286.88C45.9465 287.894 43.9331 288.4 41.6131 288.4ZM36.1331 275.84H47.0931C46.9331 274.267 46.3331 273 45.2931 272.04C44.2798 271.054 43.0398 270.56 41.5731 270.56C40.1331 270.56 38.8931 271.054 37.8531 272.04C36.8398 273 36.2665 274.267 36.1331 275.84ZM55.8384 288V267.04H67.5184C68.9584 267.04 70.1184 267.28 70.9984 267.76C71.9051 268.24 72.5718 268.867 72.9984 269.64C73.4251 270.414 73.6384 271.24 73.6384 272.12C73.6384 273.294 73.3718 274.32 72.8384 275.2C72.3051 276.08 71.5051 276.76 70.4384 277.24C71.6651 277.56 72.6651 278.147 73.4384 279C74.2118 279.854 74.5984 280.96 74.5984 282.32C74.5984 284.294 73.9051 285.734 72.5184 286.64C71.1584 287.547 69.3051 288 66.9584 288H55.8384ZM60.9184 275.76H66.1584C66.8784 275.76 67.4651 275.507 67.9184 275C68.3718 274.467 68.5984 273.84 68.5984 273.12C68.5984 272.427 68.3718 271.854 67.9184 271.4C67.4918 270.92 66.9184 270.68 66.1984 270.68H60.9184V275.76ZM60.9184 284.36H66.7984C67.5451 284.36 68.1584 284.107 68.6384 283.6C69.1451 283.094 69.3984 282.467 69.3984 281.72C69.3984 280.974 69.1584 280.36 68.6784 279.88C68.1984 279.374 67.5851 279.12 66.8384 279.12H60.9184V284.36ZM78.4947 288V267.08H83.8547V280.84L93.2547 267.04H98.1347V288H92.7747V274.56L83.4947 288H78.4947ZM101.306 293.08V283.32H101.866C102.559 283.32 103.199 283.054 103.786 282.52C104.373 281.987 104.853 281.027 105.226 279.64C105.626 278.254 105.866 276.254 105.946 273.64L106.186 267.04H121.906V283.32H124.826V293.08H120.146V288H106.026V293.08H101.306ZM108.626 283.32H116.546V271.56H110.866L110.746 274.16C110.639 276.827 110.413 278.867 110.066 280.28C109.719 281.694 109.239 282.707 108.626 283.32ZM128.299 288V267.08H133.659V280.84L143.059 267.04H147.939V288H142.579V274.56L133.299 288H128.299ZM152.831 288V267.04H158.431L164.991 279.16L171.591 267.04H177.111V288H172.031V274.44L166.671 284.28H163.311L157.911 274.44V288H152.831ZM182.049 288V267.04H187.409V273.64H191.089C193.623 273.64 195.556 274.28 196.889 275.56C198.223 276.84 198.889 278.534 198.889 280.64C198.889 282.8 198.249 284.574 196.969 285.96C195.716 287.32 193.876 288 191.449 288H182.049ZM202.169 288V267.08H207.529V288H202.169ZM187.409 283.92H190.609C191.703 283.92 192.503 283.614 193.009 283C193.516 282.36 193.769 281.587 193.769 280.68C193.769 279.8 193.529 279.067 193.049 278.48C192.569 277.867 191.743 277.56 190.569 277.56H187.409V283.92ZM212.44 288V267.08H217.8V280.84L227.2 267.04H232.08V288H226.72V274.56L217.44 288H212.44ZM222.28 265.08C220.227 265.08 218.613 264.56 217.44 263.52C216.267 262.454 215.68 261.094 215.68 259.44H219C219 260.24 219.253 260.907 219.76 261.44C220.293 261.974 221.133 262.24 222.28 262.24C223.4 262.24 224.2 261.987 224.68 261.48C225.187 260.974 225.493 260.294 225.6 259.44H228.92C228.92 261.094 228.333 262.454 227.16 263.52C225.987 264.56 224.36 265.08 222.28 265.08ZM246.581 288V267.04H252.181L258.741 279.16L265.341 267.04H270.861V288H265.781V274.44L260.421 284.28H257.061L251.661 274.44V288H246.581ZM275.799 288V267.08H281.159V280.84L290.559 267.04H295.439V288H290.079V274.56L280.799 288H275.799ZM312.891 288.4C311.237 288.4 309.797 288.027 308.571 287.28C307.344 286.534 306.384 285.547 305.691 284.32V296.52H300.331V267.04H305.011V270.64C305.784 269.414 306.784 268.454 308.011 267.76C309.264 267.04 310.677 266.68 312.251 266.68C314.144 266.68 315.824 267.174 317.291 268.16C318.757 269.12 319.917 270.427 320.771 272.08C321.624 273.707 322.051 275.507 322.051 277.48C322.051 279.534 321.651 281.387 320.851 283.04C320.077 284.667 318.997 285.974 317.611 286.96C316.251 287.92 314.677 288.4 312.891 288.4ZM311.091 283.84C312.184 283.84 313.131 283.547 313.931 282.96C314.757 282.347 315.397 281.56 315.851 280.6C316.331 279.614 316.571 278.574 316.571 277.48C316.571 276.307 316.317 275.254 315.811 274.32C315.304 273.36 314.611 272.614 313.731 272.08C312.877 271.52 311.891 271.24 310.771 271.24C309.757 271.24 308.744 271.574 307.731 272.24C306.717 272.907 306.037 273.747 305.691 274.76V279.68C306.171 280.854 306.904 281.84 307.891 282.64C308.877 283.44 309.944 283.84 311.091 283.84Z" fill="url(#paint6_linear)"/>
<defs>
<linearGradient id="paint0_linear" x1="150.272" y1="114.655" x2="217.451" y2="80.8538" gradientUnits="userSpaceOnUse">
<stop stop-color="#AC1699"/>
<stop offset="0.90625" stop-color="#A0FEF8"/>
</linearGradient>
<linearGradient id="paint1_linear" x1="191.941" y1="63.8391" x2="223.063" y2="110.087" gradientUnits="userSpaceOnUse">
<stop stop-color="#562590"/>
<stop offset="1" stop-color="#D344C1"/>
</linearGradient>
<linearGradient id="paint2_linear" x1="140.681" y1="131.702" x2="218.424" y2="71.7761" gradientUnits="userSpaceOnUse">
<stop stop-color="#321C82" stop-opacity="0"/>
<stop offset="0.671875" stop-color="#9FFCF7"/>
</linearGradient>
<linearGradient id="paint3_linear" x1="65.3452" y1="71.8936" x2="184.369" y2="85.127" gradientUnits="userSpaceOnUse">
<stop stop-color="#9FFCF7"/>
<stop offset="1" stop-color="#1E106D"/>
</linearGradient>
<linearGradient id="paint4_linear" x1="61.5146" y1="76.3887" x2="181.357" y2="88.9949" gradientUnits="userSpaceOnUse">
<stop stop-color="#150064"/>
<stop offset="1" stop-color="#DB46C4"/>
</linearGradient>
<linearGradient id="paint5_linear" x1="192.69" y1="101.622" x2="192.69" y2="236.414" gradientUnits="userSpaceOnUse">
<stop stop-color="#321C82" stop-opacity="0"/>
<stop offset="0.833333" stop-color="#321C82"/>
</linearGradient>
<linearGradient id="paint6_linear" x1="3.25301" y1="250" x2="308.644" y2="298.2" gradientUnits="userSpaceOnUse">
<stop offset="0.197917" stop-color="#6250AC"/>
<stop offset="1" stop-color="#48DBD2"/>
</linearGradient>
</defs>
</svg>
