<svg width="24" height="24" viewBox="0 0 24 24" fill="none" xmlns="http://www.w3.org/2000/svg">
<path d="M6.12132 5.82839L5.82842 6.12128C5.4379 6.51181 5.4379 7.14497 5.82842 7.5355L9.53553 11.2426C9.92605 11.6331 9.92605 12.2663 9.53552 12.6568L5.82842 16.3639C5.4379 16.7544 5.4379 17.3876 5.82842 17.7781L6.12131 18.071C6.51184 18.4615 7.145 18.4615 7.53553 18.071L11.2426 14.3639C11.6332 13.9734 12.2663 13.9734 12.6568 14.3639L16.3639 18.071C16.7545 18.4615 17.3876 18.4615 17.7782 18.071L18.0711 17.7781C18.4616 17.3876 18.4616 16.7544 18.0711 16.3639L14.3639 12.6568C13.9734 12.2663 13.9734 11.6331 14.3639 11.2426L18.0711 7.5355C18.4616 7.14497 18.4616 6.51181 18.0711 6.12128L17.7782 5.82839C17.3876 5.43787 16.7545 5.43787 16.3639 5.82839L12.6568 9.5355C12.2663 9.92602 11.6332 9.92602 11.2426 9.53549L7.53553 5.82839C7.145 5.43787 6.51184 5.43787 6.12132 5.82839Z" fill="#48DBD2"/>
</svg>
