<svg width="64" height="41" viewBox="0 0 64 41" fill="none" xmlns="http://www.w3.org/2000/svg">
<path d="M2.15514 1.96395C1.61407 1.31377 2.0744 0.327277 2.92026 0.324291L62.7965 0.112902C63.3488 0.110952 63.7981 0.557084 63.8 1.10937L63.9342 39.1091C63.9361 39.6614 63.49 40.1107 62.9377 40.1127L3.06148 40.324C2.21561 40.327 1.74833 39.3438 2.2848 38.6898L16.868 20.9121C17.1721 20.5413 17.1702 20.0069 16.8635 19.6382L2.15514 1.96395Z" fill="url(#paint0_linear)"/>
<path d="M42.9904 18.1124L52.1802 8.85755C52.5693 8.46565 53.2025 8.46341 53.5944 8.85256L54.9618 10.2104L56.3293 11.5682C56.7212 11.9574 56.7234 12.5905 56.3343 12.9824L47.1677 22.2139C47.0146 22.3681 46.8155 22.4682 46.6004 22.4991L43.2126 22.9862C42.53 23.0843 41.9553 22.4785 42.0893 21.8021L42.7191 18.6227C42.7573 18.4296 42.8517 18.2521 42.9904 18.1124Z" fill="#48DBD2"/>
<path d="M54.8603 18.3077L54.8986 29.141C54.9025 30.2455 54.0102 31.1441 52.9057 31.148L34.9058 31.2116C33.8012 31.2155 32.9026 30.3232 32.8987 29.2186L32.8352 11.2187C32.8313 10.1142 33.7235 9.21559 34.8281 9.21169L47.4947 9.16697" stroke="#48DBD2" stroke-width="2" stroke-linecap="round"/>
<defs>
<linearGradient id="paint0_linear" x1="-26.9908" y1="25.4486" x2="35.6316" y2="-37.2011" gradientUnits="userSpaceOnUse">
<stop offset="0.015625" stop-color="#0ACAC0"/>
<stop offset="0.630208" stop-color="#1D0F5C"/>
<stop offset="0.994792" stop-color="#160F30"/>
</linearGradient>
</defs>
</svg>
