<svg width="26" height="25" viewBox="0 0 26 25" fill="none" xmlns="http://www.w3.org/2000/svg">
<path d="M3.70241 24.4272H12.5064C12.9204 24.4272 13.2564 24.0896 13.2564 23.6735C13.2564 23.5127 13.2464 16.7991 13.2454 16.6383C13.2454 16.2222 12.9094 15.8845 12.4954 15.8845H10.2454V13.372H12.4954C12.9094 13.372 13.2454 13.0343 13.2454 12.6182V9.78704C13.2454 7.33076 15.2344 5.33177 17.6784 5.33177H19.7454V7.84433H18.4954C17.5304 7.84433 16.7454 8.63328 16.7454 9.60312V12.6182C16.7454 13.0343 17.0814 13.372 17.4954 13.372H20.5354L19.9104 15.8845H17.4954C17.0814 15.8845 16.7454 16.2222 16.7454 16.6383V23.6735C16.7454 24.0896 17.0814 24.4272 17.4954 24.4272H22.2884C23.7814 24.4272 24.9954 23.2071 24.9954 21.7066V3.02724C24.9954 1.52674 23.7814 0.306641 22.2884 0.306641H3.70241C2.20941 0.306641 0.995407 1.52674 0.995407 3.02724V21.7076C0.995407 23.2071 2.20941 24.4272 3.70241 24.4272V24.4272ZM2.49541 3.02724C2.49541 2.3579 3.03641 1.81418 3.70241 1.81418H22.2894C22.9554 1.81418 23.4964 2.3579 23.4964 3.02724V21.7076C23.4964 22.377 22.9554 22.9207 22.2894 22.9207H18.2454V17.3921H20.4954C20.8394 17.3921 21.1394 17.1569 21.2234 16.8212L22.2234 12.8011C22.3414 12.3257 21.9844 11.8644 21.4954 11.8644H18.2454V9.60312C18.2454 9.46644 18.3594 9.35187 18.4954 9.35187H20.4954C20.9094 9.35187 21.2454 9.01418 21.2454 8.5981V4.578C21.2454 4.16192 20.9094 3.82423 20.4954 3.82423H17.6784C14.4074 3.82423 11.7454 6.49961 11.7454 9.78704V11.8644H9.49541C9.08141 11.8644 8.74541 12.2021 8.74541 12.6182V16.6383C8.74541 17.0544 9.08141 17.3921 9.49541 17.3921H11.7454V22.9197H3.70241C3.03641 22.9197 2.49541 22.376 2.49541 21.7066V3.02724Z" fill="url(#paint0_linear)" stroke="url(#paint1_linear)" stroke-width="0.5"/>
<defs>
<linearGradient id="paint0_linear" x1="1.23637" y1="0.306646" x2="24.4094" y2="0.834537" gradientUnits="userSpaceOnUse">
<stop stop-color="#48DBD2"/>
<stop offset="0.0001" stop-color="#48DBD2"/>
<stop offset="1" stop-color="#6250AC"/>
</linearGradient>
<linearGradient id="paint1_linear" x1="1.23637" y1="0.306646" x2="24.4094" y2="0.834537" gradientUnits="userSpaceOnUse">
<stop stop-color="#48DBD2"/>
<stop offset="0.0001" stop-color="#48DBD2"/>
<stop offset="1" stop-color="#6250AC"/>
</linearGradient>
</defs>
</svg>
