<svg width="163" height="159" viewBox="0 0 163 159" fill="none" xmlns="http://www.w3.org/2000/svg">
<path d="M159.59 102.546C157.43 111.306 147.44 117.324 144.065 123.581L131.594 144C131.594 142.175 116.119 129.369 90.7384 127.492C59.0124 125.146 44.1319 108.894 46.187 96.9878C48.2121 85.2554 54.2873 90.7305 56.9873 80.5624C59.6874 70.3943 52.2795 55.5331 56.9873 48.4937C62.7414 39.8899 69.1932 48.9625 74.5379 33.6326C80.2934 17.1243 72.0415 -6.61115e-05 88.7133 0C104.914 6.4243e-05 104.239 20.3361 110.988 26.593C121.595 36.4272 128.893 25.0288 136.319 33.6326C143.744 42.2363 138.237 53.7898 140.69 58.6617C145.415 68.0476 151.49 60.226 159.59 72.7406C165.678 82.1478 162.29 91.5953 159.59 102.546Z" fill="url(#paint0_linear)"/>
<path fill-rule="evenodd" clip-rule="evenodd" d="M106.151 48.5222C105.951 46.0851 105.407 42.8935 103.251 39.2436C101.375 36.0692 98.6057 34.04 97.0653 35.462C94.0623 38.2344 97.9649 42.0184 101.868 45.8023C103.347 47.2369 103.936 48.1698 104.384 48.9502L104.176 49.0586C104.923 50.4972 105.685 51.9228 106.457 53.3683L106.457 53.3685L106.457 53.3686L106.457 53.3686C107.707 55.7074 108.985 58.0984 110.274 60.6816C108.283 59.7621 105.68 58.6345 103.691 58.0202C100.008 56.883 96.8503 57.0565 96.536 58.0742C96.2091 59.1327 98.0359 60.6498 102.633 61.5498C105.824 62.1745 108.891 62.0954 110.88 61.9084C113.598 67.473 116.355 73.9835 118.999 82.7391C117.167 81.4176 114.839 79.8271 112.993 78.8415C109.421 76.9346 106.111 76.5168 105.567 77.5357C105.001 78.5954 106.569 80.5514 111.14 82.3813C114.243 83.6232 117.367 84.1293 119.468 84.3201C120.616 88.26 121.741 92.6424 122.83 97.5753C123.87 102.288 124.557 106.935 124.97 111.433C123.232 109.406 120.633 106.775 117.409 104.576C112.175 101.006 108.979 100.69 108.271 102.01C107.59 103.279 110.676 106.102 115.269 108.566C118.146 110.108 122.306 112.037 125.118 113.184C125.735 121.186 125.505 128.671 124.893 135.153C123.497 132.43 121.33 129.52 119.194 127.262C115.253 123.094 109.728 120.263 108.242 121.669C106.863 122.972 108.855 124.558 113.174 127.995L113.176 127.996L113.176 127.996C113.698 128.412 114.255 128.855 114.844 129.328C116.85 130.939 118.572 132.372 120.116 133.657C121.799 135.058 123.271 136.283 124.666 137.368C124.624 137.744 124.581 138.116 124.537 138.484C123.876 144.002 122.972 148.624 122.171 151.991C121.77 153.674 121.396 155.04 121.091 156.045C120.778 157.078 120.557 157.667 120.47 157.842L122.259 158.735C122.433 158.388 122.697 157.644 123.005 156.625C123.323 155.577 123.708 154.172 124.117 152.454C124.934 149.018 125.852 144.32 126.522 138.722C126.692 137.309 126.845 135.838 126.977 134.316C129.295 133.621 131.751 132.275 136.745 128.606C138.83 127.073 140.567 125.994 141.941 125.139C144.977 123.252 146.247 122.462 145.612 120.319C144.923 117.992 138.178 119.46 133.294 124.2C130.602 126.812 128.724 129.563 127.161 131.965C127.642 125.01 127.652 117.097 126.703 108.729C128.875 107.148 132.186 104.379 134.942 100.722C138.754 95.6617 139.221 92.4844 137.936 91.7147C136.7 90.9747 133.735 93.9242 131.057 98.3959C129.587 100.852 127.773 104.281 126.487 106.945C126.073 103.73 125.514 100.454 124.783 97.1442C124.092 94.014 123.386 91.1018 122.669 88.3809C124.962 86.9696 128.438 84.4927 131.443 81.1062C135.648 76.3675 136.368 73.2377 135.148 72.3677C133.976 71.5312 130.438 73.9351 127.411 78.1783C125.679 80.6071 123.678 84.2209 122.272 86.901C120.386 79.9711 118.426 74.3155 116.453 69.4619C118.455 67.9119 121.499 65.2116 123.995 61.6888C127.447 56.8161 127.799 53.8097 126.567 53.1201C125.382 52.4571 122.315 55.0734 119.916 59.3605C118.516 61.8621 116.981 65.5462 115.939 68.2156C113.333 61.9905 110.714 57.0903 108.223 52.4299L108.223 52.4299C107.521 51.1164 106.83 49.8219 106.151 48.5222Z" fill="url(#paint1_linear)"/>
<path fill-rule="evenodd" clip-rule="evenodd" d="M48.4952 54.9949C48.5629 60.7914 47.3463 66.1117 46.4093 69.2406C52.2357 72.8699 58.6703 77.3667 66.0169 83.2875C65.4342 79.3619 64.7286 73.7687 64.6944 69.7405C64.637 62.9609 66.5237 57.7264 68.3976 57.7105C70.3464 57.6939 71.9808 61.5385 71.1766 69.7405C70.5844 75.7802 68.7272 81.1861 67.3804 84.3942C70.1911 86.6917 73.1339 89.1962 76.2251 91.9375C79.6378 94.9639 82.83 98.0937 85.8095 101.271C85.097 97.4287 84.3311 92.1243 83.9857 88.2343C83.3859 81.4809 84.2528 76.1099 86.1194 75.9441C88.0607 75.7717 89.9974 79.4732 89.8521 87.7133C89.7435 93.8695 88.2846 99.4796 87.1932 102.767C94.6694 110.957 100.752 119.404 105.574 127.168C105.368 123.309 105.179 118.763 106.062 113.686C107.581 104.964 113.558 98.2631 116.063 100.186C118.369 101.956 117.635 103.758 115.883 108.065L115.883 108.065C115.089 110.015 114.087 112.479 113.063 115.686C110.526 123.629 108.95 126.88 106.948 129.417C107.949 131.083 108.89 132.712 109.772 134.294C113.34 140.688 115.96 146.324 117.721 150.556C118.601 152.672 119.268 154.439 119.733 155.779C120.187 157.089 120.47 158.051 120.548 158.521L118.575 158.85C118.529 158.57 118.303 157.759 117.843 156.434C117.394 155.138 116.741 153.408 115.874 151.324C114.14 147.158 111.554 141.591 108.026 135.268C107.82 134.899 107.61 134.527 107.398 134.152C105.002 134.082 102.41 133.911 99.4202 133.713L99.42 133.713C96.8133 133.541 93.9047 133.348 90.5616 133.186C89.5796 133.138 88.6544 133.097 87.7859 133.059L87.7855 133.059L87.785 133.059C80.6125 132.742 77.3038 132.596 77.7585 130.17C78.2487 127.554 86.2284 126.311 93.5617 127.686C97.7266 128.466 102.474 129.973 106.095 131.897C101.762 124.521 96.2254 116.339 89.3633 108.258C85.5388 109.215 79.4685 110.415 75.1407 111.006C68.4232 111.924 63.0173 111.311 62.7637 109.454C62.4999 107.523 66.1059 105.414 74.3437 105.171C79.6771 105.013 84.6486 105.888 88.0507 106.733C84.096 102.196 79.7191 97.7091 74.8981 93.4339C71.9798 90.8459 69.1959 88.4713 66.5323 86.2845L66.4986 86.354L66.4799 86.2415C64.7027 84.7833 62.9791 83.4087 61.3048 82.11C58.9638 83.532 55.1638 85.4943 50.7809 86.6008C44.5707 88.1686 41.4253 87.3079 41.2108 85.7602C41.0046 84.2719 44.8078 82.1819 50.0252 81.4589C52.8755 81.0639 56.8088 80.9692 59.822 80.9699C50.2338 73.6618 42.2747 68.8555 35.0985 65.0369C33.174 66.7612 29.9015 69.3197 25.9039 71.176C20.3769 73.7425 17.2945 73.542 16.8295 72.178C16.3825 70.8665 19.574 68.2701 24.3191 66.6526C27.0293 65.7288 30.9003 64.8844 33.756 64.329C30.2988 62.5224 27.0156 60.9286 23.8079 59.3714L23.8079 59.3714L23.8078 59.3714C21.8901 58.4404 19.9993 57.5225 18.1144 56.5801L18.1167 56.5756C17.0483 56.0968 15.7157 55.5648 13.0617 55.1856C6.06164 54.1856 -0.938425 53.1856 0.103479 47.9721C0.637904 45.2979 5.10408 45.317 9.50438 47.225C14.976 49.5974 18.0531 52.8467 20.1381 55.3528C21.6416 56.0966 23.1539 56.8307 24.6854 57.5741L24.6854 57.5742C30.9388 60.6097 37.5126 63.8008 45.1141 68.4418C44.1569 64.8156 42.8778 59.5109 42.4219 55.6621C41.6702 49.3159 42.8992 44.2173 44.6532 44.0096C46.4775 43.7935 48.4045 47.2274 48.4952 54.9949Z" fill="url(#paint2_linear)"/>
<defs>
<linearGradient id="paint0_linear" x1="214.77" y1="90.0667" x2="31.1193" y2="-4.04821" gradientUnits="userSpaceOnUse">
<stop offset="0.015625" stop-color="#0ACAC0"/>
<stop offset="0.630208" stop-color="#1D0F5C"/>
<stop offset="0.994792" stop-color="#160F30"/>
</linearGradient>
<linearGradient id="paint1_linear" x1="119.655" y1="35" x2="119.655" y2="168.342" gradientUnits="userSpaceOnUse">
<stop stop-color="#D3C7FF" stop-opacity="0.05"/>
<stop offset="1" stop-color="#AF99FF"/>
</linearGradient>
<linearGradient id="paint2_linear" x1="117.481" y1="145.686" x2="136.529" y2="94.5272" gradientUnits="userSpaceOnUse">
<stop stop-color="#B0FFFA" stop-opacity="0"/>
<stop offset="1" stop-color="#B3A2FF"/>
</linearGradient>
</defs>
</svg>
