<svg width="82" height="82" viewBox="0 0 82 82" fill="none" xmlns="http://www.w3.org/2000/svg">
<circle cx="40.935" cy="40.935" r="40.935" fill="#160F30"/>
<mask id="mask0" mask-type="alpha" maskUnits="userSpaceOnUse" x="0" y="0" width="82" height="82">
<circle cx="40.935" cy="40.9477" r="40.935" fill="#E5E5E5"/>
</mask>
<g mask="url(#mask0)">
<circle cx="30.7568" cy="77.0825" r="42.4756" fill="#9FFCF7"/>
</g>
<path fill-rule="evenodd" clip-rule="evenodd" d="M66.8231 31.0283C66.78 31.3645 66.8925 31.7038 67.1359 31.9397C68.3223 33.0888 69.4011 34.3546 70.3528 35.7225C70.9793 36.623 69.7301 37.6425 68.7801 37.094C64.9695 34.8939 60.4156 33.9196 55.7256 34.6204C44.7085 36.2666 37.1118 46.5322 38.758 57.5493C39.9539 65.5533 45.6994 71.7519 52.9772 73.9126C53.9338 74.1965 54.0233 75.6622 53.0364 75.8097C38.9969 77.9074 25.9151 68.2267 23.8173 54.1873C21.7196 40.1478 31.4003 27.066 45.4397 24.9682C47.4503 24.6678 49.4413 24.6089 51.3831 24.7698C49.4409 24.6088 47.4495 24.6676 45.4386 24.9681C44.7156 25.0761 44.1284 24.3744 44.4813 23.7342C46.2196 20.5814 49.356 18.2462 53.1916 17.673C59.7239 16.697 65.8106 21.2012 66.7866 27.7335C66.9539 28.8527 66.9602 29.9588 66.8231 31.0283Z" fill="url(#paint0_linear)"/>
<path fill-rule="evenodd" clip-rule="evenodd" d="M59.5259 33.7394C59.6679 34.1429 60.0306 34.4334 60.4568 34.4702C61.8493 34.5904 63.2093 34.8546 64.519 35.2497C64.9772 35.388 65.4805 35.2071 65.692 34.7778C66.7309 32.6695 67.1603 30.2342 66.7867 27.7336C65.8107 21.2014 59.724 16.6972 53.1917 17.6732C48.8928 18.3155 45.4722 21.1713 43.914 24.9109C43.5956 25.6749 44.3987 26.3672 45.1993 26.1573C45.6165 26.0479 46.0437 25.9599 46.48 25.8947C52.2437 25.0335 57.6606 28.4389 59.5259 33.7394Z" fill="url(#paint1_linear)"/>
<path fill-rule="evenodd" clip-rule="evenodd" d="M59.8857 34.4294C60.5166 32.6455 60.7322 30.6854 60.4331 28.6834C59.6216 23.2523 55.2772 19.2231 50.0811 18.58C51.0501 18.1477 52.0932 17.8382 53.1938 17.6737C59.7261 16.6977 65.8128 21.2019 66.7888 27.7341C67.2062 30.5273 66.6215 33.239 65.3047 35.5045C63.5805 34.9061 61.76 34.5373 59.8857 34.4294Z" fill="url(#paint2_linear)"/>
<path d="M48.1664 25.9584C48.9356 29.9511 46.3127 33.8133 42.308 34.5848C35.3711 35.9212 18.3037 32.857 6.36698 28.299C5.45013 27.9489 5.58673 26.6635 6.55043 26.4778C17.64 24.3414 35.8893 20.8257 39.5225 20.1258C43.5272 19.3543 47.3972 21.9656 48.1664 25.9584Z" fill="url(#paint3_linear)"/>
<mask id="mask1" mask-type="alpha" maskUnits="userSpaceOnUse" x="5" y="19" width="44" height="16">
<path d="M48.1664 25.9584C48.9356 29.9511 46.3127 33.8133 42.308 34.5848C35.3711 35.9212 18.3037 32.857 6.36698 28.299C5.45013 27.9489 5.58673 26.6635 6.55043 26.4778C17.64 24.3414 35.8893 20.8257 39.5225 20.1258C43.5272 19.3543 47.3972 21.9656 48.1664 25.9584Z" fill="url(#paint4_linear)"/>
</mask>
<g mask="url(#mask1)">
<path d="M50.0228 23.2147C50.792 27.2075 48.1691 31.0697 44.1645 31.8412C37.2275 33.1776 20.1601 30.1134 8.22342 25.5554C7.30657 25.2053 7.44318 23.9198 8.40687 23.7342C19.4965 21.5978 37.7458 18.0821 41.3789 17.3821C45.3836 16.6106 49.2536 19.222 50.0228 23.2147Z" fill="#9FFCF7"/>
</g>
<mask id="mask2" mask-type="alpha" maskUnits="userSpaceOnUse" x="23" y="24" width="48" height="53">
<path fill-rule="evenodd" clip-rule="evenodd" d="M70.352 35.7217C70.9786 36.6222 69.7297 37.6421 68.7797 37.0936C64.969 34.8935 60.4152 33.9192 55.7251 34.62C44.708 36.2662 37.1114 46.5318 38.7575 57.5489C39.9535 65.5529 45.6989 71.7515 52.9767 73.9122C53.9333 74.1961 54.0228 75.6618 53.0359 75.8093C38.9965 77.907 25.9146 68.2263 23.8169 54.1868C21.7191 40.1474 31.3998 27.0655 45.4393 24.9678C55.4353 23.4742 64.9458 27.9515 70.352 35.7217Z" fill="#DB46C4"/>
</mask>
<g mask="url(#mask2)">
<circle cx="52.1346" cy="61.3252" r="24.4535" transform="rotate(-8.49818 52.1346 61.3252)" fill="url(#paint5_linear)"/>
</g>
<defs>
<linearGradient id="paint0_linear" x1="36.4058" y1="41.6512" x2="60.347" y2="29.8138" gradientUnits="userSpaceOnUse">
<stop stop-color="#AC1699"/>
<stop offset="0.90625" stop-color="#A0FEF8"/>
</linearGradient>
<linearGradient id="paint1_linear" x1="52.1652" y1="23.0716" x2="63.4188" y2="39.6032" gradientUnits="userSpaceOnUse">
<stop stop-color="#562590"/>
<stop offset="1" stop-color="#D344C1"/>
</linearGradient>
<linearGradient id="paint2_linear" x1="33.2645" y1="47.7865" x2="61.4726" y2="26.0424" gradientUnits="userSpaceOnUse">
<stop stop-color="#321C82" stop-opacity="0"/>
<stop offset="0.671875" stop-color="#9FFCF7"/>
</linearGradient>
<linearGradient id="paint3_linear" x1="5.93044" y1="26.0861" x2="49.116" y2="30.8876" gradientUnits="userSpaceOnUse">
<stop stop-color="#9FFCF7"/>
<stop offset="1" stop-color="#1E106D"/>
</linearGradient>
<linearGradient id="paint4_linear" x1="4.5406" y1="27.7171" x2="48.0231" y2="32.291" gradientUnits="userSpaceOnUse">
<stop stop-color="#150064"/>
<stop offset="1" stop-color="#DB46C4"/>
</linearGradient>
<linearGradient id="paint5_linear" x1="52.1346" y1="36.8717" x2="52.1346" y2="85.7787" gradientUnits="userSpaceOnUse">
<stop stop-color="#321C82" stop-opacity="0"/>
<stop offset="0.833333" stop-color="#321C82"/>
</linearGradient>
</defs>
</svg>
