<svg width="24" height="25" viewBox="0 0 24 25" fill="none" xmlns="http://www.w3.org/2000/svg">
<path d="M23.9344 7.39819C23.8782 6.11656 23.672 5.23546 23.3766 4.47197C23.0718 3.66154 22.603 2.93597 21.9887 2.3328C21.3886 1.72024 20.6619 1.24425 19.8648 0.942759C19.1008 0.645867 18.2286 0.438613 16.9534 0.382106C15.6687 0.320813 15.2608 0.306641 12.0024 0.306641C8.74392 0.306641 8.33606 0.320813 7.05608 0.37732C5.78087 0.433828 4.90417 0.641266 4.14468 0.937974C3.33812 1.24425 2.61618 1.71545 2.01602 2.3328C1.40653 2.93597 0.933107 3.66633 0.632938 4.46736C0.33753 5.23546 0.131313 6.11178 0.0750881 7.3934C0.0141019 8.6846 0 9.0945 0 12.3693C0 15.6442 0.0141019 16.0541 0.0703264 17.3405C0.126551 18.6221 0.332952 19.5032 0.628359 20.2667C0.933107 21.0771 1.40653 21.8027 2.01602 22.4059C2.61618 23.0184 3.34289 23.4944 4.13992 23.7959C4.90417 24.0928 5.77611 24.3001 7.0515 24.3566C8.3313 24.4133 8.73934 24.4272 11.9978 24.4272C15.2563 24.4272 15.6641 24.4133 16.9441 24.3566C18.2193 24.3001 19.096 24.0928 19.8555 23.7959C21.4684 23.1692 22.7436 21.8876 23.3672 20.2667C23.6625 19.4986 23.8689 18.6221 23.9251 17.3405C23.9813 16.0541 23.9954 15.6442 23.9954 12.3693C23.9954 9.0945 23.9906 8.6846 23.9344 7.39819ZM21.7732 17.2462C21.7215 18.4242 21.5246 19.0604 21.3605 19.4844C20.9573 20.5353 20.1275 21.3692 19.0819 21.7745C18.6599 21.9395 18.0224 22.1373 16.8549 22.1891C15.589 22.2457 15.2094 22.2597 12.0071 22.2597C8.8049 22.2597 8.42049 22.2457 7.15919 22.1891C5.98708 22.1373 5.35415 21.9395 4.93219 21.7745C4.41188 21.5813 3.93828 21.275 3.55386 20.8745C3.15535 20.4833 2.8506 20.0121 2.6583 19.4892C2.49421 19.0651 2.29733 18.4242 2.24587 17.251C2.18946 15.9788 2.17554 15.597 2.17554 12.3787C2.17554 9.1604 2.18946 8.77405 2.24587 7.5066C2.29733 6.3286 2.49421 5.69248 2.6583 5.2684C2.8506 4.7453 3.15535 4.2695 3.55863 3.88297C3.94762 3.48245 4.41646 3.17617 4.93695 2.98309C5.35891 2.81817 5.99661 2.6203 7.16395 2.5684C8.42983 2.51189 8.80966 2.49772 12.0117 2.49772C15.2187 2.49772 15.5984 2.51189 16.8597 2.5684C18.0318 2.6203 18.6647 2.81817 19.0867 2.98309C19.607 3.17617 20.0806 3.48245 20.465 3.88297C20.8635 4.2741 21.1682 4.7453 21.3605 5.2684C21.5246 5.69248 21.7215 6.3332 21.7732 7.5066C21.8294 8.77884 21.8435 9.1604 21.8435 12.3787C21.8435 15.597 21.8294 15.974 21.7732 17.2462Z" fill="url(#paint0_linear)"/>
<path d="M12.0025 6.17334C8.59881 6.17334 5.83722 8.94864 5.83722 12.3696C5.83722 15.7906 8.59881 18.5659 12.0025 18.5659C15.4064 18.5659 18.1678 15.7906 18.1678 12.3696C18.1678 8.94864 15.4064 6.17334 12.0025 6.17334ZM12.0025 16.389C9.79436 16.389 8.00324 14.5891 8.00324 12.3696C8.00324 10.1502 9.79436 8.35025 12.0025 8.35025C14.2108 8.35025 16.0018 10.1502 16.0018 12.3696C16.0018 14.5891 14.2108 16.389 12.0025 16.389Z" fill="url(#paint1_linear)"/>
<path d="M19.8509 5.92798C19.8509 6.7268 19.2064 7.37451 18.4114 7.37451C17.6166 7.37451 16.9721 6.7268 16.9721 5.92798C16.9721 5.12897 17.6166 4.48145 18.4114 4.48145C19.2064 4.48145 19.8509 5.12897 19.8509 5.92798Z" fill="url(#paint2_linear)"/>
<defs>
<linearGradient id="paint0_linear" x1="0.240918" y1="0.306646" x2="23.4095" y2="0.834335" gradientUnits="userSpaceOnUse">
<stop stop-color="#48DBD2"/>
<stop offset="0.0001" stop-color="#48DBD2"/>
<stop offset="1" stop-color="#6250AC"/>
</linearGradient>
<linearGradient id="paint1_linear" x1="5.96102" y1="6.17334" x2="17.8667" y2="6.44456" gradientUnits="userSpaceOnUse">
<stop stop-color="#48DBD2"/>
<stop offset="0.0001" stop-color="#48DBD2"/>
<stop offset="1" stop-color="#6250AC"/>
</linearGradient>
<linearGradient id="paint2_linear" x1="17.001" y1="4.48145" x2="19.7806" y2="4.54477" gradientUnits="userSpaceOnUse">
<stop stop-color="#48DBD2"/>
<stop offset="0.0001" stop-color="#48DBD2"/>
<stop offset="1" stop-color="#6250AC"/>
</linearGradient>
</defs>
</svg>
