<svg width="320" height="37" viewBox="0 0 320 37" fill="none" xmlns="http://www.w3.org/2000/svg">
<path fill-rule="evenodd" clip-rule="evenodd" d="M294.152 25.6027C295.307 24.2503 297.022 21.9472 298.236 19.1531C299.91 15.3039 299.72 13.1847 298.773 12.8877C297.862 12.602 296.128 14.8436 295.095 18.1383C294.479 20.1029 293.943 22.9371 293.612 24.932C292.695 23.8029 291.799 22.7325 290.92 21.6826L290.92 21.6822L290.919 21.6816L290.919 21.6814C290.338 20.9873 289.765 20.3022 289.198 19.6149C288.355 17.7898 287.083 15.5604 285.304 13.6121C282.094 10.0953 279.612 9.61167 278.672 10.7464C277.768 11.8375 279.149 14.8774 282.154 17.366C283.69 18.6386 285.977 20.0544 287.863 21.14C288.366 21.747 288.872 22.352 289.383 22.9626L289.384 22.963L289.384 22.963L289.384 22.9632C290.547 24.353 291.735 25.772 292.956 27.3113C291.003 26.8538 288.316 26.2883 286.343 26.1036C282.905 25.7818 280.168 26.5133 280.079 27.4636C279.986 28.4519 281.867 29.4472 286.064 29.3931C289.111 29.3538 291.9 28.6636 293.593 28.1218C295.157 30.1307 296.776 32.3584 298.467 34.9905C296.899 34.6241 294.887 34.2063 293.38 34.0652C290.546 33.8 288.287 34.4288 288.211 35.2371C288.133 36.0777 289.68 36.9196 293.141 36.8633C295.467 36.8255 297.61 36.3141 299.025 35.8696C300.91 38.8765 302.886 42.4015 304.975 46.6945C303.113 46.0171 300.433 45.1088 298.457 44.6929C295.148 43.996 292.399 44.417 292.204 45.3461C292 46.3124 293.716 47.5031 297.808 47.9122C300.818 48.2133 303.647 47.8244 305.351 47.472C305.882 48.5807 306.421 49.7396 306.968 50.9525C308.296 53.8993 309.394 56.8519 310.3 59.7498C308.836 58.6639 306.83 57.3838 304.517 56.4269C300.402 54.7244 298.158 54.9663 297.861 55.9766C297.575 56.948 300.104 58.446 303.619 59.4799C305.708 60.0944 308.644 60.7818 310.732 61.1785C311.925 65.2497 312.744 69.1913 313.297 72.8321C310.811 71.5491 306.977 69.8522 304.165 68.8521C299.658 67.249 295.745 67.1505 295.173 68.7578C294.578 70.4295 296.654 72.7157 302.368 73.9039C306.676 74.7997 310.938 74.4031 313.462 73.9678C313.695 75.6392 313.872 77.241 314.005 78.7555C314.343 82.6347 314.387 85.9336 314.32 88.3547C314.287 89.5654 314.226 90.5532 314.162 91.2813C314.095 92.0396 314.029 92.4525 314.001 92.5581L315.936 93.0659C316.012 92.7741 316.088 92.2004 316.154 91.4572C316.222 90.6839 316.285 89.6554 316.319 88.4096C316.388 85.9176 316.343 82.5421 315.997 78.5816C315.908 77.5556 315.798 76.4897 315.664 75.3892C317.959 74.2348 321.591 72.0357 324.505 68.7854C328.401 64.4401 328.716 61.3682 327.246 60.3749C325.832 59.4198 322.74 61.8202 320.062 65.7836C318.548 68.0242 316.697 71.2232 315.44 73.6695C314.76 68.7935 313.613 63.3284 311.737 57.691C312.994 56.2656 314.735 53.9944 316.024 51.2518C317.919 47.2219 317.783 44.9687 316.788 44.6242C315.831 44.2929 314.216 46.7489 313.017 50.2108C312.414 51.952 311.731 54.2958 311.235 56.2284C310.52 54.2068 309.71 52.1679 308.791 50.1306C307.849 48.041 306.929 46.1082 306.029 44.3127C307.394 42.9909 309.298 40.8755 310.794 38.2601C313.005 34.3946 313.05 32.1378 312.086 31.7148C311.158 31.308 309.07 33.4711 307.599 36.826C306.812 38.6183 306.014 41.1546 305.438 43.1484C303.672 39.7088 301.984 36.7911 300.363 34.2437C301.517 32.885 303.204 30.6039 304.404 27.8438C306.078 23.9946 305.888 21.8755 304.941 21.5784C304.03 21.2928 302.296 23.5343 301.263 26.8291C300.67 28.7206 300.151 31.4184 299.817 33.397C297.837 30.357 295.955 27.8537 294.152 25.6027Z" fill="url(#paint0_linear)" fill-opacity="0.4"/>
<path opacity="0.8" fill-rule="evenodd" clip-rule="evenodd" d="M9.01233 18.9114C7.94991 17.6583 6.40423 15.5646 5.30358 13.0334C3.76227 9.48868 3.93746 7.5372 4.80963 7.26364C5.64823 7.0006 7.24491 9.06481 8.1966 12.0989C8.75342 13.8741 9.23843 16.4204 9.54515 18.251C10.3736 17.231 11.1842 16.2628 11.9795 15.3129L11.9796 15.3127L11.98 15.3123L11.9802 15.3121L11.9804 15.3119L11.9807 15.3115L11.9813 15.3108C12.5837 14.5913 13.1773 13.8823 13.7631 13.1693C14.5375 11.5459 15.6679 9.62314 17.2126 7.93076C20.1686 4.69221 22.4544 4.24682 23.3201 5.29181C24.1524 6.29659 22.8807 9.09592 20.1141 11.3877C18.7523 12.5157 16.7501 13.766 15.0525 14.7496C14.5452 15.3639 14.0337 15.9749 13.5169 16.5922L13.5167 16.5925L13.5166 16.5925C12.465 17.8486 11.3919 19.1304 10.29 20.5172C12.0773 20.1012 14.4804 19.6002 16.2558 19.434C19.4218 19.1376 21.943 19.8113 22.0249 20.6864C22.1101 21.5965 20.3784 22.513 16.5134 22.4632C13.7544 22.4277 11.2264 21.8128 9.65979 21.318C8.22911 23.1551 6.74844 25.1904 5.20214 27.592C6.62895 27.2611 8.42338 26.8923 9.77619 26.7657C12.3857 26.5215 14.466 27.1005 14.5357 27.8449C14.6082 28.619 13.1827 29.3942 9.99603 29.3424C7.89675 29.3083 5.95853 28.8551 4.65584 28.4517C2.92848 31.2053 1.1186 34.4312 -0.794937 38.357C0.914447 37.7378 3.31841 36.9277 5.10007 36.5525C8.14761 35.9108 10.6789 36.2985 10.8591 37.1541C11.0464 38.0439 9.46613 39.1404 5.69856 39.5172C2.9724 39.7898 0.409028 39.4482 -1.16779 39.1281C-1.65989 40.154 -2.15884 41.2265 -2.66499 42.3494C-3.87105 45.0251 -4.87082 47.706 -5.69755 50.3386C-4.35952 49.3562 -2.55355 48.2162 -0.479986 47.3582C3.30929 45.7904 5.37603 46.0132 5.6497 46.9436C5.91283 47.8381 3.58352 49.2176 0.347029 50.1697C-1.54801 50.7271 -4.19896 51.3495 -6.11622 51.7172C-7.21318 55.4552 -7.96825 59.0753 -8.47869 62.4208C-6.18775 61.2448 -2.71272 59.7098 -0.155929 58.8004C3.99421 57.3242 7.59822 57.2334 8.12474 58.7136C8.67233 60.253 6.76061 62.3583 1.49883 63.4525C-2.42428 64.2683 -6.30576 63.9201 -8.63979 63.5247C-8.8539 65.0615 -9.01675 66.5344 -9.13832 67.9272C-9.44986 71.4963 -9.48963 74.5311 -9.42842 76.7578C-9.39781 77.8714 -9.34205 78.7794 -9.28302 79.4482C-9.22133 80.1471 -9.1612 80.521 -9.13761 80.6108L-11.0721 81.1186C-11.1445 80.8425 -11.2149 80.3078 -11.2753 79.624C-11.3383 78.9101 -11.3961 77.9614 -11.4277 76.8128C-11.4908 74.5151 -11.4494 71.4037 -11.1307 67.7533C-11.0474 66.7988 -10.9451 65.8068 -10.8206 64.7824C-12.9369 63.7095 -16.2344 61.697 -18.8864 58.739C-22.4741 54.7375 -22.7647 51.9086 -21.4108 50.9939C-20.1091 50.1144 -17.2611 52.3249 -14.7951 55.9747C-13.426 58.001 -11.7578 60.8786 -10.6019 63.1148C-9.97093 58.6361 -8.91287 53.623 -7.18947 48.4534C-8.3414 47.1372 -9.91022 45.0744 -11.077 42.5926C-12.8218 38.8815 -12.6967 36.8065 -11.7803 36.4893C-10.8992 36.1843 -9.41136 38.4459 -8.30775 41.6339C-7.76685 43.1964 -7.15549 45.2858 -6.70218 47.0383C-6.05268 45.211 -5.31818 43.3686 -4.48831 41.5275C-3.61658 39.5936 -2.7649 37.8054 -1.93192 36.1447C-3.1842 34.924 -4.90446 32.9995 -6.26055 30.6287C-8.29667 27.0691 -8.33799 24.9908 -7.4499 24.6012C-6.59599 24.2267 -4.67302 26.2186 -3.31786 29.3081C-2.60834 30.9256 -1.88792 33.2011 -1.36052 35.0196C0.257867 31.8727 1.80535 29.2011 3.29202 26.8669C2.2311 25.6088 0.710359 23.5359 -0.376459 21.0365C-1.91777 17.4918 -1.74258 15.5403 -0.870413 15.2668C-0.0318083 15.0037 1.56486 17.068 2.51656 20.102C3.05153 21.8076 3.52022 24.225 3.82819 26.0355C5.64023 23.2602 7.362 20.9711 9.01233 18.9114Z" fill="url(#paint1_linear)" fill-opacity="0.7"/>
<path fill-rule="evenodd" clip-rule="evenodd" d="M47.5419 33.3969C47.5262 32.0116 47.6458 29.9101 48.2479 27.7633C49.125 24.6367 50.2746 23.4586 50.9879 23.7432C51.6737 24.0169 51.6183 26.2086 50.6281 28.6899C50.0747 30.0766 49.1052 31.887 48.347 33.2274C49.3796 33.014 50.3769 32.8221 51.3557 32.6337L51.3557 32.6337L51.3565 32.6336L51.3567 32.6335L51.3568 32.6335L51.3568 32.6335C52.2301 32.4655 53.0887 32.3002 53.9446 32.1251L53.9625 32.2123C55.285 31.6095 56.9343 31.0232 58.7122 30.7593C62.356 30.2185 64.0812 31.1413 64.0905 32.2813C64.0994 33.3774 61.7857 34.5259 58.7676 34.5505C57.4186 34.5615 55.6721 34.3579 54.1437 34.1256C53.3451 34.2876 52.547 34.4412 51.7392 34.5967C50.4494 34.8449 49.135 35.0979 47.7551 35.3971C49.1075 36.0646 50.8083 36.9556 51.9849 37.7439C54.2042 39.2309 55.4889 41.0076 55.0779 41.621C54.6505 42.259 53.0362 41.9371 50.5452 39.8537C48.8388 38.4265 47.5541 36.7647 46.7834 35.6134C44.9072 36.0424 42.8987 36.5699 40.662 37.2933C41.7268 37.8205 42.9838 38.4845 43.874 39.081C45.7033 40.3067 46.751 41.7877 46.4014 42.3095C46.0378 42.8522 44.698 42.6007 42.6499 40.876C41.3644 39.7934 40.376 38.5406 39.7368 37.5995C37.1835 38.4635 34.3331 39.5851 31.0545 41.0974C32.4746 41.5985 34.3424 42.3076 35.6352 42.9742C37.9607 44.1733 39.4036 45.7691 39.067 46.422C38.7168 47.101 37.1057 46.9766 34.4518 45.2227C32.6078 44.0041 31.1622 42.4963 30.2912 41.4529C29.4158 41.8645 28.5105 42.3035 27.5728 42.7724C25.4418 43.8379 23.4338 45.0093 21.555 46.2389C22.9045 46.3225 24.5749 46.5439 26.2668 47.0512C29.5668 48.0408 30.7947 49.2826 30.4793 50.0338C30.176 50.7561 27.9268 50.4186 25.3136 49.3213C23.8387 48.7019 21.8742 47.7492 20.4412 46.9846C17.7586 48.8215 15.3572 50.7633 13.2565 52.659C15.3635 53.1178 18.3223 53.9344 20.4059 54.6759C23.8924 55.9166 26.2879 57.7699 25.8454 59.0134C25.3852 60.3067 23.0229 60.6635 19.0151 58.584C16.1058 57.0745 13.8076 54.8673 12.479 53.3711C11.5274 54.2554 10.6427 55.1254 9.8271 55.9654C7.73485 58.12 6.10251 60.0709 4.96424 61.5493C4.39499 62.2886 3.95139 62.907 3.637 63.3709C3.47962 63.6031 3.35685 63.7933 3.26794 63.9383C3.22348 64.0108 3.18927 64.0691 3.16431 64.1137C3.1519 64.1358 3.14268 64.153 3.13615 64.1655L3.1314 64.1748L3.12794 64.1818L1.30747 63.3536C1.41313 63.1214 1.65852 62.7253 1.98138 62.2489C2.3212 61.7474 2.78889 61.0962 3.37956 60.3291C4.56112 58.7945 6.24315 56.7853 8.39226 54.5721C8.96688 53.9803 9.57531 53.3736 10.2169 52.7571C9.41671 50.9196 8.39217 47.9372 8.23887 44.6967C8.0255 40.1867 9.33728 38.1899 10.7045 38.3125C12.0191 38.4304 12.7011 41.3814 12.3705 45.0673C12.1948 47.0261 11.7838 49.6384 11.3685 51.6738C14.1484 49.1142 17.4766 46.4426 21.3098 44.0185C21.2706 42.5556 21.3595 40.4672 21.8935 38.324C22.7263 34.981 23.9089 33.6959 24.6741 33.9755C25.4099 34.2444 25.1788 36.507 24.2059 39.1691C23.7584 40.3936 23.1051 41.9533 22.5018 43.2829C23.837 42.479 25.2297 41.7079 26.6784 40.9836C28.2919 40.1768 29.813 39.4561 31.2527 38.8101C31.0966 37.3551 31.0182 35.2664 31.3789 33.0874C31.9416 29.6884 33.0175 28.3128 33.8027 28.5304C34.5576 28.7395 34.7531 31.0573 33.9964 33.7887C33.6192 35.15 32.9321 36.9049 32.3309 38.3336C35.0169 37.1646 37.4128 36.26 39.595 35.5384C39.5832 34.1529 39.7077 32.0794 40.3016 29.962C41.1787 26.8354 42.3283 25.6573 43.0415 25.9419C43.7273 26.2156 43.6719 28.4073 42.6818 30.8885C42.153 32.2137 41.2442 33.9257 40.5029 35.2447C43.1071 34.421 45.4063 33.8551 47.5419 33.3969Z" fill="url(#paint2_linear)" fill-opacity="0.4"/>
<defs>
<linearGradient id="paint0_linear" x1="324.49" y1="83.1367" x2="287.074" y2="13.5943" gradientUnits="userSpaceOnUse">
<stop offset="0.197917" stop-color="#11004E" stop-opacity="0"/>
<stop offset="1" stop-color="#917EDE"/>
</linearGradient>
<linearGradient id="paint1_linear" x1="-18.9433" y1="71.9982" x2="15.51" y2="7.88498" gradientUnits="userSpaceOnUse">
<stop offset="0.197917" stop-color="#11004E" stop-opacity="0"/>
<stop offset="1" stop-color="#917EDE"/>
</linearGradient>
<linearGradient id="paint2_linear" x1="0.999651" y1="53.28" x2="57.5502" y2="29.6866" gradientUnits="userSpaceOnUse">
<stop offset="0.197917" stop-color="#11004E" stop-opacity="0"/>
<stop offset="1" stop-color="#917EDE"/>
</linearGradient>
</defs>
</svg>
