<svg width="1492" height="815" viewBox="0 0 1492 815" fill="none" xmlns="http://www.w3.org/2000/svg">
<g filter="url(#filter0_i)">
<path d="M722.222 0C652.162 -8.58481e-06 556.279 32.5043 474.429 88.1463C392.578 143.788 242.519 213.72 180.879 373.884C119.239 534.048 0 679.055 0 679.055C246.056 679.055 360.243 814.461 474.429 814.461C588.615 814.461 603.751 703.342 799.809 646.213C941.279 604.991 1050.56 568.892 1196.93 427.575C1233.99 391.805 1279.96 219.235 1318.7 182.871C1405.86 101.055 1492 88.1463 1492 88.1463C1404.09 35.0831 1309.32 6.94225 1250.59 27.1258C1178.03 52.0641 1136.74 88.1463 997.867 88.1463C891.943 88.1463 813.635 1.12013e-05 722.222 0Z" fill="url(#paint0_linear)"/>
</g>
<mask id="mask0" mask-type="alpha" maskUnits="userSpaceOnUse" x="0" y="0" width="1492" height="815">
<path d="M722.222 0C652.162 -8.58481e-06 556.279 32.5043 474.429 88.1463C392.578 143.788 242.519 213.72 180.879 373.884C119.239 534.048 0 679.055 0 679.055C246.056 679.055 360.243 814.461 474.429 814.461C588.615 814.461 603.751 703.342 799.809 646.213C941.279 604.991 1050.56 568.892 1196.93 427.575C1233.99 391.805 1279.96 219.235 1318.7 182.871C1405.86 101.055 1492 88.1463 1492 88.1463C1404.09 35.0831 1309.32 6.94225 1250.59 27.1258C1178.03 52.0641 1136.74 88.1463 997.867 88.1463C891.943 88.1463 813.635 1.12013e-05 722.222 0Z" fill="url(#paint1_linear)"/>
</mask>
<g mask="url(#mask0)">
<g filter="url(#filter1_dd)">
<path d="M426.43 653.792C264.426 667.061 420.294 833.679 414.613 852.36C478.104 874.679 793.283 769.913 797.531 768.599C801.779 767.286 1044.19 655.11 1108.01 625.498L1144.89 555.268C1101.44 544.153 1050.22 507.363 1016.56 503.733C943.3 495.832 906.417 555.268 849.324 555.268C799.138 555.269 767.699 486.542 662.382 530.006C598.72 556.279 524.154 645.788 426.43 653.792Z" fill="url(#paint2_linear)"/>
</g>
<g filter="url(#filter2_dd)">
<path d="M118.228 650.181C-40.4198 665.918 30.773 774.281 20.2229 789.36C70.5943 827.916 383.642 826.146 387.833 826.21C392.023 826.274 642.026 796.597 707.873 788.714L761.448 736.561C725.761 713.902 690.609 665.964 661.511 652.875C598.171 624.385 547.75 666.866 496.589 650.181C451.618 635.515 443.53 564.741 336.454 572.91C271.729 577.848 210.194 641.059 118.228 650.181Z" fill="url(#paint3_linear)"/>
</g>
<path d="M782.831 459.213C834.363 389.763 832.733 343.2 814.661 308.649C796.589 274.097 821.068 235.759 774.241 200.525C727.415 165.292 558.468 254.804 532.732 308.649C506.996 362.493 530.748 395.31 439.261 465.781C380.486 511.055 514.047 543.53 516.266 578.313C518.551 614.12 525.423 655.88 598.32 655.288C671.218 654.696 726.46 644.192 735.842 606.745C751.505 544.233 731.298 528.662 782.831 459.213Z" fill="url(#paint4_linear)"/>
<path d="M251.109 638.129C269.398 695.728 350.77 704.568 387.021 716.443C423.272 728.317 428.217 814.723 481.027 810.272C533.837 805.822 560.305 649.242 533.884 599.307C507.464 549.373 469.357 541.936 467.029 442.875C465.533 379.234 366.42 436.05 338.838 414.781C310.445 392.887 265.323 387.021 251.109 402.178C228.365 426.43 271.318 493.624 271.318 527.985C271.318 581.108 232.819 580.531 251.109 638.129Z" fill="url(#paint5_linear)"/>
<path d="M630.178 635.36C588.731 644.575 567.129 684.873 563.344 687.782C581.067 690.786 627.336 691.199 670.63 668.822C724.747 640.851 718.75 583.564 725.952 550.795C733.154 518.026 766.894 488.207 737.078 512.535C707.261 536.864 706.797 579.31 695.372 603.828C683.948 628.347 671.625 626.145 630.178 635.36Z" fill="url(#paint6_linear)"/>
<path d="M441.274 564.106C493.119 567.378 526.33 613.113 531.424 615.976C510.466 623.19 454.455 632.811 398.076 613.576C327.603 589.532 324.883 517.29 310.44 478.061C295.997 438.831 249.901 408.483 290.284 432.792C330.667 457.101 338.63 509.661 356.753 537.826C374.876 565.991 389.429 560.834 441.274 564.106Z" fill="url(#paint7_linear)"/>
<path d="M439.856 600.159C479.568 578.871 524.956 597.402 530.02 597.183C517.869 612.082 480.979 644.778 430.628 656.372C367.689 670.865 332.659 618.857 304.079 596.542C275.499 574.227 227.647 572.929 268.528 572.387C309.408 571.845 339.305 606.948 365.539 619.425C391.773 631.902 400.143 621.448 439.856 600.159Z" fill="url(#paint8_linear)"/>
<path d="M419.892 578.75C456.511 571.427 488.044 597.059 492.112 598.105C478.889 606.998 441.762 624.051 399.04 621.122C345.638 617.46 330.38 567.765 313.088 543.179C295.796 518.593 258.161 506.039 290.71 515.454C323.26 524.87 338.518 559.918 356.319 576.135C374.119 592.351 383.274 586.074 419.892 578.75Z" fill="url(#paint9_linear)"/>
<path d="M644.763 676.857C611.426 670.415 582.719 692.962 579.015 693.882C591.054 701.704 624.853 716.705 663.746 714.128C712.362 710.907 726.252 667.194 741.995 645.567C757.737 623.941 792 612.897 762.367 621.18C732.734 629.463 718.844 660.292 702.639 674.556C686.434 688.82 678.099 683.299 644.763 676.857Z" fill="url(#paint10_linear)"/>
<path fill-rule="evenodd" clip-rule="evenodd" d="M471.114 663.794C477.519 680.087 490.327 719.361 490.327 746.115C490.327 772.87 477.519 807.856 471.114 822.005C483.049 829.58 513.624 846.016 540.542 846.016H544.66H545.667H549.785C576.703 846.016 607.278 829.58 619.213 822.005C617.258 817.688 613.412 812.289 609.011 806.112C598.989 792.045 586.089 773.937 586.089 755.347C586.089 728.593 589.284 681.2 595.688 664.908L545.149 667.825L471.114 663.794Z" fill="url(#paint11_linear)"/>
<g filter="url(#filter3_d)">
<path fill-rule="evenodd" clip-rule="evenodd" d="M544.66 223.32C511.239 223.328 442.37 224.295 419.749 265.05C399.92 300.776 398.88 330.994 397.987 356.949C397.601 368.168 397.243 378.59 395.406 388.316C394.625 392.454 393.793 396.626 392.954 400.838C385.887 436.292 378.26 474.558 395.406 518.385C417.595 575.1 425.95 585.405 436.174 598.014C438.763 601.207 441.471 604.547 444.554 608.825C447.886 613.448 451.098 618.172 454.304 622.886C474.86 653.112 495.132 682.921 544.66 683.096V683.097C544.733 683.097 544.806 683.096 544.878 683.096C544.951 683.096 545.024 683.097 545.097 683.097V683.096C594.625 682.921 614.897 653.112 635.453 622.886C638.659 618.172 641.871 613.448 645.203 608.825C657.532 591.715 661.141 582.355 676.739 541.903C680.446 532.289 684.83 520.918 690.17 507.27C700.646 480.492 697.527 438.614 690.17 399.652C688.218 389.312 688.366 377.02 688.53 363.402C688.877 334.572 689.297 299.802 670.008 265.05C647.387 224.295 578.518 223.328 545.097 223.32C545.024 223.32 544.951 223.32 544.878 223.32C544.805 223.32 544.732 223.32 544.66 223.32Z" fill="url(#paint12_linear)"/>
</g>
<path d="M584.455 381.974C576.521 383.198 571.486 395.432 569.596 402.651C569.41 403.361 570.049 403.996 570.765 403.832L590.853 399.249C607.912 396.781 621.377 395.026 636.244 397.878C648.41 400.211 661.949 406.499 670.084 410.911C671.053 411.436 672.117 410.225 671.438 409.356C665.187 401.353 655.666 389.852 651.171 386.909C644.469 382.522 595.118 380.329 584.455 381.974Z" fill="url(#paint13_linear)"/>
<path d="M555.614 577.134L538.332 580.772C537.569 580.933 536.968 581.523 536.795 582.284L533.034 598.75C532.767 599.918 533.57 601.105 534.745 601.34C538.677 602.126 546.236 603.772 550.721 603.772C560.096 603.772 570.681 603.433 580.08 600.946C589.789 598.376 601.507 596.127 599.833 593.879C598.159 591.63 591.128 592.273 582.423 589.06C575.686 586.574 563.156 580.311 556.89 577.288C556.494 577.097 556.045 577.043 555.614 577.134Z" fill="url(#paint14_linear)"/>
<path d="M582.402 436.872C575.717 436.139 571.542 438.427 569.508 440.724C568.572 441.782 569.598 443.016 571.007 442.917C583.261 442.062 589.225 449.545 604.389 452.217C617.047 454.449 627.949 454.004 640.033 450.799C654.61 446.933 666.352 434.565 662.395 436.658C662.147 436.789 661.879 436.887 661.602 436.933C655.488 437.951 643.827 445.044 620.712 445.044C601.912 445.044 594.062 438.151 582.402 436.872Z" fill="url(#paint15_linear)"/>
<g filter="url(#filter4_d)">
<path d="M571.111 539.676C599.64 513.065 565.492 489.275 560.996 461.817C552.477 409.792 571.006 368.45 516.625 379.131C489.842 384.391 447.716 447.003 453.739 493.358C460.266 543.596 457.367 635.174 495.224 646.191C542.878 660.06 535.451 572.939 571.111 539.676Z" fill="url(#paint16_linear)"/>
</g>
<g filter="url(#filter5_d)">
<path d="M70.2296 676.074C12.6312 661.866 -9.25342 686.62 -20.21 707.711C33.8985 760.001 219.587 861.945 224.037 861.945C228.487 861.945 369.169 837.338 438.953 825.035L639.645 800.819C590.594 765.886 506.151 657.38 438.953 665.403C402.298 669.779 371.863 712.259 326.896 707.711C252.766 700.215 237.972 666.919 189.468 650.246C148.546 636.179 110.985 686.128 70.2296 676.074Z" fill="url(#paint17_linear)"/>
</g>
<g filter="url(#filter6_d)">
<path d="M204.626 674.002C171.077 674.406 126.649 703.812 115.702 719.98C169.764 760.063 355.291 838.208 359.737 838.208C364.183 838.208 504.744 819.346 574.468 809.915L699.265 724.527C650.255 697.749 612.867 753.327 556.784 753.327C519.901 753.327 510.807 713.412 449.672 695.728C401.463 681.784 353.169 720.485 313.76 706.843C274.35 693.202 246.561 673.497 204.626 674.002Z" fill="url(#paint18_linear)"/>
</g>
</g>
<g filter="url(#filter7_d)">
<path d="M593.054 159.552C538.487 137.321 492.541 173.599 472.805 191.383C453.069 209.167 415.448 181.885 400.137 218.759C384.826 255.634 493.582 300.935 533.477 308.789C573.373 316.642 603.363 309.401 665.378 357.825C705.219 388.935 707.508 338.805 730.085 331.443C753.326 323.865 779.718 312.25 766.968 264.245C754.218 216.241 695.393 250.531 676.925 231.803C658.458 213.074 647.621 181.783 593.054 159.552Z" fill="url(#paint19_linear)"/>
</g>
<path d="M526.337 584.728C557.128 613.11 541.779 647.262 533.534 662.343C525.289 677.424 555.49 694.763 531.773 710.765C508.055 726.767 445.941 670.385 429.733 648.067C413.525 625.75 411.207 606.523 358.831 578.585C325.183 560.636 362.215 549.924 361.904 535.094C361.584 519.827 363.478 501.929 402.803 500.578C442.128 499.228 431.599 540.687 450.429 548.204C469.26 555.72 495.546 556.345 526.337 584.728Z" fill="url(#paint20_linear)"/>
<g filter="url(#filter8_d)">
<path d="M413.294 314.2C451.607 288.267 504.247 281.336 509.291 258.182C518.848 214.313 489.262 207.596 431.483 214.731C401.724 218.405 377.348 165.978 336.496 201.656C314.923 220.496 287.314 273.405 296.581 308.202C305.848 342.999 365.403 346.617 413.294 314.2Z" fill="url(#paint21_linear)"/>
</g>
<g filter="url(#filter9_d)">
<path d="M693.919 401.291C705.474 421.793 706.799 448.769 718.328 452.289C740.171 458.958 744.807 444.238 743.592 414.648C742.966 399.408 770.559 389.23 754.17 367.035C745.515 355.315 719.839 339.118 701.812 342.369C683.786 345.621 679.475 375.663 693.919 401.291Z" fill="url(#paint22_linear)"/>
</g>
<g filter="url(#filter10_d)">
<path d="M456.691 264.431C406.885 283.804 367.04 391.735 363.167 405.019C363.167 448.192 390.283 454.834 376.448 493.025C362.613 531.216 298.419 589.886 340.477 636.38C382.536 682.873 425.701 628.631 444.516 612.58C463.332 596.528 519.225 576.602 537.487 549.481C555.749 522.36 521.439 493.025 531.953 442.103C542.468 391.182 584.526 423.838 598.915 331.404C613.303 238.971 506.497 245.059 456.691 264.431Z" fill="url(#paint23_linear)"/>
</g>
<g filter="url(#filter11_dd)">
<path d="M535.711 350.93C551.118 376.829 566.24 348.935 583.564 351.909C616.39 357.543 644.164 363.33 649.218 332.696C655.033 297.445 603.41 303.509 599.271 268.173C594.849 230.418 547.405 249.38 519.306 256.552C491.207 263.724 516.453 318.556 535.711 350.93Z" fill="url(#paint24_linear)"/>
</g>
<path fill-rule="evenodd" clip-rule="evenodd" d="M487.254 410.927C483.653 417.595 478.928 420.328 471.771 419.098C453.901 416.026 445.814 376.312 453.707 330.394C461.6 284.476 482.485 249.742 500.355 252.814C512.008 254.817 511.774 277.968 508.012 306.567C512.57 298.753 517.254 294.491 521.403 295.204L521.643 295.245C530.491 296.764 538.462 298.133 536.532 322.304C538.794 320.713 541.05 320.024 543.211 320.395L543.447 320.436C553.687 322.194 562.734 323.748 557.702 353.024C552.631 382.526 535.182 429.007 524.846 427.23C519.716 426.348 516.08 419.656 514.34 409.53C508.094 425.332 501.795 436.27 497.287 435.496C491.825 434.557 488.369 425.178 487.254 410.927Z" fill="url(#paint25_linear)"/>
<path d="M496.705 371.853C514.384 383.639 516.758 406.639 517.974 408.697C509.076 406.955 487.277 398.878 471.267 380.511C451.255 357.552 465.11 331.419 468.045 314.57C470.98 297.72 460.888 277.527 470.196 294.411C479.504 311.296 471.541 331.536 472.179 345.222C472.816 358.909 479.025 360.066 496.705 371.853Z" fill="url(#paint26_linear)"/>
<path d="M511.024 646.585C500.035 632.159 480.316 631.373 478.498 630.448C480.46 637.934 488.511 656.068 505.016 668.718C525.648 684.531 547.163 671.325 561.358 667.919C575.552 664.514 593.295 672.025 578.413 665.004C563.531 657.983 546.718 665.853 535.026 666.045C523.334 666.238 522.014 661.011 511.024 646.585Z" fill="url(#paint27_linear)"/>
<path d="M480.637 367.845C500.511 381.015 503.246 406.814 504.617 409.119C494.628 407.192 470.143 398.198 452.122 377.64C429.596 351.941 445.06 322.576 448.3 303.661C451.54 284.746 440.155 262.12 450.651 281.036C461.147 299.952 452.276 322.687 453.035 338.041C453.793 353.396 460.763 354.676 480.637 367.845Z" fill="url(#paint28_linear)"/>
<path d="M519.671 633.015C502.095 622.76 481.309 630.39 479.027 630.209C484.268 637.132 500.384 652.491 522.919 658.542C551.088 666.105 567.746 643.195 581.008 633.584C594.271 623.974 615.889 624.164 597.447 623.257C579.006 622.349 564.941 637.711 552.897 642.918C540.854 648.125 537.247 643.27 519.671 633.015Z" fill="url(#paint29_linear)"/>
<path d="M504.849 390.515C519.659 405.751 517.151 428.737 517.908 431.004C509.574 427.432 489.957 414.959 478.16 393.639C463.414 366.99 482.448 344.349 488.855 328.491C495.262 312.634 489.636 290.772 495.191 309.234C500.746 327.697 488.711 345.814 486.461 359.329C484.21 372.844 490.038 375.279 504.849 390.515Z" fill="url(#paint30_linear)"/>
<path d="M445.078 563.414C427.633 568.369 419.692 586.435 418.166 587.79C425.851 588.7 445.674 587.836 463.482 577.098C485.743 563.676 481.317 538.822 483.337 524.365C485.357 509.908 498.834 496.139 486.859 507.425C474.883 518.71 476.062 537.236 471.966 548.189C467.871 559.142 462.523 558.46 445.078 563.414Z" fill="url(#paint31_linear)"/>
<g filter="url(#filter12_d)">
<path d="M503.425 459.853C530.044 440.792 552.297 421.944 551.524 398.607C550.06 354.389 534.765 356.472 488.353 359.48C465.495 360.962 431.628 335.415 404.984 364.207C390.914 379.412 403.398 415.299 418.735 454.022C434.073 492.746 470.151 483.679 503.425 459.853Z" fill="url(#paint32_linear)"/>
</g>
<g filter="url(#filter13_d)">
<path d="M343.657 447.19C329.46 437.023 343.245 424.494 343.657 412.048C344.438 388.464 333.83 371.182 358.583 372.787C370.775 373.577 393.084 398.939 393.084 419.862C393.084 442.537 399.652 483.018 383.484 490.091C363.132 498.995 361.404 459.898 343.657 447.19Z" fill="url(#paint33_linear)"/>
</g>
<g filter="url(#filter14_d)">
<path d="M627.981 695.508C632.899 705.153 626.977 724.998 609.218 734.055C591.459 743.111 568.588 737.95 563.669 728.304C558.751 718.659 569.16 703.499 586.919 694.442C604.678 685.386 623.062 685.863 627.981 695.508Z" fill="url(#paint34_linear)"/>
</g>
<g filter="url(#filter15_d)">
<path d="M673.32 665.968C676.465 672.135 672.678 684.823 661.324 690.613C649.97 696.403 635.347 693.103 632.203 686.937C629.058 680.77 635.713 671.077 647.067 665.287C658.422 659.497 670.175 659.802 673.32 665.968Z" fill="url(#paint35_linear)"/>
</g>
<path d="M397.673 650.845C363.661 635.655 395.731 613.078 389.589 592.236C377.951 552.747 366.853 519.48 403.736 508.87C446.177 496.661 446.157 560.911 490.134 560.911C537.122 560.911 520.665 621.885 515.901 657.413C511.137 692.942 440.189 669.833 397.673 650.845Z" fill="url(#paint36_linear)"/>
<g opacity="0.6" filter="url(#filter16_d)">
<path d="M666.374 595.997C669.895 602.095 682.817 605.889 694.045 599.407C705.272 592.925 710.552 578.621 707.032 572.524C703.511 566.426 691.556 566.738 680.329 573.22C669.102 579.702 662.854 589.9 666.374 595.997Z" fill="url(#paint37_linear)"/>
</g>
<g opacity="0.4" filter="url(#filter17_d)">
<path d="M846.593 339.913C838.652 333.388 836.273 313.874 848.286 299.254C860.3 284.634 882.158 280.444 890.098 286.968C898.039 293.493 894.736 310.634 882.723 325.255C870.709 339.875 854.533 346.437 846.593 339.913Z" fill="url(#paint38_linear)"/>
</g>
<g filter="url(#filter18_d)">
<path d="M358.027 598.372C361.548 604.469 390.951 620.865 402.178 614.383C413.405 607.901 418.851 580.531 404.199 566.384C389.547 552.237 388.143 571.017 376.916 577.499C365.688 583.981 354.507 592.274 358.027 598.372Z" fill="url(#paint39_linear)"/>
</g>
<g filter="url(#filter19_d)">
<path d="M336.164 649.888C339.191 661.893 363.311 655.33 388.031 664.402C419.862 681.075 453.636 683.913 435.646 652.945C417.656 621.977 400.245 618.079 378.14 623.652C356.035 629.225 333.138 637.883 336.164 649.888Z" fill="url(#paint40_linear)"/>
</g>
<g opacity="0.5" filter="url(#filter20_d)">
<path d="M655.094 266.305C655.335 273.145 664.697 282.296 677.291 281.852C689.885 281.408 700.942 271.537 700.701 264.698C700.46 257.858 690.055 252.673 677.461 253.117C664.867 253.561 654.853 259.465 655.094 266.305Z" fill="url(#paint41_linear)"/>
</g>
<g opacity="0.5" filter="url(#filter21_d)">
<path d="M703.49 285.327C702.565 289.727 707.093 297.038 715.194 298.74C723.295 300.442 731.902 295.89 732.826 291.491C733.75 287.091 726.565 275.021 718.464 273.319C710.363 271.617 704.414 280.927 703.49 285.327Z" fill="url(#paint42_linear)"/>
</g>
<g opacity="0.5" filter="url(#filter22_d)">
<path d="M600.309 312.444C601.862 320.25 616.792 328.512 634.618 324.964C652.444 321.416 666.415 307.401 664.861 299.595C663.307 291.789 639.249 277.923 621.423 281.471C603.598 285.019 598.755 304.638 600.309 312.444Z" fill="url(#paint43_linear)"/>
</g>
<g filter="url(#filter23_d)">
<path d="M464.998 548.471C468.064 554.484 464.373 566.855 453.302 572.5C442.232 578.146 427.974 574.928 424.908 568.916C421.842 562.903 428.331 553.453 439.402 547.807C450.472 542.162 461.932 542.459 464.998 548.471Z" fill="url(#paint44_linear)"/>
</g>
<g opacity="0.6" filter="url(#filter24_d)">
<path d="M665.615 555.234C668.717 559.337 678.426 560.924 685.981 555.213C693.536 549.503 696.075 538.658 692.974 534.555C689.873 530.452 681.234 531.755 673.679 537.465C666.124 543.176 662.514 551.131 665.615 555.234Z" fill="url(#paint45_linear)"/>
</g>
<g opacity="0.4" filter="url(#filter25_d)">
<path d="M905.216 350.752C900.047 345.307 900.08 330.947 910.106 321.431C920.132 311.915 936.354 310.846 941.523 316.291C946.691 321.736 942.753 333.865 932.727 343.381C922.701 352.897 910.384 356.197 905.216 350.752Z" fill="url(#paint46_linear)"/>
</g>
<g opacity="0.6" filter="url(#filter26_d)">
<path d="M711.64 531.982C713.373 534.982 719.731 536.849 725.255 533.66C730.779 530.47 733.377 523.432 731.645 520.432C729.913 517.432 724.03 517.585 718.506 520.775C712.982 523.964 709.908 528.982 711.64 531.982Z" fill="url(#paint47_linear)"/>
</g>
<g opacity="0.4" filter="url(#filter27_d)">
<path d="M949.724 289.778C945.817 286.568 944.647 276.966 950.558 269.773C956.469 262.579 967.224 260.518 971.13 263.728C975.037 266.938 973.412 275.372 967.501 282.566C961.59 289.759 953.631 292.988 949.724 289.778Z" fill="url(#paint48_linear)"/>
</g>
<defs>
<filter id="filter0_i" x="0" y="0" width="1494" height="820.461" filterUnits="userSpaceOnUse" color-interpolation-filters="sRGB">
<feFlood flood-opacity="0" result="BackgroundImageFix"/>
<feBlend mode="normal" in="SourceGraphic" in2="BackgroundImageFix" result="shape"/>
<feColorMatrix in="SourceAlpha" type="matrix" values="0 0 0 0 0 0 0 0 0 0 0 0 0 0 0 0 0 0 127 0" result="hardAlpha"/>
<feOffset dx="2" dy="6"/>
<feGaussianBlur stdDeviation="12"/>
<feComposite in2="hardAlpha" operator="arithmetic" k2="-1" k3="1"/>
<feColorMatrix type="matrix" values="0 0 0 0 0 0 0 0 0 0 0 0 0 0 0 0 0 0 0.7 0"/>
<feBlend mode="normal" in2="shape" result="effect1_innerShadow"/>
</filter>
<filter id="filter1_dd" x="292.949" y="367.064" width="913.975" height="559.57" filterUnits="userSpaceOnUse" color-interpolation-filters="sRGB">
<feFlood flood-opacity="0" result="BackgroundImageFix"/>
<feColorMatrix in="SourceAlpha" type="matrix" values="0 0 0 0 0 0 0 0 0 0 0 0 0 0 0 0 0 0 127 0"/>
<feOffset dy="4"/>
<feGaussianBlur stdDeviation="16"/>
<feColorMatrix type="matrix" values="0 0 0 0 0 0 0 0 0 0 0 0 0 0 0 0 0 0 0.15 0"/>
<feBlend mode="normal" in2="BackgroundImageFix" result="effect1_dropShadow"/>
<feColorMatrix in="SourceAlpha" type="matrix" values="0 0 0 0 0 0 0 0 0 0 0 0 0 0 0 0 0 0 127 0"/>
<feOffset dy="4"/>
<feGaussianBlur stdDeviation="16"/>
<feColorMatrix type="matrix" values="0 0 0 0 0 0 0 0 0 0 0 0 0 0 0 0 0 0 0.15 0"/>
<feBlend mode="normal" in2="effect1_dropShadow" result="effect2_dropShadow"/>
<feBlend mode="normal" in="SourceGraphic" in2="effect2_dropShadow" result="shape"/>
</filter>
<filter id="filter2_dd" x="-20.2119" y="539.07" width="816.079" height="329.272" filterUnits="userSpaceOnUse" color-interpolation-filters="sRGB">
<feFlood flood-opacity="0" result="BackgroundImageFix"/>
<feColorMatrix in="SourceAlpha" type="matrix" values="0 0 0 0 0 0 0 0 0 0 0 0 0 0 0 0 0 0 127 0"/>
<feOffset dy="4"/>
<feGaussianBlur stdDeviation="16"/>
<feColorMatrix type="matrix" values="0 0 0 0 0 0 0 0 0 0 0 0 0 0 0 0 0 0 0.15 0"/>
<feBlend mode="normal" in2="BackgroundImageFix" result="effect1_dropShadow"/>
<feColorMatrix in="SourceAlpha" type="matrix" values="0 0 0 0 0 0 0 0 0 0 0 0 0 0 0 0 0 0 127 0"/>
<feOffset dy="4"/>
<feGaussianBlur stdDeviation="16"/>
<feColorMatrix type="matrix" values="0 0 0 0 0 0 0 0 0 0 0 0 0 0 0 0 0 0 0.15 0"/>
<feBlend mode="normal" in2="effect1_dropShadow" result="effect2_dropShadow"/>
<feBlend mode="normal" in="SourceGraphic" in2="effect2_dropShadow" result="shape"/>
</filter>
<filter id="filter3_d" x="369" y="209.32" width="343.908" height="491.776" filterUnits="userSpaceOnUse" color-interpolation-filters="sRGB">
<feFlood flood-opacity="0" result="BackgroundImageFix"/>
<feColorMatrix in="SourceAlpha" type="matrix" values="0 0 0 0 0 0 0 0 0 0 0 0 0 0 0 0 0 0 127 0"/>
<feOffset dy="2"/>
<feGaussianBlur stdDeviation="8"/>
<feColorMatrix type="matrix" values="0 0 0 0 0 0 0 0 0 0 0 0 0 0 0 0 0 0 0.35 0"/>
<feBlend mode="normal" in2="BackgroundImageFix" result="effect1_dropShadow"/>
<feBlend mode="normal" in="SourceGraphic" in2="effect1_dropShadow" result="shape"/>
</filter>
<filter id="filter4_d" x="350.811" y="347.758" width="329.774" height="329.207" filterUnits="userSpaceOnUse" color-interpolation-filters="sRGB">
<feFlood flood-opacity="0" result="BackgroundImageFix"/>
<feColorMatrix in="SourceAlpha" type="matrix" values="0 0 0 0 0 0 0 0 0 0 0 0 0 0 0 0 0 0 127 0"/>
<feOffset dy="2"/>
<feGaussianBlur stdDeviation="8"/>
<feColorMatrix type="matrix" values="0 0 0 0 0 0 0 0 0 0 0 0 0 0 0 0 0 0 0.35 0"/>
<feBlend mode="normal" in2="BackgroundImageFix" result="effect1_dropShadow"/>
<feBlend mode="normal" in="SourceGraphic" in2="effect1_dropShadow" result="shape"/>
</filter>
<filter id="filter5_d" x="-36.21" y="633.729" width="691.855" height="246.216" filterUnits="userSpaceOnUse" color-interpolation-filters="sRGB">
<feFlood flood-opacity="0" result="BackgroundImageFix"/>
<feColorMatrix in="SourceAlpha" type="matrix" values="0 0 0 0 0 0 0 0 0 0 0 0 0 0 0 0 0 0 127 0"/>
<feOffset dy="2"/>
<feGaussianBlur stdDeviation="8"/>
<feColorMatrix type="matrix" values="0 0 0 0 0 0 0 0 0 0 0 0 0 0 0 0 0 0 0.35 0"/>
<feBlend mode="normal" in2="BackgroundImageFix" result="effect1_dropShadow"/>
<feBlend mode="normal" in="SourceGraphic" in2="effect1_dropShadow" result="shape"/>
</filter>
<filter id="filter6_d" x="99.702" y="659.993" width="615.562" height="196.216" filterUnits="userSpaceOnUse" color-interpolation-filters="sRGB">
<feFlood flood-opacity="0" result="BackgroundImageFix"/>
<feColorMatrix in="SourceAlpha" type="matrix" values="0 0 0 0 0 0 0 0 0 0 0 0 0 0 0 0 0 0 127 0"/>
<feOffset dy="2"/>
<feGaussianBlur stdDeviation="8"/>
<feColorMatrix type="matrix" values="0 0 0 0 0 0 0 0 0 0 0 0 0 0 0 0 0 0 0.35 0"/>
<feBlend mode="normal" in2="BackgroundImageFix" result="effect1_dropShadow"/>
<feBlend mode="normal" in="SourceGraphic" in2="effect1_dropShadow" result="shape"/>
</filter>
<filter id="filter7_d" x="375.063" y="75.1385" width="433.474" height="392.319" filterUnits="userSpaceOnUse" color-interpolation-filters="sRGB">
<feFlood flood-opacity="0" result="BackgroundImageFix"/>
<feColorMatrix in="SourceAlpha" type="matrix" values="0 0 0 0 0 0 0 0 0 0 0 0 0 0 0 0 0 0 127 0"/>
<feOffset dy="2"/>
<feGaussianBlur stdDeviation="8"/>
<feColorMatrix type="matrix" values="0 0 0 0 0 0 0 0 0 0 0 0 0 0 0 0 0 0 0.35 0"/>
<feBlend mode="normal" in2="BackgroundImageFix" result="effect1_dropShadow"/>
<feBlend mode="normal" in="SourceGraphic" in2="effect1_dropShadow" result="shape"/>
</filter>
<filter id="filter8_d" x="242.238" y="117.508" width="298.802" height="274.293" filterUnits="userSpaceOnUse" color-interpolation-filters="sRGB">
<feFlood flood-opacity="0" result="BackgroundImageFix"/>
<feColorMatrix in="SourceAlpha" type="matrix" values="0 0 0 0 0 0 0 0 0 0 0 0 0 0 0 0 0 0 127 0"/>
<feOffset dy="2"/>
<feGaussianBlur stdDeviation="8"/>
<feColorMatrix type="matrix" values="0 0 0 0 0 0 0 0 0 0 0 0 0 0 0 0 0 0 0.35 0"/>
<feBlend mode="normal" in2="BackgroundImageFix" result="effect1_dropShadow"/>
<feBlend mode="normal" in="SourceGraphic" in2="effect1_dropShadow" result="shape"/>
</filter>
<filter id="filter9_d" x="650.929" y="311.38" width="150.186" height="166.982" filterUnits="userSpaceOnUse" color-interpolation-filters="sRGB">
<feFlood flood-opacity="0" result="BackgroundImageFix"/>
<feColorMatrix in="SourceAlpha" type="matrix" values="0 0 0 0 0 0 0 0 0 0 0 0 0 0 0 0 0 0 127 0"/>
<feOffset dy="2"/>
<feGaussianBlur stdDeviation="8"/>
<feColorMatrix type="matrix" values="0 0 0 0 0 0 0 0 0 0 0 0 0 0 0 0 0 0 0.35 0"/>
<feBlend mode="normal" in2="BackgroundImageFix" result="effect1_dropShadow"/>
<feBlend mode="normal" in="SourceGraphic" in2="effect1_dropShadow" result="shape"/>
</filter>
<filter id="filter10_d" x="310.391" y="238.625" width="305.845" height="434.178" filterUnits="userSpaceOnUse" color-interpolation-filters="sRGB">
<feFlood flood-opacity="0" result="BackgroundImageFix"/>
<feColorMatrix in="SourceAlpha" type="matrix" values="0 0 0 0 0 0 0 0 0 0 0 0 0 0 0 0 0 0 127 0"/>
<feOffset dy="2"/>
<feGaussianBlur stdDeviation="8"/>
<feColorMatrix type="matrix" values="0 0 0 0 0 0 0 0 0 0 0 0 0 0 0 0 0 0 0.35 0"/>
<feBlend mode="normal" in2="BackgroundImageFix" result="effect1_dropShadow"/>
<feBlend mode="normal" in="SourceGraphic" in2="effect1_dropShadow" result="shape"/>
</filter>
<filter id="filter11_dd" x="460.407" y="188.363" width="231.402" height="242.077" filterUnits="userSpaceOnUse" color-interpolation-filters="sRGB">
<feFlood flood-opacity="0" result="BackgroundImageFix"/>
<feColorMatrix in="SourceAlpha" type="matrix" values="0 0 0 0 0 0 0 0 0 0 0 0 0 0 0 0 0 0 127 0"/>
<feOffset dy="4"/>
<feGaussianBlur stdDeviation="16"/>
<feColorMatrix type="matrix" values="0 0 0 0 0 0 0 0 0 0 0 0 0 0 0 0 0 0 0.15 0"/>
<feBlend mode="normal" in2="BackgroundImageFix" result="effect1_dropShadow"/>
<feColorMatrix in="SourceAlpha" type="matrix" values="0 0 0 0 0 0 0 0 0 0 0 0 0 0 0 0 0 0 127 0"/>
<feOffset dy="4"/>
<feGaussianBlur stdDeviation="16"/>
<feColorMatrix type="matrix" values="0 0 0 0 0 0 0 0 0 0 0 0 0 0 0 0 0 0 0.15 0"/>
<feBlend mode="normal" in2="effect1_dropShadow" result="effect2_dropShadow"/>
<feBlend mode="normal" in="SourceGraphic" in2="effect2_dropShadow" result="shape"/>
</filter>
<filter id="filter12_d" x="356.874" y="287.128" width="233.734" height="227.912" filterUnits="userSpaceOnUse" color-interpolation-filters="sRGB">
<feFlood flood-opacity="0" result="BackgroundImageFix"/>
<feColorMatrix in="SourceAlpha" type="matrix" values="0 0 0 0 0 0 0 0 0 0 0 0 0 0 0 0 0 0 127 0"/>
<feOffset dy="2"/>
<feGaussianBlur stdDeviation="8"/>
<feColorMatrix type="matrix" values="0 0 0 0 0 0 0 0 0 0 0 0 0 0 0 0 0 0 0.35 0"/>
<feBlend mode="normal" in2="BackgroundImageFix" result="effect1_dropShadow"/>
<feBlend mode="normal" in="SourceGraphic" in2="effect1_dropShadow" result="shape"/>
</filter>
<filter id="filter13_d" x="285.255" y="351.963" width="162.616" height="162.038" filterUnits="userSpaceOnUse" color-interpolation-filters="sRGB">
<feFlood flood-opacity="0" result="BackgroundImageFix"/>
<feColorMatrix in="SourceAlpha" type="matrix" values="0 0 0 0 0 0 0 0 0 0 0 0 0 0 0 0 0 0 127 0"/>
<feOffset dy="2"/>
<feGaussianBlur stdDeviation="8"/>
<feColorMatrix type="matrix" values="0 0 0 0 0 0 0 0 0 0 0 0 0 0 0 0 0 0 0.35 0"/>
<feBlend mode="normal" in2="BackgroundImageFix" result="effect1_dropShadow"/>
<feBlend mode="normal" in="SourceGraphic" in2="effect1_dropShadow" result="shape"/>
</filter>
<filter id="filter14_d" x="538.763" y="664.044" width="116.945" height="105.258" filterUnits="userSpaceOnUse" color-interpolation-filters="sRGB">
<feFlood flood-opacity="0" result="BackgroundImageFix"/>
<feColorMatrix in="SourceAlpha" type="matrix" values="0 0 0 0 0 0 0 0 0 0 0 0 0 0 0 0 0 0 127 0"/>
<feOffset dy="2"/>
<feGaussianBlur stdDeviation="8"/>
<feColorMatrix type="matrix" values="0 0 0 0 0 0 0 0 0 0 0 0 0 0 0 0 0 0 0.35 0"/>
<feBlend mode="normal" in2="BackgroundImageFix" result="effect1_dropShadow"/>
<feBlend mode="normal" in="SourceGraphic" in2="effect1_dropShadow" result="shape"/>
</filter>
<filter id="filter15_d" x="610.509" y="640.803" width="86.3096" height="78.8373" filterUnits="userSpaceOnUse" color-interpolation-filters="sRGB">
<feFlood flood-opacity="0" result="BackgroundImageFix"/>
<feColorMatrix in="SourceAlpha" type="matrix" values="0 0 0 0 0 0 0 0 0 0 0 0 0 0 0 0 0 0 127 0"/>
<feOffset dy="2"/>
<feGaussianBlur stdDeviation="8"/>
<feColorMatrix type="matrix" values="0 0 0 0 0 0 0 0 0 0 0 0 0 0 0 0 0 0 0.35 0"/>
<feBlend mode="normal" in2="BackgroundImageFix" result="effect1_dropShadow"/>
<feBlend mode="normal" in="SourceGraphic" in2="effect1_dropShadow" result="shape"/>
</filter>
<filter id="filter16_d" x="644" y="547.483" width="87.4258" height="81.0531" filterUnits="userSpaceOnUse" color-interpolation-filters="sRGB">
<feFlood flood-opacity="0" result="BackgroundImageFix"/>
<feColorMatrix in="SourceAlpha" type="matrix" values="0 0 0 0 0 0 0 0 0 0 0 0 0 0 0 0 0 0 127 0"/>
<feOffset dy="2"/>
<feGaussianBlur stdDeviation="8"/>
<feColorMatrix type="matrix" values="0 0 0 0 0 0 0 0 0 0 0 0 0 0 0 0 0 0 0.35 0"/>
<feBlend mode="normal" in2="BackgroundImageFix" result="effect1_dropShadow"/>
<feBlend mode="normal" in="SourceGraphic" in2="effect1_dropShadow" result="shape"/>
</filter>
<filter id="filter17_d" x="811.66" y="257.411" width="108.815" height="112.316" filterUnits="userSpaceOnUse" color-interpolation-filters="sRGB">
<feFlood flood-opacity="0" result="BackgroundImageFix"/>
<feColorMatrix in="SourceAlpha" type="matrix" values="0 0 0 0 0 0 0 0 0 0 0 0 0 0 0 0 0 0 127 0"/>
<feOffset dy="2"/>
<feGaussianBlur stdDeviation="8"/>
<feColorMatrix type="matrix" values="0 0 0 0 0 0 0 0 0 0 0 0 0 0 0 0 0 0 0.35 0"/>
<feBlend mode="normal" in2="BackgroundImageFix" result="effect1_dropShadow"/>
<feBlend mode="normal" in="SourceGraphic" in2="effect1_dropShadow" result="shape"/>
</filter>
<filter id="filter18_d" x="334.779" y="543.309" width="106.597" height="104.189" filterUnits="userSpaceOnUse" color-interpolation-filters="sRGB">
<feFlood flood-opacity="0" result="BackgroundImageFix"/>
<feColorMatrix in="SourceAlpha" type="matrix" values="0 0 0 0 0 0 0 0 0 0 0 0 0 0 0 0 0 0 127 0"/>
<feOffset dy="2"/>
<feGaussianBlur stdDeviation="8"/>
<feColorMatrix type="matrix" values="0 0 0 0 0 0 0 0 0 0 0 0 0 0 0 0 0 0 0.35 0"/>
<feBlend mode="normal" in2="BackgroundImageFix" result="effect1_dropShadow"/>
<feBlend mode="normal" in="SourceGraphic" in2="effect1_dropShadow" result="shape"/>
</filter>
<filter id="filter19_d" x="316.454" y="597.324" width="142.304" height="118.191" filterUnits="userSpaceOnUse" color-interpolation-filters="sRGB">
<feFlood flood-opacity="0" result="BackgroundImageFix"/>
<feColorMatrix in="SourceAlpha" type="matrix" values="0 0 0 0 0 0 0 0 0 0 0 0 0 0 0 0 0 0 127 0"/>
<feOffset dy="2"/>
<feGaussianBlur stdDeviation="8"/>
<feColorMatrix type="matrix" values="0 0 0 0 0 0 0 0 0 0 0 0 0 0 0 0 0 0 0.35 0"/>
<feBlend mode="normal" in2="BackgroundImageFix" result="effect1_dropShadow"/>
<feBlend mode="normal" in="SourceGraphic" in2="effect1_dropShadow" result="shape"/>
</filter>
<filter id="filter20_d" x="638.657" y="238.313" width="78.618" height="62.3007" filterUnits="userSpaceOnUse" color-interpolation-filters="sRGB">
<feFlood flood-opacity="0" result="BackgroundImageFix"/>
<feColorMatrix in="SourceAlpha" type="matrix" values="0 0 0 0 0 0 0 0 0 0 0 0 0 0 0 0 0 0 127 0"/>
<feOffset dy="2"/>
<feGaussianBlur stdDeviation="8"/>
<feColorMatrix type="matrix" values="0 0 0 0 0 0 0 0 0 0 0 0 0 0 0 0 0 0 0.35 0"/>
<feBlend mode="normal" in2="BackgroundImageFix" result="effect1_dropShadow"/>
<feBlend mode="normal" in="SourceGraphic" in2="effect1_dropShadow" result="shape"/>
</filter>
<filter id="filter21_d" x="685.286" y="256.813" width="66.5897" height="63.1678" filterUnits="userSpaceOnUse" color-interpolation-filters="sRGB">
<feFlood flood-opacity="0" result="BackgroundImageFix"/>
<feColorMatrix in="SourceAlpha" type="matrix" values="0 0 0 0 0 0 0 0 0 0 0 0 0 0 0 0 0 0 127 0"/>
<feOffset dy="2"/>
<feGaussianBlur stdDeviation="8"/>
<feColorMatrix type="matrix" values="0 0 0 0 0 0 0 0 0 0 0 0 0 0 0 0 0 0 0.35 0"/>
<feBlend mode="normal" in2="BackgroundImageFix" result="effect1_dropShadow"/>
<feBlend mode="normal" in="SourceGraphic" in2="effect1_dropShadow" result="shape"/>
</filter>
<filter id="filter22_d" x="579.183" y="259.845" width="105.383" height="89.2112" filterUnits="userSpaceOnUse" color-interpolation-filters="sRGB">
<feFlood flood-opacity="0" result="BackgroundImageFix"/>
<feColorMatrix in="SourceAlpha" type="matrix" values="0 0 0 0 0 0 0 0 0 0 0 0 0 0 0 0 0 0 127 0"/>
<feOffset dy="2"/>
<feGaussianBlur stdDeviation="8"/>
<feColorMatrix type="matrix" values="0 0 0 0 0 0 0 0 0 0 0 0 0 0 0 0 0 0 0.35 0"/>
<feBlend mode="normal" in2="BackgroundImageFix" result="effect1_dropShadow"/>
<feBlend mode="normal" in="SourceGraphic" in2="effect1_dropShadow" result="shape"/>
</filter>
<filter id="filter23_d" x="403.357" y="523.585" width="84.9525" height="77.6669" filterUnits="userSpaceOnUse" color-interpolation-filters="sRGB">
<feFlood flood-opacity="0" result="BackgroundImageFix"/>
<feColorMatrix in="SourceAlpha" type="matrix" values="0 0 0 0 0 0 0 0 0 0 0 0 0 0 0 0 0 0 127 0"/>
<feOffset dy="2"/>
<feGaussianBlur stdDeviation="8"/>
<feColorMatrix type="matrix" values="0 0 0 0 0 0 0 0 0 0 0 0 0 0 0 0 0 0 0.35 0"/>
<feBlend mode="normal" in2="BackgroundImageFix" result="effect1_dropShadow"/>
<feBlend mode="normal" in="SourceGraphic" in2="effect1_dropShadow" result="shape"/>
</filter>
<filter id="filter24_d" x="644" y="513.126" width="72.3687" height="69.8913" filterUnits="userSpaceOnUse" color-interpolation-filters="sRGB">
<feFlood flood-opacity="0" result="BackgroundImageFix"/>
<feColorMatrix in="SourceAlpha" type="matrix" values="0 0 0 0 0 0 0 0 0 0 0 0 0 0 0 0 0 0 127 0"/>
<feOffset dy="2"/>
<feGaussianBlur stdDeviation="8"/>
<feColorMatrix type="matrix" values="0 0 0 0 0 0 0 0 0 0 0 0 0 0 0 0 0 0 0.35 0"/>
<feBlend mode="normal" in2="BackgroundImageFix" result="effect1_dropShadow"/>
<feBlend mode="normal" in="SourceGraphic" in2="effect1_dropShadow" result="shape"/>
</filter>
<filter id="filter25_d" x="876.892" y="289.308" width="89.9883" height="89.3037" filterUnits="userSpaceOnUse" color-interpolation-filters="sRGB">
<feFlood flood-opacity="0" result="BackgroundImageFix"/>
<feColorMatrix in="SourceAlpha" type="matrix" values="0 0 0 0 0 0 0 0 0 0 0 0 0 0 0 0 0 0 127 0"/>
<feOffset dy="2"/>
<feGaussianBlur stdDeviation="8"/>
<feColorMatrix type="matrix" values="0 0 0 0 0 0 0 0 0 0 0 0 0 0 0 0 0 0 0.35 0"/>
<feBlend mode="normal" in2="BackgroundImageFix" result="effect1_dropShadow"/>
<feBlend mode="normal" in="SourceGraphic" in2="effect1_dropShadow" result="shape"/>
</filter>
<filter id="filter26_d" x="692.504" y="501" width="59.2711" height="56.1355" filterUnits="userSpaceOnUse" color-interpolation-filters="sRGB">
<feFlood flood-opacity="0" result="BackgroundImageFix"/>
<feColorMatrix in="SourceAlpha" type="matrix" values="0 0 0 0 0 0 0 0 0 0 0 0 0 0 0 0 0 0 127 0"/>
<feOffset dy="2"/>
<feGaussianBlur stdDeviation="8"/>
<feColorMatrix type="matrix" values="0 0 0 0 0 0 0 0 0 0 0 0 0 0 0 0 0 0 0.35 0"/>
<feBlend mode="normal" in2="BackgroundImageFix" result="effect1_dropShadow"/>
<feBlend mode="normal" in="SourceGraphic" in2="effect1_dropShadow" result="shape"/>
</filter>
<filter id="filter27_d" x="924.409" y="242.073" width="69.7954" height="71.5177" filterUnits="userSpaceOnUse" color-interpolation-filters="sRGB">
<feFlood flood-opacity="0" result="BackgroundImageFix"/>
<feColorMatrix in="SourceAlpha" type="matrix" values="0 0 0 0 0 0 0 0 0 0 0 0 0 0 0 0 0 0 127 0"/>
<feOffset dy="2"/>
<feGaussianBlur stdDeviation="8"/>
<feColorMatrix type="matrix" values="0 0 0 0 0 0 0 0 0 0 0 0 0 0 0 0 0 0 0.35 0"/>
<feBlend mode="normal" in2="BackgroundImageFix" result="effect1_dropShadow"/>
<feBlend mode="normal" in="SourceGraphic" in2="effect1_dropShadow" result="shape"/>
</filter>
<linearGradient id="paint0_linear" x1="-660.178" y1="509.415" x2="606.195" y2="-953.781" gradientUnits="userSpaceOnUse">
<stop offset="0.015625" stop-color="#0ACAC0"/>
<stop offset="0.630208" stop-color="#1D0F5C"/>
<stop offset="0.994792" stop-color="#160F30"/>
</linearGradient>
<linearGradient id="paint1_linear" x1="-660.178" y1="509.415" x2="606.195" y2="-953.781" gradientUnits="userSpaceOnUse">
<stop offset="0.015625" stop-color="#0ACAC0"/>
<stop offset="0.630208" stop-color="#1D0F5C"/>
<stop offset="0.994792" stop-color="#160F30"/>
</linearGradient>
<linearGradient id="paint2_linear" x1="332.684" y1="630.943" x2="1089.14" y2="452.619" gradientUnits="userSpaceOnUse">
<stop stop-color="#CD7CFF"/>
<stop offset="1" stop-color="#1E105D"/>
</linearGradient>
<linearGradient id="paint3_linear" x1="11.5152" y1="567.009" x2="741.49" y2="628.287" gradientUnits="userSpaceOnUse">
<stop stop-color="#CD7CFF"/>
<stop offset="1" stop-color="#1E105D"/>
</linearGradient>
<linearGradient id="paint4_linear" x1="521.981" y1="21.2012" x2="1004.51" y2="571.53" gradientUnits="userSpaceOnUse">
<stop offset="0.015625" stop-color="#0ACAC0"/>
<stop offset="0.630208" stop-color="#1D0F5C"/>
<stop offset="0.994792" stop-color="#160F30"/>
</linearGradient>
<linearGradient id="paint5_linear" x1="757.146" y1="771.475" x2="108.786" y2="839.798" gradientUnits="userSpaceOnUse">
<stop offset="0.015625" stop-color="#0ACAC0"/>
<stop offset="0.630208" stop-color="#1D0F5C"/>
<stop offset="0.994792" stop-color="#160F30"/>
</linearGradient>
<linearGradient id="paint6_linear" x1="527.751" y1="599.882" x2="747.613" y2="516.04" gradientUnits="userSpaceOnUse">
<stop offset="0.197917" stop-color="#372C67"/>
<stop offset="1" stop-color="#48DBD2"/>
</linearGradient>
<linearGradient id="paint7_linear" x1="559.241" y1="499.935" x2="278.291" y2="438.457" gradientUnits="userSpaceOnUse">
<stop offset="0.197917" stop-color="#372C67"/>
<stop offset="1" stop-color="#48DBD2"/>
</linearGradient>
<linearGradient id="paint8_linear" x1="497.478" y1="498.929" x2="262.277" y2="582.045" gradientUnits="userSpaceOnUse">
<stop stop-color="#48DBD2"/>
<stop offset="1" stop-color="#6250AC"/>
</linearGradient>
<linearGradient id="paint9_linear" x1="489.962" y1="512.322" x2="283.428" y2="521.604" gradientUnits="userSpaceOnUse">
<stop stop-color="#48DBD2"/>
<stop offset="1" stop-color="#6250AC"/>
</linearGradient>
<linearGradient id="paint10_linear" x1="580.973" y1="618.425" x2="768.97" y2="627.169" gradientUnits="userSpaceOnUse">
<stop offset="0.197917" stop-color="#6250AC"/>
<stop offset="1" stop-color="#48DBD2"/>
</linearGradient>
<linearGradient id="paint11_linear" x1="623.283" y1="668.809" x2="582.033" y2="910.092" gradientUnits="userSpaceOnUse">
<stop stop-color="#FDE6E1"/>
<stop offset="1" stop-color="#917EDE"/>
</linearGradient>
<linearGradient id="paint12_linear" x1="705.481" y1="235.974" x2="582.31" y2="837.34" gradientUnits="userSpaceOnUse">
<stop stop-color="#FDE6E1"/>
<stop offset="1" stop-color="#917EDE"/>
</linearGradient>
<linearGradient id="paint13_linear" x1="522.584" y1="401.492" x2="562.038" y2="319.728" gradientUnits="userSpaceOnUse">
<stop offset="0.015625" stop-color="#0ACAC0"/>
<stop offset="0.630208" stop-color="#1D0F5C"/>
<stop offset="0.994792" stop-color="#160F30"/>
</linearGradient>
<linearGradient id="paint14_linear" x1="533.45" y1="575.247" x2="621.421" y2="580.825" gradientUnits="userSpaceOnUse">
<stop stop-color="#48DBD2"/>
<stop offset="0.0001" stop-color="#917EDE"/>
<stop offset="1" stop-color="#DB46C4"/>
</linearGradient>
<linearGradient id="paint15_linear" x1="526.001" y1="447.17" x2="540.3" y2="397.266" gradientUnits="userSpaceOnUse">
<stop offset="0.015625" stop-color="#0ACAC0"/>
<stop offset="0.630208" stop-color="#1D0F5C"/>
<stop offset="0.994792" stop-color="#160F30"/>
</linearGradient>
<linearGradient id="paint16_linear" x1="662.926" y1="525.203" x2="500.377" y2="651.941" gradientUnits="userSpaceOnUse">
<stop offset="0.197917" stop-color="#6250AC"/>
<stop offset="1" stop-color="#48DBD2"/>
</linearGradient>
<linearGradient id="paint17_linear" x1="-39.4261" y1="618.731" x2="337.688" y2="365.349" gradientUnits="userSpaceOnUse">
<stop stop-color="#EFD9E1"/>
<stop offset="0.912897" stop-color="#3A19B8"/>
</linearGradient>
<linearGradient id="paint18_linear" x1="96.5026" y1="651.771" x2="406.012" y2="380.717" gradientUnits="userSpaceOnUse">
<stop stop-color="#EFD9E1"/>
<stop offset="0.912897" stop-color="#3A19B8"/>
</linearGradient>
<linearGradient id="paint19_linear" x1="480.826" y1="194.201" x2="731.937" y2="334.501" gradientUnits="userSpaceOnUse">
<stop stop-color="#F561F8"/>
<stop offset="1" stop-color="#522F8B"/>
</linearGradient>
<linearGradient id="paint20_linear" x1="529.345" y1="658.087" x2="396.217" y2="502.772" gradientUnits="userSpaceOnUse">
<stop stop-color="#C126C4"/>
<stop offset="1" stop-color="#522F8B"/>
</linearGradient>
<linearGradient id="paint21_linear" x1="523.139" y1="257.226" x2="336.48" y2="364.487" gradientUnits="userSpaceOnUse">
<stop offset="0.197917" stop-color="#6250AC"/>
<stop offset="1" stop-color="#48DBD2"/>
</linearGradient>
<linearGradient id="paint22_linear" x1="678.25" y1="430.892" x2="758.158" y2="391.205" gradientUnits="userSpaceOnUse">
<stop stop-color="#B00095" stop-opacity="0.56"/>
<stop offset="1" stop-color="#150064"/>
</linearGradient>
<linearGradient id="paint23_linear" x1="463.313" y1="252.625" x2="463.313" y2="654.803" gradientUnits="userSpaceOnUse">
<stop stop-color="#F6B4F4"/>
<stop offset="1" stop-color="#C75ADC"/>
</linearGradient>
<linearGradient id="paint24_linear" x1="557.687" y1="393.193" x2="497.395" y2="271.506" gradientUnits="userSpaceOnUse">
<stop offset="0.197917" stop-color="#6250AC"/>
<stop offset="1" stop-color="#44006D"/>
</linearGradient>
<linearGradient id="paint25_linear" x1="493.426" y1="197.297" x2="485.82" y2="415.811" gradientUnits="userSpaceOnUse">
<stop stop-color="#F890E8"/>
<stop offset="1" stop-color="#150064"/>
</linearGradient>
<linearGradient id="paint26_linear" x1="531.786" y1="326.918" x2="479.825" y2="379.983" gradientUnits="userSpaceOnUse">
<stop stop-color="#B00095" stop-opacity="0.56"/>
<stop offset="1" stop-color="#150064"/>
</linearGradient>
<linearGradient id="paint27_linear" x1="547.415" y1="614.289" x2="505.006" y2="661.401" gradientUnits="userSpaceOnUse">
<stop stop-color="#B00095" stop-opacity="0.56"/>
<stop offset="1" stop-color="#150064"/>
</linearGradient>
<linearGradient id="paint28_linear" x1="519.859" y1="317.317" x2="461.722" y2="377.02" gradientUnits="userSpaceOnUse">
<stop stop-color="#B00095" stop-opacity="0.56"/>
<stop offset="1" stop-color="#150064"/>
</linearGradient>
<linearGradient id="paint29_linear" x1="543.58" y1="583.935" x2="519.774" y2="650.957" gradientUnits="userSpaceOnUse">
<stop stop-color="#B00095" stop-opacity="0.56"/>
<stop offset="1" stop-color="#150064"/>
</linearGradient>
<linearGradient id="paint30_linear" x1="548.583" y1="353.948" x2="486.638" y2="394.92" gradientUnits="userSpaceOnUse">
<stop stop-color="#B00095" stop-opacity="0.56"/>
<stop offset="1" stop-color="#150064"/>
</linearGradient>
<linearGradient id="paint31_linear" x1="428.321" y1="517.736" x2="456.668" y2="574.432" gradientUnits="userSpaceOnUse">
<stop stop-color="#B00095" stop-opacity="0.56"/>
<stop offset="1" stop-color="#150064"/>
</linearGradient>
<linearGradient id="paint32_linear" x1="573.3" y1="416.83" x2="445.491" y2="491.784" gradientUnits="userSpaceOnUse">
<stop offset="0.197917" stop-color="#6250AC"/>
<stop offset="1" stop-color="#48DBD2"/>
</linearGradient>
<linearGradient id="paint33_linear" x1="318.267" y1="489.52" x2="375.52" y2="393.162" gradientUnits="userSpaceOnUse">
<stop stop-color="#B00095" stop-opacity="0.56"/>
<stop offset="1" stop-color="#150064"/>
</linearGradient>
<linearGradient id="paint34_linear" x1="554.292" y1="707.755" x2="640.073" y2="668.247" gradientUnits="userSpaceOnUse">
<stop stop-color="#2BF8EB"/>
<stop offset="0.734375" stop-color="#DB46C4"/>
</linearGradient>
<linearGradient id="paint35_linear" x1="626.207" y1="673.798" x2="681.051" y2="648.539" gradientUnits="userSpaceOnUse">
<stop stop-color="#2BF8EB"/>
<stop offset="0.734375" stop-color="#DB46C4"/>
</linearGradient>
<linearGradient id="paint36_linear" x1="342.626" y1="629.944" x2="500.693" y2="686.464" gradientUnits="userSpaceOnUse">
<stop offset="0.197917" stop-color="#6250AC"/>
<stop offset="1" stop-color="#44006D"/>
</linearGradient>
<linearGradient id="paint37_linear" x1="699.141" y1="560.133" x2="647.222" y2="592.943" gradientUnits="userSpaceOnUse">
<stop stop-color="#48DBD2"/>
<stop offset="0.0001" stop-color="#917EDE"/>
<stop offset="1" stop-color="#DB46C4"/>
</linearGradient>
<linearGradient id="paint38_linear" x1="906.057" y1="301.289" x2="846.419" y2="368.22" gradientUnits="userSpaceOnUse">
<stop offset="0.0001" stop-color="#2600C2"/>
<stop offset="1" stop-color="#FF4BE3"/>
</linearGradient>
<linearGradient id="paint39_linear" x1="397.841" y1="554.847" x2="334.305" y2="593.98" gradientUnits="userSpaceOnUse">
<stop stop-color="#48DBD2"/>
<stop offset="0.0001" stop-color="#917EDE"/>
<stop offset="1" stop-color="#DB46C4"/>
</linearGradient>
<linearGradient id="paint40_linear" x1="426.091" y1="611.564" x2="335.625" y2="637.741" gradientUnits="userSpaceOnUse">
<stop offset="0.197917" stop-color="#6250AC"/>
<stop offset="1" stop-color="#48DBD2"/>
</linearGradient>
<linearGradient id="paint41_linear" x1="699.578" y1="250.463" x2="640.046" y2="254.949" gradientUnits="userSpaceOnUse">
<stop stop-color="#00A59B"/>
<stop offset="0.0001" stop-color="#180079"/>
<stop offset="1" stop-color="#FF89ED"/>
</linearGradient>
<linearGradient id="paint42_linear" x1="735.819" y1="275.262" x2="697.206" y2="268.332" gradientUnits="userSpaceOnUse">
<stop stop-color="#00A59B"/>
<stop offset="0.0001" stop-color="#180079"/>
<stop offset="1" stop-color="#FF89ED"/>
</linearGradient>
<linearGradient id="paint43_linear" x1="658.281" y1="271.125" x2="574.494" y2="291.017" gradientUnits="userSpaceOnUse">
<stop stop-color="#00A59B"/>
<stop offset="0.0001" stop-color="#180079"/>
<stop offset="1" stop-color="#FF89ED"/>
</linearGradient>
<linearGradient id="paint44_linear" x1="419.063" y1="556.106" x2="472.536" y2="531.478" gradientUnits="userSpaceOnUse">
<stop stop-color="#2BF8EB"/>
<stop offset="0.734375" stop-color="#DB46C4"/>
</linearGradient>
<linearGradient id="paint45_linear" x1="686.138" y1="526.284" x2="651.457" y2="554.745" gradientUnits="userSpaceOnUse">
<stop stop-color="#48DBD2"/>
<stop offset="0.0001" stop-color="#917EDE"/>
<stop offset="1" stop-color="#DB46C4"/>
</linearGradient>
<linearGradient id="paint46_linear" x1="951.801" y1="328.11" x2="902.54" y2="371.257" gradientUnits="userSpaceOnUse">
<stop offset="0.0001" stop-color="#2600C2"/>
<stop offset="1" stop-color="#FF4BE3"/>
</linearGradient>
<linearGradient id="paint47_linear" x1="727.762" y1="514.336" x2="702.217" y2="530.479" gradientUnits="userSpaceOnUse">
<stop stop-color="#48DBD2"/>
<stop offset="0.0001" stop-color="#917EDE"/>
<stop offset="1" stop-color="#DB46C4"/>
</linearGradient>
<linearGradient id="paint48_linear" x1="978.982" y1="270.774" x2="949.639" y2="303.706" gradientUnits="userSpaceOnUse">
<stop offset="0.0001" stop-color="#2600C2"/>
<stop offset="1" stop-color="#FF4BE3"/>
</linearGradient>
</defs>
</svg>
