<svg width="862" height="1114" viewBox="0 0 862 1114" fill="none" xmlns="http://www.w3.org/2000/svg">
<g filter="url(#filter0_i)">
<path d="M68.197 367.294C82.9997 360.497 95.4017 347.814 113.709 315.938C130.245 278.75 155.404 184.776 232.414 153.608C328.677 114.649 371 64.5231 380.056 20.2022L387.922 -28H919L912.655 1114C849.729 1044.21 745.646 1083.34 660.423 1010.9C548.618 915.878 593.574 833.16 545.147 768.228C496.72 703.296 426.609 698.856 388.097 663.016C345.039 622.945 346.984 563.953 309.778 532.05C272.573 500.147 254.314 493.928 211.744 491.244C159.183 487.93 142.993 493.831 142.993 506.824C142.993 519.818 152.575 528.887 155.784 535.069C151.34 541.747 140.134 553.668 131.988 558.861C107.399 574.538 90.3204 606.871 88.0988 605.387C85.8771 603.903 71.1592 568.404 68.197 561.727C65.2347 555.049 60.7914 543.179 56.3481 539.469C51.9047 535.759 20.8013 534.276 16.358 532.05C11.9147 529.824 10.4336 522.405 11.1741 518.695C11.9147 514.985 14.1364 512.018 14.1364 509.792C14.1364 507.566 10.4336 503.347 10.4336 500.147C10.4336 497.531 13.3958 497.531 13.3958 495.695C13.3958 494.369 10.4336 493.302 10.4336 491.244C10.4336 490.749 10.5817 489.315 11.1741 487.534C11.9147 485.309 11.9147 480.115 11.1741 478.631C10.4336 477.147 2.14356 472.524 0.848789 470.568C-0.695242 468.235 0.0658497 463.793 1.54696 462.309C3.02808 460.825 11.9148 453.406 14.1364 451.18C16.3581 448.954 23.0231 441.535 23.0231 435.599C23.0231 429.664 21.4715 428.8 21.4715 425.628C21.4715 421.398 26.7259 411.116 27.4664 408.148C28.207 405.181 41.6598 379.479 68.197 367.294Z" fill="url(#paint0_linear)"/>
</g>
<g opacity="0.2">
<circle cx="637" cy="63" r="6" fill="#FBFFF3" fill-opacity="0.3"/>
<circle cx="637" cy="63" r="3" fill="#FBFFF3"/>
</g>
<g opacity="0.2">
<circle cx="743" cy="133" r="4" fill="#FBFFF3" fill-opacity="0.3"/>
<circle cx="743" cy="133" r="2" fill="#FBFFF3"/>
</g>
<g opacity="0.2">
<circle cx="471" cy="259" r="4" fill="#FBFFF3" fill-opacity="0.3"/>
<circle cx="471" cy="259" r="2" fill="#FBFFF3"/>
</g>
<g opacity="0.2">
<circle cx="320" cy="158" r="4" fill="#FBFFF3" fill-opacity="0.3"/>
<circle cx="320" cy="158" r="2" fill="#FBFFF3"/>
</g>
<g opacity="0.2">
<circle cx="848" cy="62" r="4" fill="#FBFFF3" fill-opacity="0.3"/>
<circle cx="848" cy="62" r="2" fill="#FBFFF3"/>
</g>
<g opacity="0.2">
<circle cx="210" cy="234" r="4" fill="#FBFFF3" fill-opacity="0.3"/>
<circle cx="210" cy="234" r="2" fill="#FBFFF3"/>
</g>
<g opacity="0.2">
<circle cx="826" cy="267" r="4" fill="#FBFFF3" fill-opacity="0.3"/>
<circle cx="826" cy="267" r="2" fill="#FBFFF3"/>
</g>
<g opacity="0.2">
<circle cx="448" cy="182" r="2" fill="#FBFFF3" fill-opacity="0.3"/>
<circle cx="448" cy="182" r="1" fill="#FBFFF3"/>
</g>
<g opacity="0.2">
<circle cx="743" cy="214" r="2" fill="#FBFFF3" fill-opacity="0.3"/>
<circle cx="743" cy="214" r="1" fill="#FBFFF3"/>
</g>
<g opacity="0.2">
<circle cx="331" cy="247" r="2" fill="#FBFFF3" fill-opacity="0.3"/>
<circle cx="331" cy="247" r="1" fill="#FBFFF3"/>
</g>
<g opacity="0.2">
<circle cx="216" cy="334" r="2" fill="#FBFFF3" fill-opacity="0.3"/>
<circle cx="216" cy="334" r="1" fill="#FBFFF3"/>
</g>
<g opacity="0.2">
<circle cx="398" cy="353" r="2" fill="#FBFFF3" fill-opacity="0.3"/>
<circle cx="398" cy="353" r="1" fill="#FBFFF3"/>
</g>
<g opacity="0.2">
<circle cx="458" cy="110" r="2" fill="#FBFFF3" fill-opacity="0.3"/>
<circle cx="458" cy="110" r="1" fill="#FBFFF3"/>
</g>
<g opacity="0.2">
<circle cx="774" cy="7" r="2" fill="#FBFFF3" fill-opacity="0.3"/>
<circle cx="774" cy="7" r="1" fill="#FBFFF3"/>
</g>
<g opacity="0.3">
<circle cx="618.346" cy="248.346" r="40.2373" transform="rotate(17.5034 618.346 248.346)" fill="#F0F4E7" fill-opacity="0.1"/>
<circle cx="618" cy="248" r="47.8293" transform="rotate(17.5034 618 248)" fill="#F0F4E7" fill-opacity="0.1"/>
<circle cx="617.932" cy="247.932" r="32.6454" transform="rotate(17.5034 617.932 247.932)" fill="#F0F4E7" fill-opacity="0.1"/>
<circle cx="617.42" cy="247.599" r="22.84" transform="rotate(17.5034 617.42 247.599)" fill="#F0F4E7" fill-opacity="0.1"/>
<path fill-rule="evenodd" clip-rule="evenodd" d="M606.25 264.034C618.28 267.828 631.108 261.151 634.902 249.121C636.204 244.992 636.273 240.768 635.315 236.849C635.043 235.735 636.417 234.866 637.006 235.849C640.249 241.26 641.249 247.98 639.203 254.469C635.409 266.499 622.581 273.176 610.551 269.382C607.158 268.312 604.191 266.523 601.764 264.236C600.93 263.45 602.08 262.284 603.111 262.785C604.111 263.271 605.159 263.69 606.25 264.034Z" fill="#FBFFF3"/>
</g>
<mask id="mask0" mask-type="alpha" maskUnits="userSpaceOnUse" x="0" y="-28" width="919" height="1142">
<path d="M68.197 367.294C82.9997 360.497 95.4017 347.814 113.709 315.938C130.245 278.75 155.404 184.776 232.414 153.608C328.677 114.649 371 64.5231 380.056 20.2022L387.922 -28H919L912.655 1114C849.729 1044.21 745.646 1083.34 660.423 1010.9C548.618 915.878 593.574 833.16 545.147 768.228C496.72 703.296 426.609 698.856 388.097 663.016C345.039 622.945 346.984 563.953 309.778 532.05C272.573 500.147 254.314 493.928 211.744 491.244C159.183 487.93 142.993 493.831 142.993 506.824C142.993 519.818 152.575 528.887 155.784 535.069C151.34 541.747 140.134 553.668 131.988 558.861C107.399 574.538 90.3204 606.871 88.0988 605.387C85.8771 603.903 71.1592 568.404 68.197 561.727C65.2347 555.049 60.7914 543.179 56.3481 539.469C51.9047 535.759 20.8013 534.276 16.358 532.05C11.9147 529.824 10.4336 522.405 11.1741 518.695C11.9147 514.985 14.1364 512.018 14.1364 509.792C14.1364 507.566 10.4336 503.347 10.4336 500.147C10.4336 497.531 13.3958 497.531 13.3958 495.695C13.3958 494.369 10.4336 493.302 10.4336 491.244C10.4336 490.749 10.5817 489.315 11.1741 487.534C11.9147 485.309 11.9147 480.115 11.1741 478.631C10.4336 477.147 2.14356 472.524 0.848789 470.568C-0.695242 468.235 0.0658497 463.793 1.54696 462.309C3.02808 460.825 11.9148 453.406 14.1364 451.18C16.3581 448.954 23.0231 441.535 23.0231 435.599C23.0231 429.664 21.4715 428.8 21.4715 425.628C21.4715 421.398 26.7259 411.116 27.4664 408.148C28.207 405.181 41.6598 379.479 68.197 367.294Z" fill="url(#paint1_linear)"/>
</mask>
<g mask="url(#mask0)">
<circle cx="844" cy="949" r="634" fill="#146C8E" fill-opacity="0.1"/>
<circle cx="914" cy="1071" r="598" fill="#DB46C4" fill-opacity="0.1"/>
<circle cx="959" cy="1130" r="513" fill="#DB46C4" fill-opacity="0.15"/>
<path d="M403.764 720.993C391.293 741.428 369.58 749.967 357.84 763.378L317.278 806.201C319.181 801.653 308.618 759.735 271.351 738.647C224.767 712.287 218.713 662.167 234.303 633.824C249.664 605.895 253.345 623.467 268.119 599.873C282.893 576.279 286.938 534.454 301.553 519.954C319.415 502.233 319.927 529.014 344.17 494.266C370.276 456.847 375.377 408.837 401.142 419.616C426.178 430.09 403.933 480.333 407.839 500.289C413.979 531.655 437.142 507.968 439.647 534.21C442.152 560.452 421.597 585.684 420.308 599.411C417.825 625.857 435.368 610.292 434.837 646.716C434.438 674.096 419.354 695.45 403.764 720.993Z" fill="url(#paint2_linear)"/>
<path d="M368.312 653.781C361.89 676.843 343.331 690.983 335.697 707.089L308.359 759.354C308.948 754.459 287.348 717.014 245.741 706.896C193.732 694.248 174.232 647.681 181.496 616.16C188.654 585.099 196.989 601 204.765 574.27C212.54 547.54 205.019 506.198 215.123 488.261C227.472 466.339 235.272 491.963 249.113 451.919C264.018 408.797 255.824 361.216 283.553 364.556C310.497 367.801 302.806 422.207 312.01 440.34C326.475 468.84 342.296 439.731 351.866 464.294C361.437 488.857 348.547 518.74 351.052 532.298C355.88 558.418 368.51 538.657 377.938 573.843C385.026 600.293 376.34 624.953 368.312 653.781Z" fill="url(#paint3_linear)"/>
<path fill-rule="evenodd" clip-rule="evenodd" d="M699.647 862.534C703.548 858.255 710.807 849.213 715.735 837.88C721.634 824.314 720.963 816.846 717.625 815.799C714.416 814.792 708.305 822.692 704.663 834.304C702.116 842.424 699.961 854.761 698.896 861.597C695.182 856.977 691.559 852.65 688.011 848.411C687.687 848.025 687.364 847.639 687.042 847.254C684.665 840.525 679.312 828.381 670.158 818.352C658.845 805.958 650.097 804.253 646.784 808.252C643.598 812.098 648.465 822.811 659.053 831.582C666.316 837.599 678.34 844.523 685.334 848.329C685.713 848.782 686.093 849.237 686.474 849.692C691.207 855.345 696.065 861.147 701.088 867.585C694.346 865.92 682.239 863.164 673.82 862.376C661.703 861.242 652.054 863.82 651.741 867.169C651.415 870.652 658.042 874.16 672.834 873.97C685.275 873.809 696.488 870.571 701.903 868.633C707.717 876.139 713.755 884.528 720.081 894.548C714.389 893.137 705.156 891.048 698.618 890.436C688.631 889.501 680.669 891.717 680.403 894.566C680.125 897.529 685.581 900.496 697.777 900.297C707.47 900.14 716.265 897.648 720.975 895.972C726.826 905.342 732.923 916.124 739.318 928.905C739.17 929.458 739.034 929.97 738.911 930.437C739.164 930.226 739.439 929.992 739.733 929.737C740.78 931.84 741.836 933.997 742.899 936.21C736.628 933.848 724.809 929.638 716.514 927.891C704.85 925.435 695.163 926.919 694.473 930.194C693.756 933.599 699.804 937.796 714.223 939.237C726.504 940.466 737.922 938.437 743.335 937.119C745.136 940.885 746.96 944.813 748.809 948.915C753.03 958.28 756.597 967.658 759.605 976.897C759.541 977.224 759.483 977.536 759.43 977.83C759.494 977.767 759.559 977.703 759.626 977.637L759.712 977.552L759.792 977.472C760.459 979.535 761.098 981.592 761.71 983.639C756.517 979.427 748.033 973.451 737.87 969.246C723.368 963.246 715.458 964.099 714.411 967.659C713.404 971.083 722.318 976.362 734.705 980.006C743.051 982.461 755.229 985.246 762.549 986.495C766.796 1001.23 769.674 1015.45 771.585 1028.53C763.147 1023.92 747.657 1016.96 736.629 1013.04C720.746 1007.39 706.953 1007.04 704.938 1012.7C702.842 1018.6 710.159 1026.65 730.296 1030.84C747.001 1034.31 763.508 1032.27 771.881 1030.61C772.208 1032.94 772.503 1035.24 772.77 1037.49C772.651 1037.77 772.538 1038.04 772.432 1038.29C772.565 1038.23 772.703 1038.17 772.843 1038.11C773.228 1041.41 773.552 1044.62 773.823 1047.72C775.025 1061.49 775.179 1073.22 774.942 1081.84C774.824 1086.15 774.608 1089.68 774.376 1092.31C774.142 1094.96 773.897 1096.62 773.738 1097.23L775.672 1097.73C775.881 1096.94 776.135 1095.12 776.368 1092.48C776.604 1089.81 776.822 1086.24 776.942 1081.89C777.181 1073.2 777.024 1061.4 775.815 1047.55C775.525 1044.23 775.175 1040.79 774.755 1037.25C782.502 1033.61 796.955 1025.47 808.314 1012.8C822.044 997.488 823.156 986.661 817.975 983.16C812.993 979.794 802.093 988.254 792.655 1002.22C786.44 1011.42 778.613 1025.21 774.359 1034.04C774.196 1032.77 774.024 1031.49 773.843 1030.19C774.001 1030.15 774.155 1030.12 774.304 1030.08C774.136 1029.98 773.963 1029.88 773.784 1029.78C771.902 1016.47 769.027 1001.93 764.729 986.842C765.019 986.884 765.295 986.922 765.559 986.956C765.242 986.663 764.883 986.337 764.483 985.983C763.516 982.628 762.479 979.246 761.366 975.846C765.773 971.156 773.167 962.194 778.426 951.007C785.104 936.804 784.625 928.863 781.118 927.649C777.745 926.482 772.051 935.138 767.828 947.338C765.204 954.917 762.148 965.733 760.438 973.06C757.642 964.799 754.396 956.442 750.633 948.093C747.445 941.022 744.329 934.464 741.28 928.359C746.081 923.968 753.974 915.742 759.993 905.22C767.785 891.597 767.943 883.643 764.545 882.152C761.277 880.719 753.917 888.342 748.731 900.166C745.462 907.617 742.134 918.715 740.105 926.021C733.616 913.199 727.429 902.409 721.495 893.043C725.422 888.716 732.592 879.737 737.474 868.509C743.373 854.943 742.702 847.475 739.364 846.428C736.155 845.421 730.044 853.321 726.402 864.933C723.907 872.886 721.789 884.883 720.702 891.796C713.324 880.263 706.337 870.904 699.647 862.534Z" fill="url(#paint4_linear)" fill-opacity="0.7"/>
<path fill-rule="evenodd" clip-rule="evenodd" d="M750.807 819.046C746.795 818.978 739.19 818.364 731.528 815.661C722.099 812.334 718.712 808.563 719.731 806.429C720.71 804.378 727.433 804.991 734.856 808.535C739.889 810.938 746.713 815.348 750.654 818.002C750.096 814.14 749.635 810.448 749.182 806.831L749.182 806.83L749.182 806.829C749.103 806.194 749.024 805.562 748.944 804.932C746.71 800.471 743.551 792.692 742.849 784.115C741.924 772.811 745.109 767.697 748.613 767.899C751.982 768.093 755.043 775.434 754.508 784.712C754.161 790.739 752.251 799.254 750.914 804.567C750.998 805.235 751.082 805.905 751.166 806.578L751.166 806.578C751.769 811.398 752.387 816.34 753.226 821.631C755.555 817.464 759.588 810.562 762.948 806.197C767.966 799.679 773.684 796.091 775.486 797.478C777.359 798.92 776.044 803.815 769.139 811.047C763.497 816.957 756.951 820.955 753.417 822.817C754.441 829.082 755.79 835.852 757.796 843.493C759.738 840.013 762.813 834.77 765.416 831.388C769.552 826.015 774.314 823.096 775.846 824.275C777.44 825.502 776.397 829.568 770.683 835.512C766.288 840.085 761.196 843.235 758.156 844.846C760.123 852.155 762.693 860.26 766.145 869.469L766.338 869.572C766.449 869.631 766.556 869.688 766.659 869.744L766.52 869.761L766.409 869.774L766.266 869.791C766.777 871.15 767.308 872.534 767.858 873.942C769.623 869.665 772.856 862.233 775.711 857.488C779.866 850.586 785.061 846.475 786.998 847.642C789.014 848.855 788.306 853.78 782.381 861.579C777.478 868.032 771.429 872.667 768.205 874.826C769.246 877.469 770.357 880.2 771.544 883.024C774.821 890.818 778.555 898.141 782.53 904.95C782.877 900.438 783.852 893.775 786.343 887.097C790.051 877.158 794.115 873.636 796.359 874.758C798.517 875.835 797.025 882.678 793.125 890.485C790.559 895.621 786.466 902.71 783.713 906.949C789.013 915.793 794.695 923.737 800.259 930.685C801.912 924.336 805.512 913.759 808.584 906.645C813.101 896.184 819.28 889.199 823.011 890.81C826.891 892.485 827.51 899.816 820.31 911.709C814.448 921.392 806.045 928.536 801.31 931.988C803.876 935.143 806.41 938.085 808.863 940.802C815.117 947.729 820.838 953.194 825.205 957.039C827.389 958.962 829.232 960.477 830.631 961.566C832.054 962.673 832.967 963.299 833.313 963.485L832.367 965.247C831.851 964.97 830.813 964.242 829.403 963.144C827.968 962.027 826.094 960.486 823.884 958.54C819.463 954.648 813.687 949.13 807.379 942.142C805.845 940.443 804.279 938.656 802.692 936.784C797.229 938.947 786.74 942.218 775.463 942.01C761.563 941.753 755.694 937.319 756.347 933.143C756.975 929.128 766.18 927.629 777.437 929.391C784.635 930.516 794.67 932.88 801.041 934.813C794.861 927.35 788.445 918.629 782.481 908.78L782.414 908.875L782.359 908.953C782.359 908.835 782.36 908.711 782.361 908.582C781.022 906.366 779.706 904.092 778.421 901.763C774.006 901.757 766.381 901.246 758.645 898.769C748.542 895.534 744.833 891.641 745.847 889.346C746.822 887.14 753.727 888.308 761.709 891.835C766.472 893.94 772.898 897.223 777.309 899.719C774.595 894.66 772.033 889.348 769.701 883.799C767.654 878.929 765.831 874.335 764.203 869.985C759.77 870.318 752.252 870.385 744.474 868.566C734.145 866.15 730.136 862.566 730.963 860.197C731.758 857.92 738.919 857.788 747.158 860.666C752.19 862.423 758.944 865.73 763.498 868.081C760.185 859.056 757.722 851.096 755.837 843.903C751.795 843.825 744.264 843.197 736.676 840.52C727.247 837.193 723.86 833.423 724.878 831.289C725.858 829.237 732.581 829.851 740.004 833.395C744.917 835.74 751.539 840 755.517 842.67C753.251 833.822 751.856 826.139 750.807 819.046Z" fill="url(#paint5_linear)" fill-opacity="0.7"/>
<path d="M299.3 528.042C299.734 538.431 289.667 548.897 287.744 557.035L279.693 584.16C279.054 582.172 255.716 574.28 224.132 582.17C184.651 592.033 160.832 580.155 159.169 566.381C157.531 552.807 166.85 556.393 166.582 544.26C166.314 532.126 152.086 518.837 155.359 509.326C159.36 497.701 170.397 505.058 171.544 486.267C172.781 466.03 156.733 450.606 177.048 444.08C196.789 437.738 203.083 460.156 213.496 464.33C229.863 470.89 234.768 455.616 246.827 462.082C258.886 468.548 256.219 483.289 260.912 487.636C269.955 496.011 274.62 485.112 288.869 495.575C299.58 503.439 298.758 515.057 299.3 528.042Z" fill="url(#paint6_linear)"/>
<path d="M67.6234 669.843C75.6613 681.445 94.5851 684.575 103.213 691.819L133.666 714.63C132.7 711.956 150.307 684.393 189.303 667.2C238.049 645.708 252.897 613.436 243.36 597.166C233.962 581.134 227.287 592.611 217.653 579.254C208.02 565.897 211.829 539.914 200.687 532.282C187.07 522.955 181.704 539.915 165.173 520.503C147.371 499.598 151.313 469.82 125.045 479.308C99.5198 488.527 111.342 517.93 104.019 530.935C92.5091 551.376 74.9791 538.834 67.8318 555.661C60.6844 572.489 75.4728 586.278 74.1858 594.81C71.7065 611.247 57.9965 603.247 51.8563 626.187C47.2407 643.43 57.576 655.341 67.6234 669.843Z" fill="url(#paint7_linear)"/>
<path d="M573.288 711.121C569.669 723.775 552.934 732.468 547.28 741.506L526.388 771C526.388 768.364 500.465 749.867 457.946 747.155C404.799 743.766 379.871 720.292 383.313 703.093C386.706 686.147 396.883 694.055 401.406 679.368C405.929 664.681 393.52 643.214 401.406 633.046C411.045 620.619 421.854 633.724 430.807 611.58C440.449 587.735 426.625 563 454.554 563C481.693 563 480.563 592.374 491.868 601.412C509.637 615.617 521.864 599.153 534.303 611.58C546.742 624.008 537.517 640.696 541.626 647.734C549.542 661.291 559.719 649.993 573.287 668.07C583.486 681.658 577.811 695.304 573.288 711.121Z" fill="url(#paint8_linear)"/>
<path d="M810.691 1017.48C824.052 1037.35 846.121 1044.92 858.441 1057.8L900.853 1098.79C898.751 1094.33 907.455 1051.99 943.755 1029.28C989.13 1000.89 992.966 950.548 976.141 922.92C959.562 895.696 956.66 913.414 940.86 890.495C925.059 867.576 919.172 825.97 903.931 812.13C885.304 795.214 885.975 821.992 860.223 788.347C832.491 752.116 825.276 704.378 800.012 716.283C775.462 727.852 799.903 777.065 796.881 797.174C792.131 828.78 767.945 806.138 766.601 832.465C765.256 858.792 786.905 883.092 788.798 896.749C792.446 923.059 774.233 908.284 776.371 944.649C777.977 971.985 793.99 992.652 810.691 1017.48Z" fill="url(#paint9_linear)"/>
<path fill-rule="evenodd" clip-rule="evenodd" d="M842.121 896.504C838.676 895.338 832.381 892.749 826.596 888.385C819.411 882.964 817.53 878.807 818.985 877.253C820.384 875.759 825.986 878.115 831.391 883.176C835.017 886.572 839.614 892.132 842.287 895.493C842.854 892.061 843.458 888.797 844.049 885.598L844.049 885.597L844.049 885.596L844.049 885.596L844.049 885.595C844.171 884.934 844.293 884.275 844.414 883.619C843.732 879.149 843.201 871.781 844.895 864.398C847.178 854.446 851.302 850.924 854.254 852.051C857.092 853.135 857.721 860.267 854.737 868.083C852.835 873.066 848.988 879.697 846.394 883.907C846.269 884.587 846.143 885.269 846.017 885.954L846.017 885.954C845.229 890.216 844.422 894.583 843.707 899.302C846.855 896.351 852.112 891.611 856.132 888.815C862.211 884.588 868.094 883.065 869.263 884.746C870.478 886.493 868.017 890.335 860.124 894.661C853.737 898.162 847.099 899.814 843.535 900.463C842.71 906.097 842.026 912.248 841.667 919.317C844.283 916.861 848.282 913.266 851.394 911.102C856.405 907.617 861.286 906.408 862.28 907.838C863.314 909.324 861.312 912.529 854.792 916.074C849.83 918.772 844.663 920.09 841.603 920.656C841.3 927.495 841.3 935.189 841.762 944.085C841.852 944.177 841.939 944.266 842.022 944.352C841.942 944.338 841.859 944.322 841.774 944.306C841.84 945.569 841.916 946.857 842.002 948.17C844.697 944.966 849.427 939.556 853.125 936.3C858.569 931.508 864.145 929.394 865.49 930.922C866.889 932.512 864.941 936.545 857.735 941.625C851.829 945.787 845.444 948.114 842.064 949.105C842.238 951.662 842.449 954.314 842.7 957.068C843.385 964.591 844.584 971.839 846.126 978.719C847.661 974.948 850.292 969.579 854.19 964.599C860.077 957.08 864.522 955.164 866.142 956.737C867.701 958.249 864.559 963.714 859.088 969.352C855.517 973.031 850.135 977.95 846.616 980.847C848.752 989.863 851.458 998.214 854.335 1005.68C857.499 1000.68 863.415 992.657 867.955 987.425C874.678 979.678 881.88 975.366 884.643 977.764C887.517 980.257 886.053 986.716 876.639 994.961C869.021 1001.63 859.934 1005.47 854.911 1007.16C856.253 1010.56 857.626 1013.77 858.99 1016.77C862.469 1024.41 865.889 1030.65 868.588 1035.14C869.938 1037.38 871.106 1039.18 872.008 1040.49C872.928 1041.83 873.537 1042.61 873.777 1042.86L872.342 1044.25C871.968 1043.87 871.272 1042.95 870.36 1041.63C869.432 1040.28 868.242 1038.44 866.875 1036.17C864.139 1031.62 860.683 1025.31 857.17 1017.6C856.311 1015.71 855.448 1013.74 854.592 1011.69C849.29 1012.05 839.466 1011.98 829.911 1008.76C818.053 1004.75 814.224 999.352 815.921 995.947C817.552 992.672 825.858 993.891 835.039 998.466C840.85 1001.36 848.717 1006.06 853.668 1009.44C850.419 1001.4 847.312 992.224 844.889 982.22L844.824 982.268C844.838 982.224 844.852 982.178 844.867 982.132C844.303 979.797 843.776 977.416 843.293 974.993C839.493 973.773 833.155 971.267 827.247 967.077C819.459 961.551 817.335 957.201 818.83 955.509C820.267 953.881 825.874 956.762 831.763 961.961C835.23 965.021 839.773 969.506 842.876 972.834C841.938 967.8 841.195 962.594 840.708 957.249C840.276 952.501 839.961 948.052 839.749 943.867C835.843 942.936 829.433 940.95 823.307 937.304C815.101 932.42 812.637 928.254 813.991 926.446C815.293 924.709 821.474 926.545 827.76 931.256C831.559 934.103 836.391 938.71 839.658 941.961C839.276 933.345 839.331 925.867 839.67 919.201C836.203 918.018 829.976 915.438 824.248 911.117C817.063 905.696 815.182 901.539 816.637 899.985C818.036 898.491 823.638 900.847 829.043 905.908C832.579 909.22 837.039 914.59 839.737 917.972C840.202 909.8 841.095 902.853 842.121 896.504Z" fill="url(#paint10_linear)" fill-opacity="0.7"/>
<path d="M884.288 1063.71C880.669 1079.83 863.934 1090.91 858.28 1102.42L837.388 1140C837.388 1136.64 811.465 1113.08 768.946 1109.62C715.799 1105.3 690.871 1075.4 694.313 1053.48C697.706 1031.89 707.883 1041.97 712.406 1023.26C716.929 1004.55 704.52 977.196 712.406 964.242C722.045 948.409 732.854 965.105 741.807 936.893C751.449 906.513 737.625 875 765.554 875C792.693 875 791.563 912.424 802.868 923.939C820.637 942.036 832.864 921.06 845.303 936.893C857.742 952.727 848.517 973.988 852.626 982.954C860.542 1000.23 870.719 985.833 884.287 1008.86C894.486 1026.17 888.811 1043.56 884.288 1063.71Z" fill="url(#paint11_linear)"/>
<path d="M501.132 872.117C508.452 880.501 516.49 897.278 519.594 904.618L559.471 915.42C558.521 913.402 564.491 905.03 595.965 887.679C635.308 865.991 651.888 831.781 649.236 817.187C646.583 802.593 629.729 811.583 620.985 801.968C612.242 792.353 628.268 763.686 611.189 745.321C594.109 726.956 581.781 743.321 572.386 743.519C562.99 743.717 562.098 708.227 538.585 709.79C515.071 711.353 537.468 752.211 521.465 767.489C514.918 773.74 499.629 770.375 494.612 784.355C489.595 798.334 520.758 835.418 517.207 841.314C513.657 847.21 505.517 829.918 492.978 836.877C480.439 843.836 491.982 861.638 501.132 872.117Z" fill="url(#paint12_linear)"/>
<path d="M441.171 691.769C436.428 701.837 433.295 720.174 432.321 728.084L396.93 749.399C397.29 747.199 389.255 740.782 354.231 732.719C310.451 722.641 285.132 694.284 283.684 679.521C282.237 664.759 300.909 668.787 306.683 657.144C312.458 645.502 289.19 622.323 300.584 599.981C311.977 577.639 328.318 590 337.408 587.616C346.498 585.232 337.632 550.856 360.673 545.916C383.715 540.976 373.371 586.407 392.948 596.716C400.957 600.934 414.739 593.508 423.395 605.578C432.05 617.648 412.241 661.852 417.271 666.549C422.301 671.247 425.392 652.386 439.357 655.643C453.323 658.9 447.1 679.183 441.171 691.769Z" fill="url(#paint13_linear)"/>
<path d="M520.358 995.086C526.611 1006.47 541.959 1011.16 548.806 1018.61L573.043 1042.41C572.325 1039.87 587.395 1016.38 619.636 1004.44C659.937 989.508 672.88 961.449 665.526 945.656C658.28 930.095 652.54 939.939 645.031 926.8C637.523 913.66 657.651 907.026 648.764 898.973C637.903 889.132 658.607 849.596 625.553 840.503C601.371 833.852 609.572 862.055 587.909 868.186C566.858 874.144 585.356 847.151 558.793 839.607C539.387 834.097 541.651 870.203 535.387 884.892C529.123 899.58 498.976 895.769 497.706 903.442C495.258 918.225 514.236 933.29 508.635 953.662C504.424 968.975 512.542 980.86 520.358 995.086Z" fill="url(#paint14_linear)"/>
<path d="M741.349 1049.92C734.181 1056.77 725.701 1071 722.357 1077.27L686.112 1083.64C687.116 1081.93 682.494 1074.02 655.966 1056.1C622.806 1033.69 610.847 1002.01 614.374 989.279C617.9 976.545 632.13 985.875 640.659 978.048C649.189 970.221 637.276 943.501 653.904 928.581C670.533 913.662 680.154 929.171 688.473 930.102C696.793 931.033 700.437 899.619 721.171 902.896C741.906 906.173 718.752 940.62 731.721 955.461C737.026 961.532 750.861 959.776 754.188 972.582C757.515 985.387 726.888 1015.78 729.564 1021.3C732.239 1026.81 740.851 1012.13 751.416 1019.31C761.98 1026.49 750.309 1041.36 741.349 1049.92Z" fill="url(#paint15_linear)"/>
<path fill-rule="evenodd" clip-rule="evenodd" d="M562.432 637.716C561.269 634.079 559.516 627.092 559.606 619.421C559.716 609.94 562.069 605.748 564.295 606.012C566.437 606.265 567.937 612.489 567.019 620.236C566.4 625.461 564.538 632.885 563.356 637.243C566.639 635.572 569.8 634.037 572.898 632.534L572.898 632.534L572.9 632.532L572.902 632.532L572.905 632.53C573.493 632.245 574.079 631.96 574.663 631.676C578.008 628.307 583.979 623.174 591.385 619.963C601.254 615.684 606.817 616.983 607.705 620.191C608.559 623.276 602.901 628.264 594.407 630.614C588.939 632.127 580.81 633.008 575.624 633.433C575.01 633.732 574.394 634.031 573.776 634.331L573.775 634.331L573.775 634.331C569.649 636.334 565.42 638.387 560.946 640.742C565.408 641.565 572.775 643.073 577.689 644.748C585.073 647.265 590.039 651.305 589.343 653.346C588.62 655.468 583.823 655.78 575.223 651.786C568.229 648.539 562.661 643.909 559.898 641.297C554.593 644.123 548.937 647.392 542.701 651.514C546.419 652.197 552.017 653.352 555.823 654.649C561.908 656.723 565.983 660.109 565.391 661.845C564.776 663.65 560.807 663.954 553.726 660.637C548.308 658.099 543.945 654.513 541.562 652.272C535.585 656.277 529.074 661.071 521.837 666.999C521.811 667.162 521.785 667.318 521.76 667.467C521.715 667.375 521.669 667.278 521.621 667.177C520.573 668.037 519.51 668.921 518.431 669.829C522.821 670.111 530.424 670.746 535.526 671.856C542.992 673.481 548.268 676.892 547.812 678.987C547.337 681.167 542.699 682.034 533.888 679.093C526.632 676.671 520.648 672.68 517.71 670.438C515.652 672.181 513.537 674.014 511.36 675.944C505.383 681.244 499.965 686.811 495.077 692.437C499.235 691.378 505.475 690.238 512.184 690.436C522.239 690.733 526.641 693.308 526.319 695.665C526.01 697.932 519.411 698.679 511.211 697.559C505.837 696.825 498.262 695.323 493.611 694.145C487.291 701.596 481.894 709.114 477.354 716.225C483.568 715.777 494.116 715.785 501.416 716.371C512.187 717.236 520.345 720.653 520.036 724.494C519.716 728.49 513.322 731.282 500.447 728.445C489.995 726.143 481.04 720.803 476.483 717.601C474.433 720.866 472.566 724.038 470.876 727.068C466.565 734.795 463.403 741.598 461.284 746.691C460.224 749.237 459.426 751.353 458.876 752.94C458.315 754.556 458.033 755.563 457.973 755.926L456 755.597C456.092 755.044 456.431 753.886 456.986 752.285C457.551 750.655 458.364 748.501 459.437 745.922C461.584 740.764 464.778 733.892 469.129 726.094C470.19 724.192 471.32 722.235 472.52 720.234C468.907 715.975 462.799 707.576 459.556 697.42C455.546 684.86 457.736 678.237 461.685 677.55C465.482 676.889 469.636 684.697 471.489 695.343C472.669 702.116 473.604 711.786 473.819 718.098C478.625 710.295 484.482 701.901 491.481 693.568C491.434 693.554 491.388 693.54 491.343 693.526C491.42 693.5 491.5 693.474 491.583 693.446C493.188 691.539 494.853 689.635 496.578 687.742C495.239 683.765 493.388 676.793 493.253 669.126C493.075 659.067 495.439 654.549 497.809 654.759C500.088 654.962 501.146 661.518 500.414 669.762C499.98 674.648 499.002 681.363 498.112 686.08C501.812 682.119 505.782 678.217 510.033 674.448C513.786 671.12 517.359 668.078 520.773 665.286C519.123 661.399 516.786 654.694 516.05 647.187C515.068 637.175 517.063 632.482 519.442 632.502C521.729 632.521 524.032 638.911 523.962 647.187C523.92 652.215 523.02 659.242 522.3 664.046C529.382 658.329 535.77 653.696 541.646 649.814C540.483 646.148 538.765 639.223 538.854 631.628C538.965 622.147 541.317 617.955 543.544 618.219C545.685 618.472 547.185 624.696 546.268 632.443C545.664 637.541 543.876 644.733 542.692 649.128C549.931 644.406 556.393 640.816 562.432 637.716Z" fill="url(#paint16_linear)"/>
<path fill-rule="evenodd" clip-rule="evenodd" d="M573.794 696.999C573.952 694.193 574.558 689.216 576.484 684.243C578.947 677.881 581.588 675.649 583.022 676.387C584.401 677.098 583.844 681.67 581.275 686.659C579.607 689.897 576.65 694.217 574.742 696.89C577.286 696.604 579.723 696.374 582.111 696.148C582.86 696.078 583.604 696.007 584.346 695.936C587.517 694.559 592.437 692.888 597.763 692.614C605.492 692.216 608.914 694.493 608.704 696.879C608.502 699.173 603.432 701.109 597.116 700.553C593.322 700.219 588.105 698.93 584.498 697.93C583.769 698.001 583.038 698.07 582.303 698.139C579.127 698.439 575.875 698.746 572.404 699.182C575.224 700.884 579.53 703.605 582.29 705.866C586.631 709.422 588.96 713.396 587.977 714.596C586.955 715.844 583.644 714.846 578.855 709.988C575.096 706.175 572.556 701.831 571.301 699.324C567.072 699.882 562.506 700.643 557.354 701.819C559.674 703.219 562.93 705.285 565.06 707.029C568.638 709.96 570.531 713.268 569.695 714.289C568.825 715.351 566.074 714.555 562.138 710.536C559.246 707.583 557.252 704.224 556.177 702.092C550.425 703.453 543.944 705.331 536.407 708.005C539.333 709.329 544.019 711.563 547.047 713.512C551.669 716.488 554.365 720.115 553.53 721.413C552.661 722.762 549.317 722.178 544.12 717.976C539.99 714.637 537.026 710.611 535.552 708.31C533.71 708.972 531.805 709.68 529.833 710.44C524.615 712.45 519.691 714.764 515.09 717.246C518.136 717.61 522.395 718.423 526.636 720.152C533.337 722.886 535.655 725.73 534.844 727.237C534.065 728.686 529.429 727.528 524.186 724.707C520.851 722.914 516.303 720.11 513.443 718.15C507.341 721.552 501.836 725.231 497.002 728.856C501.329 730.156 508.196 732.74 512.846 734.917C519.887 738.213 524.523 742.571 523.348 745.082C522.125 747.694 517.113 747.964 509.151 742.809C502.836 738.721 498.214 733.038 495.893 729.696C493.698 731.374 491.648 733.035 489.752 734.645C484.909 738.759 481.072 742.539 478.368 745.43C477.015 746.876 475.948 748.096 475.181 749.022C474.395 749.972 473.967 750.562 473.848 750.768L472.115 749.769C472.33 749.396 472.865 748.684 473.641 747.747C474.437 746.786 475.531 745.535 476.907 744.064C479.66 741.121 483.552 737.287 488.457 733.121C489.676 732.086 490.957 731.029 492.3 729.961C490.943 726.113 489.047 719.076 489.411 711.6C489.872 702.126 493.017 698.214 495.852 698.746C498.577 699.257 499.409 705.565 497.976 713.206C497.097 717.892 495.388 724.333 493.972 728.65C500.372 723.699 508.047 718.564 516.81 714.084C516.934 711.03 517.47 706.042 519.247 701.022C521.661 694.199 524.393 691.75 525.937 692.488C527.421 693.199 526.483 697.884 523.913 703.255C522.464 706.281 520.268 710.298 518.519 713.225C521.899 711.557 525.434 709.992 529.114 708.574C532.514 707.264 535.718 706.104 538.748 705.075C538.636 702.011 538.785 697.06 540.137 691.981C541.998 684.986 544.524 682.326 546.122 682.939C547.659 683.528 547.601 688.415 545.469 693.974C544.224 697.221 541.98 701.512 540.302 704.554C546.438 702.521 551.85 701.03 556.74 699.908C556.905 697.088 557.518 692.162 559.424 687.241C561.887 680.879 564.529 678.647 565.963 679.386C567.342 680.096 566.785 684.668 564.215 689.657C562.594 692.804 559.756 696.973 557.846 699.659C563.816 698.335 569.005 697.559 573.794 696.999Z" fill="url(#paint17_linear)"/>
<path fill-rule="evenodd" clip-rule="evenodd" d="M102.945 505.8C101.299 503.523 98.6309 499.278 96.9897 494.204C94.8905 487.713 95.5331 484.315 97.1121 483.984C98.6303 483.666 101.081 487.566 102.232 493.059C102.979 496.624 103.408 501.841 103.612 505.119C105.407 503.292 107.153 501.578 108.864 499.897L108.864 499.897C109.401 499.369 109.934 498.845 110.465 498.323C112.058 495.254 114.823 490.855 118.785 487.284C124.533 482.102 128.624 481.712 129.966 483.697C131.255 485.604 128.541 490.303 123.288 493.854C120.133 495.987 115.271 498.276 111.841 499.775C111.319 500.289 110.796 500.803 110.269 501.32C107.993 503.556 105.662 505.845 103.243 508.371C106.505 507.915 111.563 507.312 115.13 507.326C120.742 507.349 125.055 508.965 125.049 510.516C125.042 512.129 121.843 513.442 115.063 512.692C109.741 512.102 105.031 510.331 102.476 509.177C99.5455 512.276 96.4815 515.746 93.2237 519.908C95.9075 519.531 99.7371 519.082 102.49 519.093C107.116 519.112 110.67 520.486 110.665 521.806C110.66 523.178 108.023 524.295 102.434 523.657C98.3267 523.188 94.6612 521.838 92.4825 520.862C88.8755 525.545 85.0298 531.089 80.8658 537.917C83.9716 537.099 89.0173 535.878 92.5966 535.482C98.06 534.878 102.44 535.993 102.609 537.527C102.786 539.122 99.8219 540.777 93.1391 540.793C87.828 540.805 82.9889 539.549 80.3949 538.692C79.3819 540.367 78.3501 542.119 77.2984 543.952C74.5159 548.802 72.1525 553.702 70.1469 558.53C72.7406 556.892 76.5586 554.837 80.9404 553.506C87.8656 551.402 91.4578 552.148 91.7789 553.829C92.0876 555.446 87.7592 557.469 81.9107 558.586C78.1917 559.296 72.8936 559.988 69.438 560.27C66.8469 566.757 64.8936 573.084 63.4273 578.946C67.6055 577.227 74.5644 574.903 79.5463 573.661C87.0896 571.78 93.436 572.239 94.1068 574.929C94.8046 577.727 91.0852 581.097 81.6547 582.116C74.1753 582.925 67.0047 581.427 63.0959 580.297C62.4499 582.984 61.9062 585.565 61.4499 588.011C60.2845 594.257 59.6904 599.611 59.4139 603.56C59.2757 605.534 59.2171 607.155 59.2058 608.357C59.1943 609.589 59.2337 610.318 59.2714 610.553L57.2967 610.87C57.2285 610.445 57.1945 609.555 57.2059 608.338C57.2176 607.091 57.2781 605.43 57.4188 603.42C57.7002 599.4 58.3034 593.971 59.4838 587.644C59.7771 586.072 60.1061 584.444 60.4748 582.768C56.9945 580.637 51.0862 576.371 46.6551 570.339C41.0397 562.694 41.0145 557.675 43.5497 556.3C45.9873 554.979 50.6107 559.35 54.3161 566.185C56.5882 570.376 59.323 576.453 60.9454 580.697C62.792 572.818 65.5113 563.994 69.4876 554.991C67.6584 552.542 64.9301 548.333 63.1435 543.316C60.7155 536.498 61.2913 532.874 62.9555 532.474C64.5556 532.09 66.781 536.318 68.1726 542.107C68.9567 545.37 69.785 549.872 70.2725 553.247C71.8444 549.821 73.6011 546.377 75.5636 542.957C77.3769 539.796 79.1325 536.876 80.8358 534.166C78.8164 531.859 75.8109 527.922 73.657 523.127C70.6912 516.525 70.9752 512.867 72.6021 512.335C74.1663 511.824 77.2024 515.653 79.0527 521.312C80.1333 524.617 81.0973 529.363 81.713 532.782C85.1937 527.335 88.4547 522.765 91.5423 518.812C89.8925 516.518 87.2628 512.309 85.6388 507.287C83.5396 500.796 84.1822 497.398 85.7612 497.067C87.2794 496.749 89.7299 500.649 90.881 506.142C91.6071 509.607 92.0328 514.632 92.2434 517.921C96.043 513.129 99.5809 509.255 102.945 505.8Z" fill="url(#paint18_linear)"/>
<path fill-rule="evenodd" clip-rule="evenodd" d="M149.691 534.455C149.091 530.85 148.402 524.04 149.531 516.841C150.931 507.904 153.725 504.267 155.792 504.821C157.779 505.353 158.345 511.434 156.419 518.623C155.127 523.449 152.374 530.163 150.661 534.124C153.975 533 157.157 531.987 160.275 530.995C160.914 530.792 161.55 530.589 162.184 530.387C165.822 527.664 172.108 523.696 179.463 521.696C189.366 519.005 194.442 520.992 194.841 524.143C195.226 527.172 189.202 531.108 180.86 532.167C175.536 532.842 167.827 532.573 162.866 532.268C162.208 532.478 161.548 532.689 160.886 532.899L160.886 532.899C156.733 534.221 152.477 535.576 147.952 537.179C152.059 538.57 158.757 540.986 163.143 543.226C169.771 546.612 173.908 551.106 172.972 552.938C171.999 554.843 167.427 554.482 159.853 549.535C153.72 545.53 149.109 540.426 146.846 537.575C141.46 539.514 135.684 541.822 129.245 544.853C132.662 546.009 137.748 547.852 141.143 549.586C146.606 552.377 149.99 556.13 149.194 557.689C148.366 559.309 144.577 559.053 138.345 554.953C133.6 551.832 129.983 547.874 128.032 545.429C121.828 548.4 115.009 552.045 107.345 556.668C107.305 556.795 107.266 556.916 107.229 557.033C107.204 556.954 107.178 556.871 107.151 556.785C106.061 557.444 104.953 558.123 103.828 558.822C107.944 559.692 114.986 561.323 119.627 563.059C126.454 565.614 130.97 569.555 130.252 571.472C129.507 573.465 125.009 573.65 117.091 569.668C110.6 566.404 105.511 561.844 103.032 559.318C100.848 560.684 98.5975 562.127 96.2758 563.654C89.9291 567.828 84.0704 572.326 78.7013 576.954C82.7709 576.528 88.7806 576.315 95.0469 577.412C104.501 579.067 108.305 582.1 107.679 584.281C107.077 586.379 100.744 586.183 93.1546 584.005C88.1995 582.582 81.2859 580.141 77.0505 578.395C70.0697 584.56 63.9491 590.916 58.6923 597.005C64.6278 597.437 74.5439 598.882 81.3349 600.428C91.3872 602.717 98.6226 607.058 97.8063 610.643C96.9573 614.372 90.539 616.134 78.7693 611.696C69.2434 608.104 61.5347 601.864 57.6581 598.213C55.2777 601.014 53.0825 603.752 51.0727 606.381C45.9471 613.087 42.0333 619.076 39.3368 623.594C37.9884 625.853 36.9462 627.741 36.21 629.163C35.4599 630.613 35.0578 631.522 34.9524 631.852L33.0471 631.244C33.211 630.73 33.6906 629.68 34.4338 628.244C35.1908 626.781 36.2531 624.858 37.6195 622.569C40.3524 617.99 44.3086 611.937 49.4838 605.167C50.7486 603.512 52.0865 601.815 53.4975 600.085C50.6655 595.558 46.0693 586.814 44.4007 576.812C42.3308 564.405 45.3048 558.451 49.1275 558.341C52.8031 558.236 55.6578 566.177 55.9525 576.482C56.1391 583.008 55.7054 592.212 55.0504 598.204C60.6433 591.511 67.3028 584.408 75.0258 577.518L74.9465 577.481C74.9958 577.472 75.0463 577.463 75.0979 577.453C76.898 575.849 78.7558 574.256 80.6712 572.683C79.9523 568.737 79.1688 561.928 80.0851 554.703C81.2925 545.181 84.1424 541.238 86.3511 541.761C88.4748 542.263 88.5778 548.598 86.7597 556.282C85.6887 560.808 83.8643 566.965 82.3834 571.294C86.403 568.075 90.6676 564.948 95.1769 561.983C99.1801 559.35 102.974 556.964 106.583 554.793C105.558 550.891 104.279 544.264 104.609 537.104C105.051 527.516 107.576 523.357 109.82 523.702C111.977 524.033 113.278 530.381 112.081 538.185C111.356 542.904 109.561 549.375 108.226 553.811C115.683 549.39 122.339 545.895 128.41 543.036C127.815 539.404 127.151 532.658 128.268 525.53C129.669 516.593 132.463 512.956 134.529 513.51C136.516 514.042 137.082 520.124 135.157 527.313C133.896 532.019 131.247 538.522 129.527 542.515C136.993 539.055 143.575 536.554 149.691 534.455Z" fill="url(#paint19_linear)" fill-opacity="0.4"/>
<path fill-rule="evenodd" clip-rule="evenodd" d="M379.501 574.878C381.953 573.507 386.162 570.781 389.788 566.87C394.427 561.868 395.276 558.516 393.984 557.551C392.741 556.622 388.875 559.127 385.517 563.623C383.337 566.541 380.75 571.092 379.183 573.979C378.326 571.566 377.465 569.275 376.621 567.03L376.621 567.03C376.356 566.325 376.093 565.626 375.832 564.928C375.68 561.474 375.027 556.319 372.939 551.411C369.909 544.29 366.363 542.212 364.31 543.447C362.337 544.633 362.818 550.039 366.086 555.472C368.049 558.736 371.493 562.861 373.973 565.665C374.229 566.351 374.487 567.038 374.747 567.729C375.869 570.716 377.018 573.773 378.148 577.084C375.382 575.295 371.049 572.617 367.808 571.127C362.709 568.783 358.116 568.431 357.468 569.841C356.794 571.307 359.143 573.845 365.608 576.022C370.682 577.729 375.7 578.108 378.504 578.138C379.855 582.183 381.172 586.621 382.373 591.768C380.098 590.296 376.814 588.275 374.313 587.125C370.11 585.193 366.307 584.941 365.756 586.14C365.183 587.387 367.103 589.511 372.441 591.287C376.363 592.593 380.256 592.913 382.643 592.946C383.941 598.712 385.093 605.361 385.992 613.308C383.52 611.257 379.458 608.024 376.379 606.157C371.679 603.306 367.237 602.473 366.437 603.792C365.605 605.164 367.595 607.914 373.649 610.744C378.461 612.993 383.379 613.893 386.092 614.209C386.305 616.155 386.503 618.178 386.684 620.284C387.164 625.855 387.242 631.295 387.027 636.518C385.365 633.939 382.768 630.467 379.355 627.414C373.962 622.588 370.389 621.751 369.39 623.14C368.429 624.476 371.501 628.135 376.335 631.612C379.408 633.823 383.921 636.683 386.937 638.395C386.553 645.37 385.659 651.931 384.518 657.865C381.454 654.545 376.122 649.505 372.127 646.279C366.079 641.395 360.13 639.137 358.388 641.294C356.576 643.538 358.529 648.161 366.652 653.059C373.095 656.944 380.228 658.608 384.25 659.229C383.703 661.938 383.109 664.508 382.492 666.919C380.917 673.075 379.2 678.18 377.787 681.878C377.08 683.727 376.45 685.221 375.954 686.316C375.445 687.438 375.102 688.082 374.969 688.279L376.626 689.399C376.867 689.043 377.273 688.25 377.776 687.141C378.291 686.005 378.936 684.473 379.655 682.592C381.093 678.827 382.834 673.649 384.429 667.414C384.826 665.865 385.213 664.25 385.585 662.575C389.639 662.109 396.795 660.729 403.356 657.126C411.669 652.559 413.807 648.018 412.087 645.703C410.433 643.478 404.398 645.494 398.158 650.131C394.332 652.974 389.291 657.333 386.031 660.498C387.676 652.575 388.929 643.426 389.116 633.586C391.807 632.136 396.055 629.469 399.789 625.672C404.864 620.511 405.868 616.983 404.528 615.919C403.239 614.896 399.439 617.792 395.737 622.456C393.652 625.085 391.004 628.818 389.139 631.674C389.157 627.905 389.015 624.041 388.677 620.112C388.364 616.482 388.002 613.094 387.599 609.919C390.403 608.677 394.788 606.373 398.761 602.932C404.233 598.195 405.517 594.758 404.265 593.59C403.062 592.467 398.695 594.66 394.633 599.013C392.26 601.555 389.386 605.453 387.387 608.294C386.526 601.887 385.494 596.369 384.36 591.483C386.822 590.098 390.981 587.388 394.569 583.519C399.208 578.516 400.057 575.164 398.765 574.199C397.522 573.271 393.656 575.775 390.298 580.271C388.18 583.107 385.676 587.485 384.099 590.379C382.673 584.432 381.096 579.428 379.501 574.878Z" fill="url(#paint20_linear)"/>
<path fill-rule="evenodd" clip-rule="evenodd" d="M864.745 1022.99C866.412 1020.19 868.943 1016.51 873.971 1013.32C878.016 1010.75 882.42 1010.04 883.363 1012.6C885.202 1017.58 878.451 1019.65 871.699 1021.73C869.14 1022.52 867.908 1023.25 866.928 1023.89L866.931 1023.89C865.219 1025.11 863.497 1026.31 861.75 1027.53L861.749 1027.53L861.748 1027.53C858.825 1029.57 855.834 1031.65 852.704 1033.97C855.608 1034.07 859.558 1034.3 862.375 1034.79C867.308 1035.65 870.861 1037.72 870.624 1039.08C870.377 1040.5 867.367 1041.18 861.515 1039.5C857.282 1038.29 853.656 1036.28 851.489 1034.88C845.002 1039.76 837.897 1045.74 829.573 1054.44C832.546 1053.97 836.44 1053.45 839.314 1053.4C844.574 1053.3 848.651 1054.77 848.679 1056.27C848.708 1057.83 845.739 1059.17 839.368 1058.59C834.872 1058.18 830.818 1056.83 828.287 1055.8C826.836 1057.34 825.349 1058.96 823.822 1060.68L823.821 1060.79L823.777 1060.73C821.489 1063.3 819.112 1066.08 816.635 1069.08C812.543 1074.05 808.923 1079.16 805.726 1084.25C808.952 1082.89 813.72 1081.25 819.006 1080.58C827.172 1079.54 831.058 1081.06 831.098 1083C831.137 1084.87 825.898 1086.32 819.127 1086.46C814.766 1086.55 808.59 1086.31 804.668 1085.96C799.154 1095 794.964 1103.93 791.835 1111.88C795.109 1109.42 799.558 1107.2 803.545 1105.78C810.567 1103.28 818.634 1103.27 819.524 1105.77C820.35 1108.1 817.108 1108.76 810.081 1110.18L810.08 1110.18C809.229 1110.36 808.322 1110.54 807.361 1110.74C804.087 1111.42 801.247 1112.06 798.702 1112.64C795.784 1113.3 793.253 1113.87 790.9 1114.31C790.749 1114.71 790.6 1115.11 790.454 1115.51C787.956 1122.3 786.27 1128.19 785.207 1132.57C784.675 1134.76 784.301 1136.57 784.059 1137.92C783.811 1139.3 783.714 1140.14 783.712 1140.42L781.712 1140.4C781.716 1139.92 781.845 1138.93 782.09 1137.57C782.34 1136.17 782.723 1134.33 783.263 1132.1C784.343 1127.65 786.051 1121.68 788.577 1114.82C789.202 1113.12 789.877 1111.37 790.605 1109.57C788.237 1107.38 786.175 1104.41 782.438 1096.97C780.929 1093.97 779.557 1091.69 778.471 1089.89C776.072 1085.91 775.068 1084.25 777.068 1082.15C779.24 1079.86 786.18 1085.54 789.034 1093.91C790.695 1098.78 791.215 1103.3 791.612 1107.13C795.162 1098.72 799.851 1089.44 805.953 1080.2C804.365 1077.13 802.054 1071.82 800.99 1065.76C799.565 1057.66 800.9 1053.7 802.843 1053.57C804.71 1053.44 806.401 1058.61 806.859 1065.36C807.123 1069.26 807.192 1074.61 807.087 1078.51C809.532 1074.91 812.195 1071.33 815.091 1067.81C817.715 1064.63 820.229 1061.7 822.645 1058.99C820.818 1056.04 818.145 1050.99 816.622 1045.13C814.553 1037.16 815.568 1033.11 817.493 1032.82C819.345 1032.55 822.02 1037.42 823.018 1044.12C823.61 1048.1 823.784 1053.72 823.819 1057.69C830.147 1050.7 835.797 1045.27 840.981 1040.78C839.57 1037.84 837.543 1032.78 836.708 1027.05C835.59 1019.37 836.957 1015.68 838.791 1015.61C840.554 1015.55 842.559 1020.39 842.804 1026.76C842.953 1030.63 842.516 1036.06 842.135 1039.79C848.914 1034.03 854.903 1029.86 860.601 1025.89C861.997 1024.92 863.376 1023.96 864.745 1022.99Z" fill="url(#paint21_linear)"/>
<path fill-rule="evenodd" clip-rule="evenodd" d="M826.799 960.513C827.68 957.379 829.162 953.163 833.183 948.771C836.418 945.237 840.483 943.4 842.061 945.621C845.136 949.95 839.16 953.715 833.184 957.48C830.918 958.907 829.919 959.936 829.14 960.808L829.145 960.812C827.811 962.438 826.461 964.045 825.092 965.675L825.091 965.677L825.091 965.677C822.8 968.404 820.456 971.196 818.04 974.252C820.87 973.594 824.744 972.787 827.591 972.525C832.577 972.066 836.546 973.133 836.673 974.511C836.805 975.945 834.076 977.384 827.989 977.296C823.588 977.232 819.561 976.233 817.104 975.445C812.116 981.852 806.817 989.478 801.052 1000.05C803.799 998.821 807.423 997.305 810.183 996.504C815.236 995.037 819.556 995.393 819.974 996.834C820.409 998.333 817.892 1000.4 811.59 1001.5C807.142 1002.28 802.878 1002.04 800.164 1001.69C799.166 1003.56 798.154 1005.52 797.127 1007.57L797.156 1007.68L797.097 1007.63C795.56 1010.71 793.989 1014.01 792.382 1017.56C789.728 1023.42 787.566 1029.3 785.808 1035.05C788.567 1032.89 792.743 1030.07 797.67 1028.04C805.282 1024.9 809.43 1025.36 809.976 1027.23C810.502 1029.02 805.822 1031.78 799.322 1033.68C795.135 1034.91 789.111 1036.29 785.233 1036.98C782.269 1047.14 780.555 1056.86 779.609 1065.35C782.127 1062.12 785.841 1058.81 789.321 1056.4C795.448 1052.16 803.232 1050.04 804.744 1052.23C806.148 1054.25 803.19 1055.74 796.779 1058.95L796.778 1058.95C796.001 1059.34 795.174 1059.75 794.298 1060.2C791.316 1061.71 788.742 1063.07 786.435 1064.29C783.79 1065.69 781.496 1066.9 779.34 1067.94C779.299 1068.37 779.259 1068.79 779.222 1069.21C778.582 1076.42 778.492 1082.55 778.608 1087.05C778.667 1089.31 778.777 1091.15 778.895 1092.51C779.016 1093.91 779.141 1094.74 779.212 1095.02L777.277 1095.52C777.157 1095.06 777.022 1094.07 776.903 1092.69C776.78 1091.28 776.668 1089.39 776.609 1087.1C776.49 1082.53 776.582 1076.32 777.23 1069.04C777.39 1067.23 777.584 1065.36 777.818 1063.44C774.959 1061.94 772.196 1059.62 766.647 1053.41C764.406 1050.9 762.488 1049.06 760.969 1047.61C757.616 1044.39 756.212 1043.05 757.594 1040.49C759.094 1037.72 767.276 1041.4 772.215 1048.73C775.09 1053 776.769 1057.22 778.154 1060.82C779.387 1051.78 781.492 1041.6 784.972 1031.08C782.637 1028.53 779.02 1024.01 776.413 1018.44C772.922 1010.98 773.18 1006.82 775.02 1006.18C776.79 1005.58 779.769 1010.12 781.975 1016.52C783.245 1020.21 784.708 1025.36 785.624 1029.15C787.046 1025.04 788.682 1020.89 790.56 1016.74C792.262 1012.98 793.925 1009.49 795.552 1006.25C793.016 1003.88 789.12 999.704 786.119 994.438C782.043 987.286 781.966 983.114 783.75 982.335C785.465 981.585 789.319 985.59 792.03 991.796C793.64 995.483 795.276 1000.87 796.345 1004.69C800.631 996.294 804.666 989.571 808.5 983.887C806.371 981.415 803.093 977.06 800.793 971.747C797.71 964.627 798.068 960.71 799.82 960.163C801.504 959.638 804.702 963.787 806.603 969.88C807.756 973.575 808.751 978.933 809.356 982.63C814.397 975.3 819.091 969.711 823.556 964.395C824.65 963.092 825.731 961.805 826.799 960.513Z" fill="url(#paint22_linear)"/>
<path fill-rule="evenodd" clip-rule="evenodd" d="M454.951 580.909C455.891 577.791 457.455 573.605 461.56 569.291C464.863 565.821 468.962 564.062 470.496 566.312C473.487 570.701 467.44 574.35 461.393 577.999C459.1 579.382 458.082 580.391 457.286 581.248L457.291 581.252C455.925 582.853 454.545 584.433 453.145 586.037L453.144 586.038L453.143 586.039C450.801 588.721 448.403 591.467 445.929 594.476C448.771 593.873 452.659 593.14 455.511 592.933C460.506 592.57 464.453 593.714 464.553 595.094C464.657 596.53 461.901 597.916 455.818 597.711C451.418 597.563 447.412 596.486 444.97 595.651C439.859 601.96 434.414 609.483 428.447 619.942C431.217 618.767 434.87 617.32 437.645 616.572C442.725 615.203 447.037 615.642 447.428 617.091C447.834 618.598 445.277 620.616 438.955 621.596C434.493 622.287 430.234 621.964 427.527 621.569C426.494 623.417 425.444 625.354 424.378 627.388L424.405 627.497L424.347 627.447C422.75 630.497 421.116 633.766 419.442 637.283C416.676 643.094 414.4 648.926 412.532 654.64C415.332 652.537 419.562 649.795 424.527 647.86C432.198 644.872 436.336 645.406 436.846 647.284C437.337 649.091 432.605 651.762 426.069 653.537C421.86 654.681 415.81 655.944 411.92 656.556C408.76 666.662 406.86 676.344 405.75 684.817C408.33 681.636 412.108 678.4 415.633 676.058C421.841 671.935 429.664 669.967 431.134 672.181C432.498 674.235 429.513 675.659 423.04 678.747L423.04 678.747C422.256 679.121 421.421 679.52 420.536 679.946C417.525 681.399 414.926 682.71 412.596 683.885C409.924 685.233 407.607 686.401 405.432 687.4C405.382 687.827 405.335 688.251 405.289 688.671C404.51 695.862 404.302 701.989 404.332 706.497C404.347 708.75 404.422 710.596 404.514 711.963C404.608 713.361 404.716 714.195 404.783 714.47L402.838 714.938C402.727 714.475 402.611 713.48 402.518 712.097C402.423 710.685 402.348 708.799 402.332 706.51C402.302 701.932 402.513 695.728 403.301 688.456C403.496 686.657 403.726 684.792 403.997 682.869C401.167 681.317 398.449 678.942 393.021 672.627C390.829 670.077 388.946 668.202 387.456 666.718C384.165 663.441 382.788 662.07 384.218 659.543C385.772 656.798 393.882 660.63 398.678 668.058C401.47 672.382 403.068 676.635 404.383 680.263C405.79 671.244 408.091 661.105 411.772 650.659C409.487 648.061 405.958 643.471 403.458 637.853C400.112 630.332 400.45 626.173 402.302 625.575C404.083 624.999 406.975 629.6 409.056 636.045C410.255 639.756 411.619 644.932 412.462 648.743C413.963 644.659 415.678 640.537 417.636 636.424C419.41 632.697 421.14 629.247 422.829 626.038C420.339 623.613 416.524 619.366 413.625 614.043C409.687 606.814 409.691 602.641 411.49 601.897C413.219 601.181 416.995 605.259 419.586 611.516C421.125 615.233 422.657 620.651 423.651 624.488C428.099 616.179 432.262 609.535 436.205 603.925C434.124 601.413 430.931 596.995 428.733 591.639C425.788 584.461 426.221 580.552 427.983 580.039C429.677 579.546 432.795 583.756 434.578 589.885C435.66 593.601 436.552 598.977 437.085 602.685C442.266 595.454 447.067 589.956 451.634 584.727C452.753 583.445 453.858 582.18 454.951 580.909Z" fill="url(#paint23_linear)"/>
<path fill-rule="evenodd" clip-rule="evenodd" d="M622.919 902.577C622.754 897.985 622.283 891.44 617.92 883.704C614.645 877.899 609.714 874.131 606.878 876.645C601.35 881.546 608.266 888.527 615.182 895.508C618.059 898.412 619.019 900.185 619.838 901.698C620.338 902.621 620.786 903.447 621.584 904.374C622.356 905.906 623.136 907.439 623.923 908.985C626.238 913.536 628.611 918.198 630.998 923.276C627.336 921.465 622.009 918.973 618.033 917.657C611.419 915.468 605.705 915.666 605.1 917.494C604.47 919.396 607.717 922.204 615.993 923.998C622.216 925.346 628.207 925.197 631.743 924.875C633.919 929.58 636.103 934.656 638.263 940.331L638.173 940.56C638.219 940.53 638.266 940.499 638.315 940.467C640.884 947.23 643.419 954.844 645.865 963.694C642.48 961.112 637.76 957.683 634.09 955.627C627.703 952.051 621.736 951.175 620.716 952.997C619.655 954.892 622.417 958.484 630.613 961.958C636.612 964.5 642.689 965.497 646.454 965.853C647.172 968.525 647.881 971.307 648.582 974.209C648.458 974.443 648.342 974.664 648.233 974.871C648.375 974.799 648.526 974.721 648.685 974.638C649.81 979.328 650.911 984.329 651.98 989.685C653.481 997.197 654.492 1004.61 655.115 1011.82L655.064 1011.93L655.122 1011.9C655.242 1013.29 655.347 1014.68 655.439 1016.06C652.405 1012.23 647.466 1006.81 641.137 1002.3C631.806 995.658 626.042 994.969 624.714 997.33C623.437 999.6 628.912 1004.81 637.124 1009.43C642.556 1012.49 650.563 1016.38 655.586 1018.49C656.357 1032.49 655.724 1045.58 654.46 1056.99L654.409 1057.06L654.453 1057.05C654.372 1057.79 654.288 1058.52 654.201 1059.24C651.849 1053.88 647.674 1047.92 643.538 1043.37C636.567 1035.69 626.684 1030.37 623.946 1032.86C621.407 1035.17 624.95 1038.1 632.63 1044.47L632.634 1044.48C633.563 1045.25 634.553 1046.07 635.6 1046.94C639.167 1049.93 642.228 1052.58 644.971 1054.96L644.973 1054.96C648.262 1057.81 651.094 1060.27 653.796 1062.42C653.728 1062.94 653.658 1063.45 653.587 1063.96C652.188 1073.94 650.38 1082.29 648.802 1088.37C648.013 1091.41 647.282 1093.89 646.69 1095.71C646.088 1097.56 645.649 1098.68 645.448 1099.06L647.219 1099.99C647.51 1099.44 647.995 1098.16 648.592 1096.33C649.198 1094.46 649.94 1091.95 650.738 1088.87C652.334 1082.72 654.157 1074.3 655.567 1064.23C655.585 1064.11 655.603 1063.98 655.621 1063.85L655.733 1063.93L655.81 1063.99C655.77 1063.81 655.726 1063.62 655.679 1063.43C655.979 1061.23 656.259 1058.96 656.513 1056.62C660.99 1055.52 665.443 1053.31 675.21 1046.43C679.035 1043.74 682.213 1041.85 684.728 1040.36C690.283 1037.06 692.608 1035.67 691.538 1031.78C690.376 1027.55 678.132 1029.96 669.133 1038.34C663.629 1043.47 659.931 1048.95 656.829 1053.54L656.826 1053.54C657.815 1043.2 658.257 1031.62 657.632 1019.32L657.77 1019.37C657.823 1019.39 657.876 1019.41 657.927 1019.43C657.831 1019.29 657.726 1019.13 657.615 1018.97C657.472 1016.24 657.275 1013.47 657.021 1010.67C660.956 1008 667.513 1002.91 672.965 995.97C680.039 986.963 680.999 981.238 678.704 979.8C676.497 978.418 671.03 983.641 666.028 991.626C663.017 996.434 659.217 1003.34 656.787 1008.25C656.151 1002.05 655.223 995.707 653.942 989.294C652.826 983.711 651.678 978.509 650.502 973.642C654.661 971.267 661.467 966.762 667.354 960.391C675.126 951.979 676.541 946.348 674.368 944.731C672.279 943.177 665.797 947.393 660.172 954.952C656.713 959.602 652.643 966.715 649.996 971.575C649.523 969.666 649.045 967.81 648.564 966.004C648.663 966.008 648.757 966.012 648.848 966.015C648.735 965.926 648.616 965.831 648.492 965.733C645.756 955.5 642.902 946.866 640.008 939.295C643.645 936.671 649.664 931.7 654.597 925.025C661.014 916.344 661.76 910.923 659.558 909.631C657.44 908.39 651.801 913.007 647.309 920.669C644.485 925.486 641.329 932.779 639.356 937.608C634.787 925.925 630.134 916.782 625.708 908.082L625.707 908.082L625.705 908.078L625.705 908.077L625.704 908.075C624.765 906.229 623.835 904.403 622.919 902.577Z" fill="url(#paint24_linear)"/>
<path fill-rule="evenodd" clip-rule="evenodd" d="M700.297 946.29C700.789 943.072 701.179 938.62 699.329 932.96C697.84 928.406 694.896 925.055 692.543 926.426C687.955 929.101 691.844 934.997 695.734 940.892C697.208 943.128 697.693 944.476 698.043 945.592L698.037 945.594C698.581 947.626 699.147 949.647 699.721 951.697L699.722 951.698L699.722 951.699C700.683 955.128 701.666 958.638 702.605 962.419C700.299 960.652 697.104 958.318 694.618 956.904C690.266 954.428 686.211 953.762 685.526 954.965C684.815 956.217 686.707 958.654 692.287 961.086C696.322 962.844 700.402 963.596 702.966 963.893C704.865 971.787 706.544 980.921 707.432 992.929C705.437 990.676 702.761 987.799 700.578 985.93C696.581 982.509 692.499 981.05 691.523 982.19C690.508 983.376 691.949 986.297 697.234 989.901C700.965 992.445 704.948 993.986 707.562 994.794C707.7 996.906 707.814 999.106 707.901 1001.4L707.831 1001.49L707.904 1001.47C708.034 1004.91 708.103 1008.56 708.101 1012.46C708.098 1018.89 707.644 1025.14 706.872 1031.1C705.25 1028 702.61 1023.7 698.96 1019.82C693.321 1013.82 689.356 1012.52 688.087 1014C686.867 1015.42 689.99 1019.87 695.126 1024.28C698.434 1027.12 703.352 1030.87 706.601 1033.09C705.105 1043.57 702.656 1053.13 700.013 1061.26C699.052 1057.28 697.034 1052.73 694.859 1049.1C691.029 1042.71 684.814 1037.56 682.533 1038.93C680.418 1040.2 682.501 1042.77 687.015 1048.34L687.016 1048.34C687.563 1049.02 688.145 1049.73 688.76 1050.5C690.853 1053.11 692.636 1055.41 694.234 1057.47C696.066 1059.84 697.655 1061.89 699.189 1063.73C699.05 1064.13 698.91 1064.54 698.771 1064.94C696.38 1071.76 693.932 1077.38 691.966 1081.44C690.983 1083.47 690.122 1085.1 689.451 1086.3C688.765 1087.52 688.308 1088.22 688.13 1088.44L689.684 1089.7C689.983 1089.33 690.516 1088.48 691.194 1087.28C691.888 1086.04 692.768 1084.37 693.766 1082.31C695.763 1078.19 698.241 1072.5 700.658 1065.6C701.256 1063.89 701.851 1062.11 702.434 1060.25C705.656 1060.07 709.131 1059.09 716.748 1055.73C719.824 1054.37 722.33 1053.49 724.313 1052.79C728.694 1051.25 730.527 1050.6 730.323 1047.7C730.101 1044.56 721.132 1044.53 713.606 1049.17C709.226 1051.87 705.954 1055.03 703.206 1057.74C705.815 1048.99 708.1 1038.85 709.271 1027.83C712.451 1026.47 717.611 1023.84 722.285 1019.85C728.541 1014.5 730.026 1010.6 728.611 1009.26C727.25 1007.98 722.661 1010.89 718.009 1015.81C715.33 1018.64 711.873 1022.73 709.472 1025.81C709.874 1021.47 710.099 1017.01 710.101 1012.46C710.103 1008.33 710.026 1004.47 709.881 1000.85C713.172 999.731 718.443 997.538 723.35 993.98C730.014 989.148 731.806 985.38 730.503 983.934C729.249 982.543 724.086 984.6 719.056 989.134C716.068 991.828 712.354 996.06 709.805 999.096C709.365 989.682 708.464 981.893 707.318 975.133C710.278 973.76 715.061 971.146 719.349 967.256C725.096 962.043 726.386 958.327 725.016 957.107C723.699 955.933 719.073 958.392 714.827 963.157C712.252 966.047 709.134 970.517 707.057 973.634C705.491 964.878 703.522 957.85 701.649 951.164C701.19 949.526 700.737 947.908 700.297 946.29Z" fill="url(#paint25_linear)"/>
</g>
<defs>
<filter id="filter0_i" x="0" y="-28" width="921" height="1148" filterUnits="userSpaceOnUse" color-interpolation-filters="sRGB">
<feFlood flood-opacity="0" result="BackgroundImageFix"/>
<feBlend mode="normal" in="SourceGraphic" in2="BackgroundImageFix" result="shape"/>
<feColorMatrix in="SourceAlpha" type="matrix" values="0 0 0 0 0 0 0 0 0 0 0 0 0 0 0 0 0 0 127 0" result="hardAlpha"/>
<feOffset dx="2" dy="6"/>
<feGaussianBlur stdDeviation="12"/>
<feComposite in2="hardAlpha" operator="arithmetic" k2="-1" k3="1"/>
<feColorMatrix type="matrix" values="0 0 0 0 0 0 0 0 0 0 0 0 0 0 0 0 0 0 0.7 0"/>
<feBlend mode="normal" in2="shape" result="effect1_innerShadow"/>
</filter>
<linearGradient id="paint0_linear" x1="-406.638" y1="686.279" x2="1041.62" y2="-48.8056" gradientUnits="userSpaceOnUse">
<stop offset="0.015625" stop-color="#0ACAC0"/>
<stop offset="0.630208" stop-color="#1D0F5C"/>
<stop offset="0.994792" stop-color="#160F30"/>
</linearGradient>
<linearGradient id="paint1_linear" x1="-406.638" y1="686.279" x2="1041.62" y2="-48.8056" gradientUnits="userSpaceOnUse">
<stop offset="0.015625" stop-color="#0ACAC0"/>
<stop offset="0.630208" stop-color="#1D0F5C"/>
<stop offset="0.994792" stop-color="#160F30"/>
</linearGradient>
<linearGradient id="paint2_linear" x1="387.584" y1="443.593" x2="275.407" y2="788.684" gradientUnits="userSpaceOnUse">
<stop stop-color="#1A2F6E" stop-opacity="0"/>
<stop offset="0.449893" stop-color="#1D1962"/>
</linearGradient>
<linearGradient id="paint3_linear" x1="277.053" y1="391.322" x2="263.297" y2="753.927" gradientUnits="userSpaceOnUse">
<stop stop-color="#1A2F6E" stop-opacity="0"/>
<stop offset="0.449893" stop-color="#1D1962"/>
</linearGradient>
<linearGradient id="paint4_linear" x1="769.693" y1="996.604" x2="639.477" y2="791.547" gradientUnits="userSpaceOnUse">
<stop stop-color="#11004E"/>
<stop offset="1" stop-color="#11004E" stop-opacity="0"/>
</linearGradient>
<linearGradient id="paint5_linear" x1="785.177" y1="915.694" x2="743.475" y2="756.639" gradientUnits="userSpaceOnUse">
<stop stop-color="#11004E"/>
<stop offset="1" stop-color="#11004E" stop-opacity="0"/>
</linearGradient>
<linearGradient id="paint6_linear" x1="178.225" y1="455.87" x2="231.964" y2="600.243" gradientUnits="userSpaceOnUse">
<stop stop-color="#1A2F6E" stop-opacity="0"/>
<stop offset="0.449893" stop-color="#1D1962"/>
</linearGradient>
<linearGradient id="paint7_linear" x1="133.461" y1="493.033" x2="195.28" y2="693.371" gradientUnits="userSpaceOnUse">
<stop stop-color="#1A2F6E" stop-opacity="0"/>
<stop offset="0.449893" stop-color="#1D1962"/>
</linearGradient>
<linearGradient id="paint8_linear" x1="536" y1="626" x2="453.5" y2="700.5" gradientUnits="userSpaceOnUse">
<stop stop-color="#1A2F6E"/>
<stop offset="1" stop-color="#091956"/>
</linearGradient>
<linearGradient id="paint9_linear" x1="789.091" y1="755.147" x2="904.075" y2="840.804" gradientUnits="userSpaceOnUse">
<stop stop-color="#1E0F5D"/>
<stop offset="1" stop-color="#394C95"/>
</linearGradient>
<linearGradient id="paint10_linear" x1="845.369" y1="988.889" x2="852.836" y2="840.984" gradientUnits="userSpaceOnUse">
<stop stop-color="#11004E"/>
<stop offset="1" stop-color="#11004E" stop-opacity="0"/>
</linearGradient>
<linearGradient id="paint11_linear" x1="737.5" y1="811.935" x2="889.109" y2="1050.5" gradientUnits="userSpaceOnUse">
<stop stop-color="#796BB7"/>
<stop offset="1" stop-color="#18487B"/>
</linearGradient>
<linearGradient id="paint12_linear" x1="506" y1="850" x2="664" y2="734.5" gradientUnits="userSpaceOnUse">
<stop stop-color="#3E4880"/>
<stop offset="1" stop-color="#1C0F54"/>
</linearGradient>
<linearGradient id="paint13_linear" x1="430.429" y1="671.832" x2="246.829" y2="604.044" gradientUnits="userSpaceOnUse">
<stop stop-color="#3E4880"/>
<stop offset="1" stop-color="#1C0F54"/>
</linearGradient>
<linearGradient id="paint14_linear" x1="580.396" y1="772.71" x2="518.985" y2="987.649" gradientUnits="userSpaceOnUse">
<stop stop-color="#796BB7"/>
<stop offset="1" stop-color="#18487B"/>
</linearGradient>
<linearGradient id="paint15_linear" x1="639.5" y1="954" x2="739.5" y2="904" gradientUnits="userSpaceOnUse">
<stop offset="0.00398809" stop-color="#184479"/>
<stop offset="1" stop-color="#483381"/>
</linearGradient>
<linearGradient id="paint16_linear" x1="456" y1="714.5" x2="627" y2="623.5" gradientUnits="userSpaceOnUse">
<stop stop-color="#270035"/>
<stop offset="1" stop-color="#150064" stop-opacity="0"/>
</linearGradient>
<linearGradient id="paint17_linear" x1="506.911" y1="718.71" x2="616.449" y2="693.375" gradientUnits="userSpaceOnUse">
<stop stop-color="#11004E"/>
<stop offset="1" stop-color="#11004E" stop-opacity="0"/>
</linearGradient>
<linearGradient id="paint18_linear" x1="64.7208" y1="564.823" x2="133.768" y2="476.094" gradientUnits="userSpaceOnUse">
<stop stop-color="#11004E"/>
<stop offset="1" stop-color="#11004E" stop-opacity="0"/>
</linearGradient>
<linearGradient id="paint19_linear" x1="69.34" y1="581.101" x2="203.982" y2="517.645" gradientUnits="userSpaceOnUse">
<stop stop-color="#11004E"/>
<stop offset="1" stop-color="#11004E" stop-opacity="0"/>
</linearGradient>
<linearGradient id="paint20_linear" x1="389.296" y1="644.511" x2="364.066" y2="534.949" gradientUnits="userSpaceOnUse">
<stop stop-color="#11004E"/>
<stop offset="1" stop-color="#11004E" stop-opacity="0"/>
</linearGradient>
<linearGradient id="paint21_linear" x1="837.33" y1="1011.19" x2="822.83" y2="1106.69" gradientUnits="userSpaceOnUse">
<stop stop-color="#150064" stop-opacity="0"/>
<stop offset="1" stop-color="#150064"/>
</linearGradient>
<linearGradient id="paint22_linear" x1="797.256" y1="956.276" x2="808.175" y2="1052.25" gradientUnits="userSpaceOnUse">
<stop stop-color="#150064" stop-opacity="0"/>
<stop offset="1" stop-color="#150064"/>
</linearGradient>
<linearGradient id="paint23_linear" x1="489.463" y1="565.057" x2="416.138" y2="633.158" gradientUnits="userSpaceOnUse">
<stop offset="0.0715084" stop-color="#B3A1F3" stop-opacity="0"/>
<stop offset="1" stop-color="#372577"/>
</linearGradient>
<linearGradient id="paint24_linear" x1="694" y1="833" x2="640" y2="1075" gradientUnits="userSpaceOnUse">
<stop stop-color="#B00095" stop-opacity="0.56"/>
<stop offset="1" stop-color="#150064"/>
</linearGradient>
<linearGradient id="paint25_linear" x1="728.956" y1="954.624" x2="679.398" y2="1037.54" gradientUnits="userSpaceOnUse">
<stop stop-color="#150064" stop-opacity="0"/>
<stop offset="1" stop-color="#150064"/>
</linearGradient>
</defs>
</svg>
