<svg width="1920" height="320" viewBox="0 0 1920 320" fill="none" xmlns="http://www.w3.org/2000/svg">
<g opacity="0.7">
<mask id="mask0" mask-type="alpha" maskUnits="userSpaceOnUse" x="0" y="0" width="1920" height="320">
<rect width="1920" height="320" fill="url(#paint0_linear)"/>
</mask>
<g mask="url(#mask0)">
<ellipse rx="407.63" ry="407.747" transform="matrix(-0.880692 -0.473689 -0.473306 0.880898 1659.41 397.273)" fill="#146C8E" fill-opacity="0.1"/>
<path d="M1354.88 324.091C1362.75 337.106 1371.1 361.517 1374.3 372.096L1418.45 396.387C1417.47 393.456 1424.45 383.739 1460.26 368.323C1505.02 349.052 1524.82 307.421 1522.4 287.258C1519.98 267.095 1500.81 274.947 1491.4 259.935C1481.99 244.923 1500.96 210.563 1482.56 181.795C1464.16 153.027 1449.77 171.856 1439.27 169.8C1428.76 167.743 1429.09 120.083 1402.76 116.363C1376.43 112.642 1399.93 172.791 1381.48 189.259C1373.94 195.997 1356.98 187.722 1350.85 205.169C1344.73 222.616 1378.17 279.885 1373.98 286.889C1369.8 293.893 1361.35 268.768 1347.08 274.971C1332.81 281.175 1345.05 307.823 1354.88 324.091Z" fill="url(#paint1_linear)"/>
<path d="M363.873 353.421C351.856 374.122 330.345 383.132 318.906 396.796L279.306 440.491C281.109 435.902 269.641 394.224 231.944 373.953C184.822 348.613 177.682 298.637 192.644 269.961C207.386 241.704 211.446 259.192 225.695 235.282C239.944 211.372 243.077 169.469 257.365 154.655C274.829 136.549 275.923 163.312 299.391 128.045C324.663 90.0665 328.715 41.9563 354.695 52.1719C379.941 62.0988 358.806 112.814 363.143 132.68C369.961 163.905 392.591 139.719 395.665 165.901C398.739 192.082 378.748 217.756 377.759 231.507C375.853 258.001 393.044 242.058 393.307 278.485C393.504 305.867 378.895 327.544 363.873 353.421Z" fill="url(#paint2_linear)"/>
<ellipse rx="329.738" ry="329.833" transform="matrix(-0.880692 -0.473689 -0.473306 0.880898 82.4128 350.743)" fill="#0E044D" fill-opacity="0.4"/>
<ellipse rx="384.484" ry="384.594" transform="matrix(-0.880692 -0.473689 -0.473306 0.880898 1721.02 436.913)" fill="#DB46C4" fill-opacity="0.1"/>
<path d="M1709.1 401.711C1721.96 411.534 1738.83 410.849 1749.75 416.264L1786.76 432.661C1784.51 430.221 1783.3 399.58 1804.95 374.89C1832.01 344.028 1825.98 309.299 1809.32 295.179C1792.91 281.265 1793.94 293.893 1778.83 282.66C1763.71 271.427 1777.75 256.889 1764.6 251.593C1748.54 245.12 1742.27 195.273 1706.58 197.825C1680.46 199.692 1705.74 226.737 1689.99 241.307C1674.7 255.465 1674.37 219.814 1645.54 221.613C1624.47 222.927 1649.37 260.604 1652.99 278.594C1656.61 296.584 1626.89 303.692 1630.59 312.348C1637.73 329.024 1664.45 338.061 1672.27 361.868C1678.14 379.764 1693.02 389.433 1709.1 401.711Z" fill="url(#paint3_linear)"/>
<path d="M89.287 396.501C103.977 405.278 122.105 402.143 134.329 406.438L175.596 418.884C172.961 416.57 169.091 383.666 190.36 353.941C216.947 316.785 207.541 280.154 188.407 267.276C169.553 254.586 171.719 268.071 154.486 258.092C137.253 248.112 151.165 230.427 136.553 226.576C118.693 221.87 107.772 168.951 69.5083 176.773C41.5153 182.496 71.0224 208.102 55.2707 226.064C39.9642 243.519 36.6317 205.082 5.6997 211.117C-16.8981 215.526 13.0923 252.662 18.5 271.567C23.9077 290.473 -7.53428 302.365 -2.81691 311.183C6.27125 328.171 35.8335 334.131 46.2514 358.72C54.0825 377.204 70.9245 385.53 89.287 396.501Z" fill="url(#paint4_linear)"/>
<ellipse rx="311.015" ry="311.104" transform="matrix(-0.880692 -0.473689 -0.473306 0.880898 57.3457 421.375)" fill="#EE71DB" fill-opacity="0.2"/>
<path fill-rule="evenodd" clip-rule="evenodd" d="M70.9573 166.217C73.9204 161.242 79.2166 150.929 81.7712 138.839C84.8292 124.366 82.6763 117.183 79.1981 116.827C75.8537 116.484 71.453 125.448 70.2131 137.555C69.346 146.02 69.708 158.538 70.0338 165.449C65.4723 161.667 61.0581 158.154 56.7342 154.713C56.3396 154.399 55.9458 154.086 55.5527 153.773C51.8767 147.657 44.2021 136.834 33.2296 128.843C19.6688 118.968 10.7611 119.052 8.31847 123.634C5.96983 128.04 12.882 137.561 25.0072 144.031C33.3246 148.469 46.4855 152.843 54.0964 155.17C54.5585 155.538 55.0215 155.906 55.4854 156.275C61.2526 160.865 67.1713 165.575 73.3804 170.877C66.4445 170.597 54.0375 170.324 45.6362 171.24C33.5443 172.557 24.6127 177.018 24.9767 180.361C25.3553 183.839 32.5477 185.947 46.9935 182.795C59.1434 180.144 69.4744 174.724 74.3882 171.74C81.585 177.928 89.1779 184.936 97.3801 193.484C91.5242 193.244 82.0647 193.048 75.5403 193.759C65.5738 194.845 58.2219 198.612 58.5315 201.456C58.8536 204.415 64.79 206.228 76.6922 203.589C86.1518 201.491 94.2652 197.287 98.5414 194.701C106.147 202.707 114.278 212.049 123.101 223.289C123.066 223.86 123.036 224.389 123.01 224.87C123.215 224.613 123.437 224.329 123.674 224.02C125.121 225.871 126.586 227.772 128.071 229.727C121.457 228.67 109.04 226.915 100.568 226.866C88.6553 226.798 79.4667 230.194 79.4475 233.54C79.4276 237.02 86.1906 239.919 100.598 238.441C112.87 237.183 123.643 232.906 128.68 230.53C131.198 233.859 133.771 237.341 136.403 240.989C142.413 249.318 147.785 257.791 152.581 266.24C152.584 266.573 152.589 266.89 152.597 267.189C152.688 267.054 152.782 266.913 152.879 266.765C153.946 268.653 154.983 270.539 155.993 272.422C150.064 269.337 140.56 265.183 129.766 263.101C114.363 260.129 106.789 262.55 106.477 266.249C106.176 269.805 115.963 273.19 128.822 274.276C137.487 275.009 149.968 275.296 157.387 275.052C164.497 288.632 170.165 301.994 174.657 314.425C165.471 311.599 148.908 307.883 137.325 306.251C120.64 303.9 107.064 306.325 106.226 312.279C105.355 318.471 114.133 324.898 134.691 324.963C151.743 325.018 167.498 319.71 175.363 316.397C176.15 318.62 176.9 320.811 177.614 322.967C177.552 323.261 177.495 323.544 177.442 323.816C177.561 323.733 177.684 323.648 177.809 323.559C178.846 326.713 179.806 329.789 180.693 332.775C184.63 346.028 187.13 357.482 188.625 365.977C189.373 370.225 189.869 373.729 190.168 376.345C190.47 378.992 190.563 380.666 190.528 381.292L192.525 381.402C192.57 380.583 192.455 378.75 192.155 376.119C191.851 373.457 191.349 369.913 190.595 365.631C189.087 357.066 186.57 345.537 182.61 332.205C181.661 329.011 180.628 325.712 179.507 322.325C186.365 317.209 198.886 306.339 207.47 291.651C217.846 273.895 216.767 263.065 210.991 260.674C205.439 258.375 196.461 268.848 190.018 284.425C185.775 294.684 180.873 309.757 178.478 319.263C178.063 318.051 177.638 316.828 177.201 315.596C177.348 315.529 177.492 315.464 177.63 315.4C177.446 315.335 177.256 315.269 177.06 315.202C172.551 302.539 166.823 288.871 159.592 274.955C159.883 274.938 160.162 274.92 160.426 274.901C160.058 274.677 159.641 274.43 159.179 274.164C157.56 271.07 155.866 267.965 154.095 264.856C157.471 259.378 162.915 249.116 165.824 237.102C169.516 221.849 167.457 214.165 163.779 213.679C160.243 213.211 156.402 222.833 154.711 235.632C153.66 243.582 152.835 254.791 152.628 262.312C148.235 254.78 143.382 247.243 138.025 239.819C133.487 233.53 129.122 227.73 124.913 222.359C128.734 217.095 134.815 207.454 138.6 195.939C143.501 181.031 142.062 173.207 138.435 172.427C134.948 171.678 129.269 180.622 126.56 193.245C124.852 201.2 123.816 212.74 123.294 220.305C114.371 209.044 106.15 199.713 98.4635 191.726C101.442 186.7 106.663 176.466 109.194 164.488C112.252 150.015 110.099 142.833 106.621 142.476C103.277 142.133 98.8761 151.098 97.6362 163.204C96.787 171.495 97.1168 183.674 97.4368 190.664C87.9019 180.844 79.1857 173.075 70.9573 166.217Z" fill="url(#paint5_linear)" fill-opacity="0.7"/>
<path fill-rule="evenodd" clip-rule="evenodd" d="M198.628 159.237C202.687 157.532 210.294 153.752 217.084 147.771C225.373 140.47 227.289 135.207 225.365 133.44C223.516 131.74 216.88 135.143 210.736 141.839C206.532 146.42 201.302 153.849 198.373 158.18C197.345 153.958 196.288 149.953 195.252 146.03C195.097 145.441 194.942 144.855 194.788 144.27C195.261 138.819 195.347 129.359 192.475 120.103C188.761 108.132 183.389 104.203 179.881 105.856C176.509 107.445 176.4 116.234 180.774 125.525C183.661 131.657 189.26 139.756 192.815 144.629C192.982 145.263 193.149 145.898 193.317 146.536L193.318 146.536L193.318 146.537C194.698 151.766 196.114 157.129 197.445 162.952C193.359 159.651 186.286 154.155 180.987 151.034C173.158 146.422 165.819 145.103 164.545 147.268C163.22 149.52 166.586 153.995 176.644 158.56C184.931 162.322 193.359 163.712 197.717 164.15C199.255 171.018 200.668 178.541 201.764 187.237C198.344 184.471 192.956 180.297 188.847 177.876C182.394 174.075 176.31 173.047 175.226 174.889C174.099 176.804 176.845 180.542 185.151 184.277C191.601 187.179 198.18 188.302 201.943 188.689C202.937 196.96 203.643 206.288 203.906 217.096C203.724 217.313 203.552 217.518 203.392 217.711C203.557 217.667 203.732 217.62 203.917 217.569C203.955 219.217 203.983 220.899 204 222.617C200.45 218.979 193.993 212.604 189.062 208.882C181.958 203.52 174.94 201.449 173.436 203.445C171.871 205.52 174.628 210.277 183.915 215.827C191.665 220.459 199.846 222.714 204.008 223.581C204.031 226.714 204.019 229.965 203.967 233.343C203.848 241.168 203.263 248.786 202.333 256.12L202.276 256.201L202.227 256.269L202.318 256.237C202.135 257.675 201.939 259.102 201.73 260.518C199.525 256.029 195.751 249.513 190.379 243.623C182.481 234.963 176.865 233.03 175.028 235.105C173.261 237.101 177.611 243.499 184.827 249.894C189.608 254.13 196.791 259.758 201.357 262.956C199.567 274.226 197.016 284.727 194.174 294.155C189.881 288.336 181.77 278.902 175.651 272.84C166.709 263.98 157.497 259.368 154.339 262.559C151.054 265.878 153.443 273.648 165.724 282.869C175.779 290.419 187.406 294.276 193.658 295.845C193.094 297.668 192.52 299.449 191.94 301.186L191.838 301.278L191.908 301.28C191.131 303.604 190.342 305.849 189.55 308.008C185.997 317.694 182.387 325.661 179.497 331.408C178.051 334.282 176.787 336.597 175.801 338.293C174.8 340.014 174.119 341.04 173.834 341.381L175.369 342.663C175.777 342.174 176.536 341.007 177.53 339.298C178.538 337.564 179.821 335.212 181.283 332.307C184.205 326.497 187.846 318.46 191.427 308.697C192.294 306.333 193.158 303.867 194.007 301.307C200.469 301.281 212.639 300.322 224.173 295.429C238.309 289.43 242.495 282.463 240.103 278.451C237.804 274.594 227.754 276.856 216.946 283.306C209.975 287.466 200.566 294.108 194.849 298.723C195.104 297.925 195.358 297.117 195.609 296.302L195.706 296.323L195.635 296.217C198.602 286.592 201.289 275.808 203.182 264.196C203.282 264.261 203.38 264.324 203.475 264.384C203.404 264.209 203.327 264.022 203.243 263.823C203.687 261.071 204.086 258.274 204.433 255.434C208.94 253.621 216.61 249.939 223.573 244.16C232.59 236.675 234.785 231.153 232.8 229.219C230.891 227.36 224.298 231.406 217.574 238.316C213.514 242.487 208.208 248.598 204.718 252.988C205.423 246.633 205.864 240.079 205.966 233.373C206.056 227.549 206.029 222.099 205.903 216.978C210.572 215.502 218.364 212.461 225.637 207.349C235.224 200.61 237.854 195.282 236.03 193.195C234.276 191.189 226.884 194.009 219.629 200.358C215.157 204.271 209.539 210.526 205.844 214.819C205.519 204.168 204.759 194.967 203.723 186.797C207.81 185.068 215.336 181.304 222.061 175.38C230.351 168.079 232.266 162.816 230.342 161.049C228.493 159.35 221.857 162.752 215.713 169.448C211.605 173.925 206.518 181.121 203.554 185.488C202.227 175.444 200.483 166.964 198.628 159.237Z" fill="url(#paint6_linear)" fill-opacity="0.7"/>
<path fill-rule="evenodd" clip-rule="evenodd" d="M1816.76 190.792C1812.56 186.765 1804.66 178.184 1798.94 167.144C1792.1 153.932 1792.27 146.391 1795.54 145.113C1798.69 143.884 1805.36 151.396 1809.81 162.801C1812.91 170.779 1815.92 183.018 1817.45 189.804C1820.86 184.913 1824.2 180.323 1827.47 175.826L1827.47 175.826L1827.47 175.825C1827.77 175.42 1828.06 175.016 1828.36 174.612C1830.28 167.701 1834.82 155.138 1843.33 144.442C1853.83 131.233 1862.49 128.927 1866.08 132.714C1869.54 136.356 1865.39 147.439 1855.37 156.962C1848.49 163.498 1836.89 171.272 1830.13 175.566C1829.79 176.043 1829.44 176.52 1829.09 176.999L1829.09 176.999C1824.73 182.996 1820.25 189.151 1815.65 195.958C1822.3 193.827 1834.26 190.235 1842.65 188.87C1854.73 186.906 1864.58 188.836 1865.12 192.176C1865.69 195.649 1859.28 199.621 1844.43 200.437C1831.94 201.124 1820.47 198.636 1814.91 197.06C1809.58 204.99 1804.1 213.821 1798.44 224.309C1804.05 222.506 1813.17 219.778 1819.69 218.718C1829.64 217.1 1837.78 218.781 1838.24 221.622C1838.72 224.576 1833.45 227.925 1821.21 228.557C1811.47 229.059 1802.47 227.156 1797.64 225.795C1792.41 235.594 1787.03 246.828 1781.48 260.087C1781.67 260.634 1781.84 261.142 1782 261.604C1781.73 261.409 1781.44 261.192 1781.12 260.955C1780.21 263.139 1779.3 265.377 1778.39 267.673C1784.51 264.876 1796.09 259.843 1804.29 257.524C1815.82 254.265 1825.64 255.094 1826.55 258.333C1827.51 261.702 1821.72 266.325 1807.36 268.754C1795.12 270.824 1783.53 269.564 1778.01 268.611C1776.46 272.512 1774.9 276.577 1773.33 280.819C1769.73 290.501 1766.79 300.153 1764.4 309.627C1764.49 309.955 1764.57 310.267 1764.65 310.562C1764.52 310.455 1764.39 310.342 1764.25 310.223C1763.72 312.343 1763.22 314.453 1762.75 316.553C1767.67 311.972 1775.77 305.393 1785.69 300.479C1799.82 293.469 1807.81 293.786 1809.11 297.288C1810.35 300.655 1801.77 306.56 1789.59 311.06C1781.39 314.094 1769.36 317.719 1762.1 319.47C1758.84 334.543 1756.93 349.018 1755.9 362.274C1764.05 357.073 1779.12 349.028 1789.91 344.34C1805.46 337.588 1819.27 336.3 1821.68 341.847C1824.18 347.617 1817.39 356.201 1797.48 361.775C1780.95 366.4 1764.26 365.475 1755.75 364.371C1755.58 366.734 1755.44 369.056 1755.32 371.335C1755.46 371.606 1755.6 371.869 1755.72 372.122C1755.58 372.073 1755.44 372.022 1755.29 371.969C1755.13 375.305 1755.02 378.545 1754.96 381.678C1754.7 395.583 1755.34 407.358 1756.16 415.994C1756.58 420.313 1757.03 423.843 1757.44 426.46C1757.86 429.107 1758.22 430.755 1758.42 431.354L1756.52 431.992C1756.26 431.21 1755.88 429.403 1755.47 426.771C1755.05 424.109 1754.59 420.538 1754.17 416.185C1753.34 407.478 1752.69 395.626 1752.96 381.64C1753.03 378.289 1753.15 374.815 1753.33 371.232C1745.31 368.111 1730.25 360.929 1718 348.986C1703.18 334.553 1701.33 323.765 1706.29 319.899C1711.06 316.181 1722.56 323.929 1732.98 337.303C1739.84 346.115 1748.64 359.421 1753.5 367.995C1753.58 366.706 1753.67 365.404 1753.76 364.089C1753.6 364.063 1753.44 364.038 1753.29 364.013C1753.45 363.899 1753.62 363.782 1753.79 363.664C1754.77 350.179 1756.67 335.393 1759.95 319.964C1759.66 320.027 1759.38 320.084 1759.12 320.137C1759.42 319.819 1759.76 319.465 1760.14 319.08C1760.88 315.651 1761.69 312.191 1762.57 308.707C1757.83 304.302 1749.81 295.81 1743.77 284.939C1736.1 271.141 1736.04 263.139 1739.48 261.682C1742.78 260.281 1749.08 268.579 1754.15 280.535C1757.3 287.965 1761.1 298.618 1763.31 305.854C1765.56 297.371 1768.24 288.76 1771.45 280.123C1774.17 272.81 1776.84 266.018 1779.49 259.684C1774.37 255.605 1765.89 247.887 1759.14 237.735C1750.4 224.595 1749.69 216.623 1753 214.896C1756.18 213.235 1764.08 220.384 1770.09 231.896C1773.88 239.153 1777.97 250.068 1780.5 257.262C1786.14 243.951 1791.61 232.701 1796.93 222.896C1792.69 218.823 1784.89 210.299 1779.22 199.361C1772.38 186.149 1772.55 178.609 1775.83 177.33C1778.98 176.102 1785.64 183.613 1790.09 195.018C1793.13 202.832 1796.07 214.734 1797.63 221.596C1804.25 209.517 1810.62 199.648 1816.76 190.792Z" fill="url(#paint7_linear)" fill-opacity="0.7"/>
<path fill-rule="evenodd" clip-rule="evenodd" d="M1657.69 210.963C1652.07 209.444 1641.03 205.701 1630.73 198.751C1618.4 190.435 1614.93 183.738 1617.19 181.045C1619.37 178.456 1628.82 181.852 1638.18 189.731C1644.73 195.243 1653.23 204.547 1657.82 209.767C1658.47 203.839 1659.21 198.208 1659.92 192.693L1659.92 192.693C1659.99 192.195 1660.05 191.699 1660.12 191.203C1658.5 184.215 1656.47 171.011 1658.81 157.545C1661.7 140.916 1668.2 134.74 1673.16 136.341C1677.94 137.88 1679.61 149.598 1675.37 162.762C1672.46 171.797 1666.01 184.181 1662.14 191.188C1662.06 191.773 1661.98 192.359 1661.91 192.946L1661.91 192.947C1660.95 200.303 1659.97 207.852 1659.19 216.032C1664 210.975 1672.78 202.086 1679.5 196.864C1689.15 189.35 1698.73 186.32 1700.8 188.991C1702.96 191.768 1699.24 198.327 1686.6 206.163C1675.96 212.756 1664.7 216.073 1659.07 217.356C1658.19 226.867 1657.61 237.247 1657.66 249.168C1661.72 244.895 1668.42 238.126 1673.64 234.07C1681.6 227.878 1689.55 225.452 1691.31 227.724C1693.15 230.087 1690.13 235.553 1679.68 241.979C1671.38 247.088 1662.57 249.731 1657.67 250.856C1657.78 261.964 1658.43 274.403 1659.92 288.698C1660.35 289.088 1660.74 289.451 1661.1 289.783C1660.77 289.74 1660.41 289.69 1660.02 289.633C1660.27 291.985 1660.54 294.387 1660.83 296.842C1664.87 291.449 1672.62 281.483 1678.71 275.514C1687.27 267.124 1696.28 263.145 1698.64 265.549C1701.09 268.05 1698.23 274.879 1686.78 283.898C1677.03 291.583 1666.25 296.036 1660.96 297.844C1661.46 302.012 1662.04 306.329 1662.69 310.808C1664.17 321.029 1666.22 330.909 1668.66 340.368C1668.89 340.614 1669.11 340.85 1669.32 341.073C1669.16 341.039 1668.99 341.003 1668.81 340.964C1669.36 343.078 1669.93 345.171 1670.52 347.242C1672.65 340.862 1676.61 331.201 1682.95 322.135C1692.01 309.205 1699.17 305.651 1701.98 308.105C1704.69 310.464 1699.98 319.762 1691.45 329.549C1685.7 336.146 1676.88 345.095 1671.35 350.112C1675.71 364.903 1680.96 378.527 1686.41 390.654C1691.07 382.182 1700.44 367.897 1707.67 358.605C1718.08 345.226 1729.59 337.473 1734.36 341.188C1739.32 345.052 1737.47 355.842 1722.66 370.282C1710.38 382.262 1695.28 389.458 1687.28 392.569C1688.26 394.723 1689.25 396.829 1690.24 398.883C1690.5 399.054 1690.74 399.221 1690.97 399.383C1690.82 399.407 1690.67 399.431 1690.52 399.455C1691.98 402.461 1693.43 405.356 1694.88 408.135C1701.31 420.467 1707.51 430.494 1712.37 437.679C1714.8 441.271 1716.89 444.15 1718.51 446.25C1720.14 448.374 1721.24 449.648 1721.71 450.078L1720.35 451.546C1719.75 450.986 1718.55 449.581 1716.92 447.469C1715.28 445.334 1713.17 442.421 1710.72 438.8C1705.82 431.556 1699.57 421.464 1693.11 409.059C1691.56 406.087 1690 402.982 1688.44 399.751C1679.91 400.855 1663.26 401.77 1646.78 397.165C1626.86 391.601 1620.07 383.02 1622.57 377.249C1624.97 371.7 1638.79 372.982 1654.33 379.726C1664.58 384.17 1678.67 391.633 1687.05 396.824C1686.5 395.656 1685.95 394.472 1685.4 393.273C1685.25 393.329 1685.1 393.383 1684.95 393.434C1685.04 393.256 1685.13 393.072 1685.22 392.885C1679.63 380.579 1674.21 366.694 1669.7 351.577C1669.48 351.771 1669.26 351.954 1669.05 352.127C1669.16 351.704 1669.29 351.23 1669.44 350.71C1668.45 347.345 1667.5 343.92 1666.61 340.439C1660.34 338.845 1649.23 335.241 1638.72 328.595C1625.38 320.16 1621.5 313.166 1623.81 310.24C1626.04 307.426 1635.55 311.689 1645.72 319.753C1652.04 324.764 1660.48 332.29 1665.89 337.58C1663.8 329.059 1662.03 320.213 1660.71 311.094C1659.59 303.374 1658.69 296.128 1657.97 289.302C1651.53 288.174 1640.39 285.466 1629.6 279.794C1615.63 272.453 1611.2 265.793 1613.28 262.69C1615.27 259.708 1625.63 262.194 1636.42 269.418C1643.22 273.972 1652.04 281.588 1657.71 286.689C1656.28 272.303 1655.69 259.806 1655.66 248.652C1649.99 247.106 1639.06 243.368 1628.85 236.483C1616.52 228.166 1613.05 221.469 1615.32 218.777C1617.49 216.188 1626.94 219.584 1636.3 227.463C1642.72 232.862 1651 241.897 1655.66 247.171C1655.68 233.398 1656.54 221.681 1657.69 210.963Z" fill="url(#paint8_linear)" fill-opacity="0.7"/>
<path fill-rule="evenodd" clip-rule="evenodd" d="M1585.24 257.517C1584.17 255.094 1582.57 250.706 1582.05 245.765C1581.39 239.395 1582.64 236.399 1584.15 236.402C1585.61 236.405 1587.1 240.463 1587.09 245.732C1587.08 249.122 1586.47 253.941 1586.02 256.997C1588.01 255.679 1589.93 254.453 1591.81 253.252L1591.81 253.251L1591.81 253.251L1591.81 253.251L1591.81 253.251C1592.46 252.837 1593.11 252.425 1593.75 252.014C1595.82 249.518 1599.16 246.107 1603.4 243.648C1609.69 240.007 1613.52 240.444 1614.37 242.528C1615.18 244.531 1611.77 248.319 1606.26 250.559C1603 251.882 1598.2 253.023 1594.77 253.735C1594.15 254.135 1593.52 254.534 1592.89 254.935L1592.89 254.935L1592.89 254.935C1590.39 256.533 1587.83 258.168 1585.14 260C1588.22 260.218 1592.92 260.646 1596.15 261.345C1601.3 262.458 1604.95 264.781 1604.64 266.204C1604.32 267.685 1601.13 268.268 1595.05 266.26C1590.32 264.697 1586.36 262.183 1584.23 260.623C1580.95 262.892 1577.47 265.473 1573.69 268.647C1576.22 268.825 1579.77 269.155 1582.26 269.695C1586.51 270.612 1589.5 272.565 1589.24 273.776C1588.97 275.035 1586.33 275.548 1581.32 273.876C1577.68 272.658 1574.6 270.73 1572.78 269.411C1568.57 273 1563.98 277.331 1558.84 282.774C1561.86 282.629 1566.67 282.495 1569.99 282.824C1575.13 283.331 1578.93 285.208 1578.79 286.649C1578.64 288.149 1575.6 289.092 1569.46 287.807C1564.62 286.793 1560.45 284.724 1558.22 283.431C1556.97 284.775 1555.68 286.185 1554.35 287.667C1550.88 291.556 1547.77 295.571 1545.01 299.589C1547.7 298.598 1551.56 297.476 1555.79 297.11C1562.56 296.525 1565.71 297.909 1565.68 299.515C1565.65 301.06 1561.28 302.077 1555.69 301.965C1552.17 301.895 1547.21 301.505 1543.99 301.095C1540.35 306.541 1537.33 311.964 1534.85 317.056C1539.02 316.294 1545.81 315.522 1550.59 315.351C1557.88 315.09 1563.62 316.746 1563.71 319.348C1563.81 322.053 1559.74 324.425 1550.89 323.527C1543.9 322.819 1537.64 320.075 1534.26 318.276C1533.14 320.616 1532.14 322.879 1531.25 325.035C1528.97 330.543 1527.38 335.342 1526.36 338.913C1525.85 340.699 1525.48 342.174 1525.24 343.275C1524.99 344.405 1524.88 345.077 1524.87 345.294L1522.88 345.196C1522.9 344.787 1523.04 343.958 1523.29 342.843C1523.54 341.698 1523.92 340.183 1524.44 338.364C1525.48 334.724 1527.09 329.853 1529.4 324.269C1529.98 322.875 1530.6 321.437 1531.27 319.962C1528.48 317.315 1523.93 312.269 1521.05 305.902C1517.38 297.789 1518.33 293.174 1520.92 292.405C1523.42 291.665 1526.81 296.579 1528.89 303.577C1530.15 307.832 1531.46 313.878 1532.13 318.088C1535.36 311.221 1539.57 303.662 1544.96 296.183C1543.76 293.571 1542.09 289.206 1541.43 284.291C1540.53 277.556 1541.76 274.34 1543.37 274.296C1544.91 274.254 1546.13 278.57 1546.29 284.158C1546.37 287.271 1546.26 291.503 1546.06 294.686C1548.15 291.87 1550.41 289.072 1552.86 286.335C1555.14 283.779 1557.33 281.433 1559.42 279.272C1558.02 276.754 1556.05 272.58 1555.01 267.792C1553.57 261.152 1554.54 257.847 1556.14 257.675C1557.68 257.51 1559.72 261.617 1560.32 267.175C1560.66 270.391 1560.63 274.884 1560.53 278.137C1564.77 273.825 1568.65 270.272 1572.24 267.249C1571.17 264.81 1569.6 260.463 1569.09 255.574C1568.42 249.204 1569.67 246.208 1571.19 246.211C1572.64 246.214 1574.13 250.273 1574.12 255.542C1574.12 258.833 1573.54 263.472 1573.1 266.535C1577.5 262.888 1581.49 260.028 1585.24 257.517Z" fill="url(#paint9_linear)"/>
<path fill-rule="evenodd" clip-rule="evenodd" d="M1551.38 219.593C1549.13 217.483 1545.29 213.394 1542.42 208.163C1538.79 201.549 1538.78 197.724 1540.42 197.035C1542 196.373 1545.48 200.098 1547.87 205.825C1549.45 209.592 1551.02 215.268 1551.92 218.778C1553.51 216.39 1555.06 214.138 1556.59 211.93L1556.59 211.93L1556.59 211.929C1557 211.334 1557.41 210.742 1557.82 210.151C1558.88 206.482 1560.98 200.946 1564.64 196.098C1569.8 189.269 1574.16 187.992 1576.03 189.867C1577.83 191.671 1575.87 197.342 1570.9 202.296C1567.85 205.343 1562.89 208.942 1559.46 211.284C1559.06 211.875 1558.65 212.468 1558.24 213.063L1558.24 213.064C1556.21 216.001 1554.13 219.01 1552 222.305C1555.44 221.127 1560.92 219.374 1564.85 218.634C1570.95 217.487 1575.97 218.343 1576.29 220.029C1576.62 221.783 1573.42 223.877 1565.9 224.477C1559.93 224.953 1554.38 223.983 1551.39 223.259C1548.84 227.256 1546.23 231.69 1543.55 236.923C1546.39 235.949 1550.54 234.627 1553.58 234.055C1558.61 233.11 1562.76 233.861 1563.03 235.296C1563.31 236.788 1560.68 238.552 1554.47 239.025C1549.85 239.378 1545.54 238.651 1542.98 238.04C1540.38 243.214 1537.71 249.16 1534.98 256.208L1535.01 256.272L1534.97 256.246C1534.61 257.173 1534.25 258.119 1533.89 259.085C1537.08 257.551 1542.4 255.119 1546.26 253.925C1552.07 252.129 1557.05 252.426 1557.56 254.057C1558.08 255.754 1555.21 258.17 1547.96 259.581C1542.12 260.716 1536.54 260.339 1533.57 259.945C1532.82 261.969 1532.07 264.08 1531.31 266.283C1529.29 272.188 1527.73 278.06 1526.56 283.774C1529.03 281.438 1532.8 278.341 1537.36 275.937C1544.44 272.207 1548.5 272.268 1549.2 274.027C1549.87 275.719 1545.59 278.82 1539.47 281.254C1535.54 282.818 1529.86 284.698 1526.17 285.718C1524.71 293.323 1523.91 300.618 1523.54 307.303C1527.7 304.561 1534.86 300.535 1540.05 298.125C1547.85 294.507 1554.84 293.682 1556.13 296.464C1557.47 299.359 1554.13 303.796 1544.1 306.871C1536.09 309.329 1527.93 309.178 1523.47 308.757C1523.33 311.815 1523.27 314.736 1523.29 317.491C1523.33 324.525 1523.8 330.468 1524.32 334.82C1524.58 336.996 1524.86 338.771 1525.1 340.081C1525.34 341.422 1525.54 342.214 1525.63 342.47L1523.75 343.155C1523.59 342.717 1523.37 341.766 1523.13 340.441C1522.88 339.085 1522.6 337.271 1522.34 335.06C1521.8 330.638 1521.33 324.618 1521.29 317.502C1521.28 315.745 1521.3 313.921 1521.35 312.038C1517.14 310.466 1509.76 307.055 1503.64 301.379C1495.95 294.246 1494.88 288.798 1497.34 286.776C1499.72 284.832 1505.65 288.616 1511.1 295.268C1514.48 299.398 1518.78 305.53 1521.42 309.811C1521.78 300.85 1522.88 290.666 1525.33 280.022C1522.83 277.759 1518.93 273.72 1515.91 268.582C1511.85 261.681 1511.72 257.624 1513.45 256.843C1515.1 256.091 1518.4 260.22 1521.12 266.219C1522.68 269.658 1524.55 274.482 1525.79 278.068C1526.79 273.969 1527.99 269.81 1529.42 265.634C1530.73 261.834 1532.02 258.306 1533.3 255.017C1530.63 252.944 1526.49 249.266 1523.12 244.455C1518.52 237.901 1518.07 233.868 1519.72 232.95C1521.31 232.068 1525.41 235.595 1528.6 241.357C1530.49 244.768 1532.55 249.811 1533.93 253.408C1536.59 246.734 1539.18 241.066 1541.72 236.11C1539.46 233.982 1535.67 229.923 1532.82 224.746C1529.19 218.132 1529.18 214.306 1530.82 213.617C1532.41 212.955 1535.88 216.681 1538.28 222.408C1539.81 226.073 1541.34 231.548 1542.25 235.073C1545.39 229.038 1548.44 224.067 1551.38 219.593Z" fill="url(#paint10_linear)"/>
<path d="M1556.98 365.264C1551.82 377.241 1537.22 383.383 1531.15 391.488L1509.45 417.581C1509.95 414.976 1493.29 392.898 1460.83 383.992C1420.25 372.861 1405.3 346.01 1411.17 329.515C1416.96 313.261 1423.38 322.568 1429.63 308.713C1435.87 294.859 1430.25 271.825 1438.26 262.929C1448.05 252.057 1453.99 266.592 1465.06 246.016C1476.98 223.859 1470.88 197.387 1492.53 201.476C1513.58 205.45 1507.22 234.318 1514.31 244.906C1525.43 261.548 1537.99 247.065 1545.31 261.169C1552.64 275.274 1542.38 290.418 1544.25 297.975C1547.86 312.535 1557.86 302.858 1565.01 322.711C1570.38 337.635 1563.44 350.292 1556.98 365.264Z" fill="url(#paint11_linear)"/>
<path d="M1946.65 346.111C1947.65 365.156 1937.33 380.509 1935.68 394.602L1928.39 440.979C1927.6 437.131 1902.01 414.259 1868.33 417.072C1826.23 420.587 1799.92 390.293 1797.41 364.642C1794.94 339.366 1805.18 349.289 1804.27 327.131C1803.35 304.973 1787.31 275.616 1790.35 259.519C1794.07 239.844 1806.36 257.251 1806.63 223.505C1806.92 187.165 1788.8 153.262 1810.39 148.815C1831.36 144.494 1839.31 187.549 1850.77 198.941C1868.77 216.845 1873.27 190.867 1886.62 207.026C1899.96 223.185 1897.85 249.013 1903.14 258.63C1913.33 277.158 1917.8 259.047 1933.72 283.272C1945.68 301.482 1945.39 322.304 1946.65 346.111Z" fill="url(#paint12_linear)"/>
<path d="M292.658 325.542C291.384 341.031 277.242 353.525 273.474 364.987L258.906 402.709C258.469 399.581 231.269 380.998 191.232 383.31C141.185 386.199 114.088 361.581 114.445 340.721C114.797 320.167 125.583 328.229 127.362 310.209C129.141 292.189 114.032 268.326 119.691 255.232C126.608 239.229 138.841 253.377 143.511 225.931C148.539 196.376 131.572 168.817 157.576 165.185C182.845 161.655 186.657 196.665 198.68 205.922C217.577 220.47 226.235 199.339 239.875 212.471C253.514 225.603 247.689 246.61 252.68 254.428C262.296 269.489 269.9 254.756 285.527 274.446C297.273 289.247 294.25 306.181 292.658 325.542Z" fill="url(#paint13_linear)"/>
<path d="M1736.69 341.244C1737.53 350.702 1742.64 365.884 1745.09 372.293L1730.32 401.733C1729.7 399.917 1721.95 397.996 1695.95 404.842C1663.46 413.399 1635.87 401.125 1629.17 390.377C1622.46 379.629 1636.22 375.773 1635.44 364.728C1634.67 353.683 1610.44 344.605 1609.15 323.293C1607.87 301.982 1623.35 305.362 1628.35 300.163C1633.35 294.964 1614.16 271.977 1627.26 259.643C1640.37 247.308 1651.35 285.881 1668.14 286.49C1675.01 286.74 1681.11 275.944 1691.46 281.956C1701.82 287.969 1706.15 329.118 1711.26 330.841C1716.37 332.564 1711.03 316.998 1721.41 314.3C1731.8 311.602 1735.65 329.42 1736.69 341.244Z" fill="url(#paint14_linear)"/>
<path fill-rule="evenodd" clip-rule="evenodd" d="M1433.74 229.596C1432.93 226.018 1432.07 220.984 1433.75 214.347C1435.07 209.147 1438.1 205.181 1440.83 206.534C1446.15 209.174 1442.26 216.054 1438.36 222.935C1436.74 225.797 1436.37 227.376 1436.06 228.724C1435.94 229.223 1435.83 229.69 1435.67 230.179C1435.32 231.874 1434.97 233.57 1434.61 235.283L1434.61 235.284L1434.61 235.285C1433.79 239.233 1432.95 243.275 1432.18 247.627C1434.63 245.465 1438.1 242.538 1440.82 240.735C1445.49 237.639 1449.97 236.588 1450.83 237.879C1451.72 239.223 1449.79 242.089 1443.74 245.228C1439.31 247.532 1434.74 248.682 1431.91 249.197C1430.38 258.187 1429.2 268.557 1429.13 282.102C1431.2 279.412 1434.03 275.906 1436.37 273.608C1440.57 269.483 1445.02 267.544 1446.2 268.744C1447.42 269.991 1446.03 273.364 1440.4 277.79C1436.38 280.958 1431.98 282.994 1429.13 284.084C1429.13 286.4 1429.17 288.806 1429.24 291.312L1429.45 291.536L1429.34 291.512L1429.25 291.493C1429.37 295.355 1429.57 299.453 1429.86 303.817C1430.36 311.072 1431.35 318.073 1432.69 324.728C1434.25 321.127 1436.9 316.033 1440.75 311.337C1446.59 304.211 1450.92 302.459 1452.44 304.012C1453.91 305.505 1450.76 310.709 1445.37 316.029C1441.85 319.491 1436.58 324.102 1433.12 326.825C1435.6 338.484 1439.09 349.025 1442.68 357.93C1443.42 353.359 1445.36 348.023 1447.55 343.733C1451.34 336.301 1457.89 330.086 1460.53 331.439C1462.99 332.694 1460.86 335.723 1456.24 342.289C1455.68 343.085 1455.09 343.932 1454.46 344.834C1452.32 347.904 1450.51 350.61 1448.88 353.035L1448.88 353.036L1448.88 353.036L1448.88 353.037C1446.98 355.866 1445.34 358.314 1443.74 360.511C1443.92 360.933 1444.09 361.351 1444.27 361.764C1447.46 369.212 1450.62 375.309 1453.12 379.694C1454.38 381.887 1455.46 383.648 1456.3 384.934C1457.16 386.246 1457.73 387.008 1457.95 387.249L1456.49 388.61C1456.13 388.228 1455.48 387.329 1454.63 386.03C1453.76 384.707 1452.66 382.91 1451.39 380.687C1448.85 376.24 1445.65 370.075 1442.43 362.552C1441.64 360.703 1440.85 358.772 1440.06 356.764C1436.42 356.823 1432.47 356.016 1423.61 352.798C1420.07 351.514 1417.21 350.718 1414.94 350.088C1409.93 348.697 1407.84 348.115 1407.85 344.864C1407.86 341.334 1417.87 340.62 1426.62 345.234C1431.81 347.972 1435.76 351.319 1439.07 354.172C1436.17 346.447 1433.44 337.682 1431.36 328.158L1431.33 328.181L1431.35 328.114C1430.85 325.824 1430.39 323.489 1429.97 321.115C1426.33 319.85 1420.3 317.298 1414.71 313.14C1407.32 307.639 1405.37 303.395 1406.84 301.794C1408.27 300.255 1413.61 303.157 1419.18 308.302C1422.44 311.315 1426.69 315.713 1429.61 318.987C1428.82 314.125 1428.22 309.103 1427.87 303.954C1427.56 299.359 1427.35 295.056 1427.24 291.009C1423.49 290.022 1417.37 287.968 1411.56 284.327C1403.75 279.436 1401.47 275.362 1402.81 273.648C1404.11 272 1410.03 273.906 1415.99 278.589C1419.57 281.408 1424.11 285.934 1427.19 289.14C1427.16 287.653 1427.14 286.201 1427.13 284.783L1427.11 284.79L1427.13 284.759C1427.09 276.092 1427.48 268.678 1428.14 262.103C1424.75 260.809 1419.14 258.239 1414 254.173C1407.19 248.786 1405.47 244.734 1406.9 243.267C1408.28 241.856 1413.63 244.251 1418.74 249.252C1421.87 252.327 1425.76 257.172 1428.31 260.502C1429.39 250.551 1431.07 242.521 1432.66 234.881C1433.03 233.104 1433.39 231.349 1433.74 229.596Z" fill="url(#paint15_linear)"/>
<path fill-rule="evenodd" clip-rule="evenodd" d="M1499.09 252.558C1499.56 249.617 1500.48 245.681 1503.6 241.323C1506.16 237.739 1509.67 235.612 1511.36 237.467C1514.64 241.084 1509.6 245.181 1504.56 249.279C1502.65 250.833 1501.85 251.882 1501.23 252.764L1501.31 252.81C1500.27 254.445 1499.21 256.062 1498.14 257.702L1498.14 257.703L1498.14 257.703C1496.37 260.421 1494.55 263.202 1492.7 266.226C1495.2 265.32 1498.58 264.184 1501.11 263.64C1505.61 262.671 1509.35 263.209 1509.62 264.454C1509.9 265.749 1507.57 267.364 1502 267.954C1498.02 268.376 1494.28 267.923 1491.94 267.479C1488.1 273.864 1484.11 281.39 1480.02 291.641C1482.38 290.228 1485.46 288.483 1487.86 287.463C1492.31 285.566 1496.29 285.416 1496.83 286.686C1497.4 288.007 1495.32 290.173 1489.69 291.873C1485.76 293.06 1481.88 293.318 1479.37 293.31C1477.59 297.868 1475.8 302.95 1474 308.685C1472.23 314.292 1470.91 319.855 1469.94 325.262C1472.23 322.999 1475.69 320.013 1479.9 317.65C1486.51 313.947 1490.35 313.905 1491.05 315.551C1491.73 317.134 1487.76 320.173 1482.03 322.626C1478.38 324.193 1473.09 326.099 1469.62 327.158C1468.04 336.727 1467.54 345.755 1467.6 353.595C1469.55 350.405 1472.53 347.03 1475.4 344.481C1480.53 339.931 1487.41 337.138 1489.03 338.967C1490.53 340.665 1488 342.344 1482.49 345.985C1481.83 346.426 1481.12 346.896 1480.37 347.398C1477.81 349.106 1475.61 350.633 1473.64 352.001L1473.64 352.002C1471.41 353.548 1469.47 354.893 1467.64 356.068C1467.65 356.481 1467.66 356.889 1467.67 357.293C1467.88 363.942 1468.48 369.549 1469.08 373.65C1469.38 375.701 1469.68 377.371 1469.94 378.603C1470.21 379.865 1470.41 380.605 1470.5 380.841L1468.64 381.574C1468.48 381.16 1468.25 380.261 1467.98 379.014C1467.72 377.737 1467.41 376.027 1467.1 373.942C1466.49 369.771 1465.89 364.087 1465.68 357.357C1465.62 355.682 1465.6 353.942 1465.6 352.144C1462.85 351.086 1460.07 349.256 1454.37 344.244C1452.05 342.2 1450.1 340.733 1448.55 339.571L1448.55 339.571L1448.55 339.571C1445.13 337.005 1443.7 335.931 1444.68 333.445C1445.75 330.746 1453.62 333.202 1458.94 339.358C1461.99 342.885 1463.97 346.498 1465.62 349.604C1465.76 341.224 1466.56 331.723 1468.58 321.77C1466.16 319.683 1462.4 315.977 1459.44 311.223C1455.43 304.797 1455.21 300.964 1456.82 300.182C1458.37 299.43 1461.59 303.253 1464.31 308.86C1465.85 312.044 1467.72 316.506 1468.98 319.857C1469.82 315.981 1470.85 312.044 1472.09 308.085C1473.23 304.453 1474.37 301.079 1475.5 297.932C1472.92 296.031 1468.95 292.668 1465.66 288.227C1461.15 282.143 1460.62 278.34 1462.16 277.432C1463.64 276.558 1467.6 279.792 1470.76 285.162C1472.62 288.319 1474.68 292.993 1476.08 296.355C1479.06 288.24 1482 281.67 1484.87 276.067C1482.65 274.033 1479.22 270.439 1476.56 265.881C1472.96 259.716 1472.85 256.099 1474.39 255.407C1475.87 254.741 1479.25 258.178 1481.66 263.536C1483.1 266.748 1484.58 271.463 1485.54 274.769C1489.32 267.55 1492.98 261.945 1496.46 256.613L1496.46 256.613L1496.46 256.613C1497.35 255.251 1498.23 253.907 1499.09 252.558Z" fill="url(#paint16_linear)"/>
<path fill-rule="evenodd" clip-rule="evenodd" d="M1334.76 258.297C1333.45 255.625 1331.41 252.133 1327.15 248.886C1323.64 246.217 1319.66 245.218 1318.6 247.487C1316.52 251.911 1322.55 254.342 1328.57 256.773C1330.86 257.694 1331.93 258.462 1332.77 259.124L1332.72 259.189C1334.19 260.445 1335.68 261.679 1337.18 262.931L1337.18 262.931L1337.19 262.932C1339.68 265.007 1342.23 267.13 1344.89 269.475C1342.24 269.346 1338.67 269.255 1336.09 269.481C1331.51 269.881 1328.09 271.497 1328.2 272.766C1328.31 274.085 1331.02 274.942 1336.51 273.866C1340.44 273.097 1343.88 271.561 1345.99 270.448C1351.54 275.419 1357.56 281.436 1364.49 290.029C1361.82 289.373 1358.36 288.613 1355.77 288.344C1350.96 287.842 1347.11 288.872 1346.96 290.245C1346.82 291.674 1349.43 293.133 1355.32 293.099C1359.42 293.075 1363.2 292.179 1365.61 291.43C1368.64 295.264 1371.85 299.594 1375.26 304.543C1378.59 309.381 1381.49 314.309 1384.01 319.191C1381.16 317.701 1376.98 315.867 1372.25 314.85C1364.85 313.257 1361.17 314.347 1360.98 316.128C1360.8 317.841 1365.49 319.576 1371.68 320.233C1375.64 320.653 1381.26 320.916 1384.88 320.907C1389.21 329.585 1392.34 338.066 1394.59 345.577C1391.79 343.101 1387.94 340.756 1384.45 339.166C1378.21 336.328 1370.82 335.683 1369.81 337.91C1368.87 339.975 1371.79 340.833 1378.12 342.692L1378.12 342.692C1378.88 342.917 1379.7 343.157 1380.57 343.415C1383.51 344.295 1386.06 345.106 1388.35 345.832L1388.35 345.833L1388.35 345.833L1388.35 345.833L1388.35 345.833L1388.35 345.833L1388.35 345.834L1388.35 345.834L1388.36 345.834C1390.94 346.655 1393.18 347.369 1395.28 347.953C1395.39 348.349 1395.5 348.743 1395.61 349.133C1397.36 355.549 1398.45 361.082 1399.08 365.179C1399.39 367.227 1399.6 368.913 1399.71 370.166C1399.83 371.45 1399.85 372.218 1399.83 372.47L1401.83 372.623C1401.86 372.179 1401.82 371.251 1401.7 369.983C1401.58 368.683 1401.38 366.958 1401.06 364.874C1400.41 360.708 1399.31 355.1 1397.54 348.605C1397.09 346.989 1396.61 345.318 1396.08 343.6C1398.39 341.779 1400.51 339.211 1404.48 332.743C1406.1 330.106 1407.53 328.128 1408.67 326.562C1411.18 323.103 1412.23 321.656 1410.56 319.57C1408.75 317.303 1401.95 321.97 1398.68 329.42C1396.8 333.688 1395.97 337.726 1395.31 341.178C1392.71 333.211 1389.15 324.368 1384.29 315.45C1385.99 312.744 1388.49 308.096 1389.92 302.678C1391.86 295.356 1390.95 291.627 1389.18 291.355C1387.48 291.092 1385.52 295.695 1384.57 301.854C1384.04 305.352 1383.56 310.168 1383.35 313.74C1381.4 310.284 1379.26 306.824 1376.91 303.408C1374.74 300.274 1372.66 297.384 1370.66 294.71C1372.56 292.133 1375.37 287.748 1377.21 282.534C1379.73 275.391 1379.12 271.601 1377.37 271.188C1375.7 270.79 1372.87 275.047 1371.43 281.11C1370.58 284.673 1369.99 289.747 1369.64 293.371C1364.4 286.495 1359.66 281.082 1355.27 276.573C1356.79 273.976 1359.02 269.53 1360.22 264.39C1361.84 257.438 1360.88 253.95 1359.21 253.742C1357.6 253.542 1355.38 257.822 1354.66 263.65C1354.22 267.146 1354.19 272.089 1354.25 275.531C1348.51 269.746 1343.36 265.467 1338.47 261.397C1337.22 260.358 1335.98 259.331 1334.76 258.297Z" fill="url(#paint17_linear)"/>
<path d="M1762.68 370.968C1771.59 372.573 1780.87 366.311 1787.91 365.871L1811.44 363.173C1809.75 362.449 1803.63 343.968 1811.3 321.246C1820.89 292.843 1811.37 273.51 1799.58 270.566C1787.97 267.664 1790.79 275.097 1780.37 273.401C1769.96 271.705 1775.19 257.88 1766.93 259.163C1756.83 260.732 1744.49 232.154 1725.06 246.085C1710.85 256.276 1729.73 264.208 1723.55 278.645C1717.55 292.673 1711.03 270.796 1695.29 281.887C1683.79 289.99 1704.35 304.61 1709.56 314.454C1714.78 324.297 1699.48 338.969 1703.09 343.026C1710.02 350.841 1726.51 347.164 1735.09 359.142C1741.55 368.147 1751.55 368.962 1762.68 370.968Z" fill="url(#paint18_linear)"/>
<ellipse rx="311.015" ry="311.104" transform="matrix(-0.880692 -0.473689 -0.473306 0.880898 257.242 528.375)" fill="#EE71DB" fill-opacity="0.2"/>
<path fill-rule="evenodd" clip-rule="evenodd" d="M369.585 182.545C369.471 177.951 369.542 171.39 373.424 163.403C376.337 157.408 381.027 153.347 384.009 155.683C389.823 160.239 383.349 167.628 376.874 175.018C374.181 178.092 373.331 179.92 372.606 181.48C372.163 182.432 371.768 183.283 371.027 184.257C370.351 185.832 369.667 187.409 368.976 188.999L368.976 189.001L368.975 189.003C366.942 193.686 364.859 198.484 362.787 203.698C366.33 201.667 371.492 198.855 375.379 197.299C381.844 194.711 387.556 194.561 388.271 196.349C389.015 198.208 385.947 201.209 377.8 203.504C371.674 205.229 365.689 205.445 362.141 205.339C360.257 210.168 358.387 215.368 356.578 221.164L356.682 221.388C356.634 221.36 356.585 221.332 356.535 221.303C354.384 228.21 352.318 235.964 350.417 244.947C353.637 242.163 358.136 238.453 361.673 236.177C367.827 232.218 373.726 230.981 374.855 232.737C376.029 234.564 373.492 238.318 365.527 242.284C359.697 245.188 353.695 246.553 349.961 247.137C349.408 249.848 348.869 252.668 348.347 255.608C348.485 255.834 348.614 256.047 348.736 256.248C348.589 256.184 348.434 256.116 348.271 256.043C347.434 260.792 346.641 265.851 345.899 271.263C344.86 278.852 344.302 286.31 344.121 293.543L344.179 293.658L344.118 293.626C344.084 295.027 344.063 296.419 344.056 297.802C346.85 293.793 351.446 288.075 357.485 283.193C366.389 275.995 372.098 274.956 373.566 277.231C374.978 279.419 369.834 284.957 361.923 290.068C356.69 293.449 348.939 297.816 344.057 300.234C344.141 314.257 345.57 327.286 347.525 338.593L347.58 338.661L347.536 338.655C347.662 339.384 347.79 340.105 347.92 340.819C349.941 335.334 353.743 329.126 357.591 324.329C364.078 316.244 373.614 310.333 376.496 312.648C379.17 314.796 375.814 317.944 368.54 324.769C367.659 325.595 366.72 326.476 365.728 327.415C362.352 330.611 359.461 333.445 356.87 335.985L356.868 335.987L356.867 335.988C353.759 339.035 351.083 341.659 348.518 343.976C348.618 344.486 348.719 344.991 348.821 345.493C350.824 355.37 353.136 363.597 355.081 369.573C356.054 372.561 356.933 374.983 357.635 376.766C358.348 378.576 358.854 379.666 359.078 380.035L357.367 381.071C357.044 380.537 356.482 379.296 355.775 377.499C355.056 375.675 354.163 373.214 353.18 370.193C351.213 364.149 348.881 355.849 346.861 345.891C346.835 345.764 346.81 345.637 346.784 345.509C346.724 345.561 346.664 345.612 346.604 345.664C346.633 345.476 346.665 345.287 346.701 345.096C346.268 342.921 345.85 340.669 345.454 338.347C340.921 337.525 336.343 335.591 326.181 329.321C322.201 326.866 318.916 325.174 316.315 323.836C310.573 320.879 308.169 319.642 308.999 315.688C309.901 311.394 322.263 313.053 331.751 320.877C337.554 325.662 341.577 330.901 344.951 335.293L344.954 335.297C343.338 325.035 342.191 313.501 342.065 301.184C341.967 301.228 341.871 301.271 341.778 301.312C341.866 301.164 341.96 301.007 342.062 300.841C342.038 298.102 342.065 295.324 342.149 292.513C338.06 290.094 331.209 285.411 325.348 278.815C317.741 270.255 316.435 264.599 318.637 263.024C320.755 261.51 326.527 266.39 332.003 274.055C335.3 278.671 339.511 285.332 342.235 290.085C342.491 283.855 343.031 277.471 343.918 270.992C344.691 265.351 345.52 260.089 346.397 255.159C342.103 253.042 335.038 248.96 328.778 242.959C320.512 235.037 318.757 229.503 320.827 227.757C322.816 226.078 329.54 229.891 335.611 237.093C339.346 241.524 343.839 248.375 346.776 253.065C347.132 251.131 347.495 249.249 347.865 247.417C347.767 247.427 347.673 247.437 347.582 247.446C347.689 247.349 347.802 247.248 347.921 247.142C350.026 236.761 352.348 227.969 354.774 220.236C350.986 217.838 344.678 213.243 339.35 206.882C332.42 198.608 331.346 193.242 333.464 191.819C335.501 190.451 341.408 194.716 346.356 202.09C349.466 206.726 353.059 213.812 355.322 218.512C359.168 206.573 363.253 197.163 367.139 188.211L367.139 188.211L367.139 188.21L367.139 188.21L367.14 188.209C367.965 186.307 368.782 184.426 369.585 182.545Z" fill="url(#paint19_linear)"/>
<path d="M314.034 324.428C313.626 338.805 325.36 351.742 327.657 362.67L337.209 398.856C337.93 396.022 364.845 381.707 401.437 387.921C447.177 395.689 474.613 375.811 476.412 356.587C478.185 337.644 467.442 343.959 467.643 327.202C467.845 310.445 484.177 290.038 480.307 277.416C475.577 261.989 462.881 273.753 461.385 248.031C459.775 220.332 478.193 196.715 454.644 190.718C431.76 184.892 424.683 216.706 412.68 223.993C393.813 235.445 388.005 215.124 374.119 225.811C360.233 236.498 363.449 256.415 358.061 263.096C347.68 275.969 342.187 261.64 325.805 278.156C313.491 290.571 314.545 306.457 314.034 324.428Z" fill="url(#paint20_linear)"/>
<path fill-rule="evenodd" clip-rule="evenodd" d="M443.549 237.169C446.241 235.014 450.966 230.708 454.679 225.004C459.317 217.881 459.651 213.584 457.86 212.672C456.139 211.795 451.923 215.687 448.75 221.919C446.634 226.075 444.355 232.437 443.058 236.289C441.459 233.438 439.882 230.745 438.338 228.107C437.989 227.512 437.643 226.92 437.298 226.329C436.45 222.13 434.554 215.513 430.731 209.58C425.508 201.475 420.716 199.672 418.458 201.622C416.286 203.496 418.019 210.033 423.177 216.015C426.431 219.789 431.891 224.382 435.545 227.294C435.899 227.898 436.254 228.505 436.61 229.113L436.61 229.114C438.667 232.627 440.774 236.227 442.913 240.164C439.163 238.552 433.032 236.06 428.598 234.877C421.844 233.076 416.132 233.614 415.635 235.482C415.117 237.425 418.536 240.046 426.932 241.353C433.687 242.404 440.076 241.751 443.464 241.184C446 245.913 448.577 251.143 451.162 257.288C448.05 255.949 443.392 254.064 439.962 253.15C434.395 251.665 429.674 252.16 429.25 253.748C428.81 255.401 431.617 257.604 438.543 258.657C443.78 259.454 448.759 258.976 451.666 258.498C454.139 264.491 456.617 271.346 459.071 279.426L458.961 279.669C459.012 279.64 459.064 279.609 459.117 279.577C459.457 280.699 459.796 281.844 460.135 283.013C456.704 281.03 450.818 277.777 446.518 276.086C440.147 273.579 434.518 273.493 433.815 275.283C433.083 277.144 436.108 280.1 444.137 282.296C450.679 284.085 457.058 284.11 460.393 283.908C461.061 286.238 461.726 288.665 462.389 291.195C464.189 298.067 465.45 304.861 466.29 311.439C463.713 308.59 459.68 304.706 454.662 301.562C447.022 296.776 442.46 296.503 441.527 298.42C440.629 300.264 445.174 304.108 451.841 307.357C456.171 309.467 462.489 312.091 466.545 313.539C467.546 322.224 467.827 330.503 467.673 338.055C463.248 334.625 455.461 329.434 449.774 326.259C441.318 321.539 433.539 320.023 431.857 323.041C430.107 326.179 433.481 331.445 444.486 335.743C453.358 339.208 462.621 339.704 467.636 339.597C467.537 343.047 467.35 346.338 467.102 349.435C466.468 357.338 465.437 363.98 464.482 368.829C464.004 371.253 463.546 373.226 463.167 374.681C462.78 376.166 462.49 377.048 462.359 377.34L464.182 378.163C464.392 377.696 464.718 376.656 465.101 375.186C465.492 373.688 465.959 371.675 466.444 369.216C467.413 364.298 468.454 357.58 469.095 349.596C469.252 347.638 469.385 345.603 469.487 343.5C474.32 342.109 482.98 338.893 490.398 332.98C499.638 325.614 501.303 319.586 498.702 317.106C496.202 314.723 489.221 318.474 482.54 325.488C478.337 329.901 472.9 336.545 469.586 341.139C469.882 332.977 469.693 323.867 468.636 314.241L468.652 314.246L468.634 314.223C468.382 311.927 468.081 309.602 467.724 307.253C470.709 304.939 475.499 300.693 479.375 295.105C484.514 287.695 485.002 283.149 483.132 282.125C481.333 281.141 477.281 285.502 473.723 292.012C471.645 295.813 469.078 301.2 467.391 305.145C466.609 300.398 465.601 295.563 464.323 290.688C463.181 286.325 462.029 282.267 460.872 278.476C464.042 276.387 469.066 272.576 473.311 267.395C479.026 260.42 479.876 255.928 478.093 254.758C476.379 253.634 471.483 257.25 467.415 263.454C464.973 267.18 462.182 272.778 460.327 276.712C457.902 268.954 455.455 262.341 453.015 256.539C455.72 254.363 460.388 250.086 464.064 244.439C468.702 237.316 469.036 233.019 467.245 232.107C465.524 231.23 461.308 235.122 458.135 241.354C456.073 245.404 453.856 251.55 452.544 255.426C449.511 248.338 446.494 242.468 443.549 237.169Z" fill="url(#paint21_linear)"/>
<path fill-rule="evenodd" clip-rule="evenodd" d="M402.82 277.643C403.954 275.174 405.677 270.675 406.283 265.587C407.062 259.05 405.822 255.952 404.266 255.933C402.77 255.914 401.176 260.063 401.109 265.479C401.065 268.976 401.624 273.963 402.04 277.107C400.011 275.719 398.048 274.425 396.123 273.158C395.486 272.738 394.853 272.321 394.224 271.904C392.138 269.302 388.732 265.705 384.369 263.092C377.965 259.256 374.02 259.648 373.12 261.776C372.255 263.823 375.697 267.767 381.329 270.151C384.682 271.571 389.651 272.824 393.171 273.606C393.784 274.011 394.4 274.417 395.019 274.825C397.579 276.511 400.198 278.237 402.944 280.169C399.771 280.345 394.91 280.715 391.557 281.388C386.249 282.455 382.468 284.788 382.763 286.255C383.069 287.782 386.341 288.429 392.618 286.456C397.522 284.915 401.635 282.377 403.846 280.807C407.19 283.192 410.729 285.901 414.579 289.227C411.972 289.371 408.295 289.658 405.708 290.178C401.334 291.057 398.225 293.02 398.476 294.268C398.736 295.566 401.44 296.133 406.61 294.489C410.39 293.287 413.594 291.34 415.479 290.011C419.758 293.768 424.422 298.294 429.624 303.973C426.529 303.778 421.562 303.565 418.12 303.854C412.837 304.299 408.9 306.171 409.025 307.655C409.154 309.198 412.267 310.213 418.595 308.984C423.6 308.011 427.93 305.936 430.233 304.641C431.505 306.039 432.809 307.507 434.146 309.049C437.669 313.109 440.808 317.294 443.597 321.477C440.84 320.414 436.869 319.193 432.504 318.751C425.559 318.048 422.298 319.423 422.307 321.075C422.316 322.663 426.789 323.773 432.531 323.742C436.169 323.723 441.285 323.394 444.609 323.019C448.266 328.675 451.291 334.297 453.768 339.572C449.49 338.724 442.503 337.824 437.573 337.576C430.085 337.199 424.164 338.815 424.03 341.487C423.89 344.267 428.037 346.765 437.151 345.975C444.358 345.35 450.848 342.612 454.345 340.814C455.455 343.236 456.449 345.577 457.336 347.807C459.6 353.503 461.158 358.46 462.154 362.147C462.652 363.991 463.009 365.513 463.243 366.649C463.483 367.814 463.581 368.508 463.589 368.734L465.588 368.665C465.573 368.247 465.439 367.395 465.202 366.245C464.958 365.065 464.592 363.503 464.085 361.626C463.07 357.871 461.489 352.841 459.194 347.068C458.623 345.631 458.007 344.147 457.344 342.624C460.244 339.952 465.022 334.824 468.083 328.308C471.975 320.024 471.065 315.267 468.41 314.437C465.857 313.64 462.295 318.64 460.06 325.801C458.696 330.171 457.246 336.395 456.497 340.714C453.283 333.604 449.07 325.763 443.637 317.989C444.911 315.325 446.697 310.85 447.451 305.79C448.481 298.882 447.262 295.558 445.612 295.489C444.026 295.423 442.707 299.841 442.467 305.581C442.333 308.795 442.385 313.175 442.549 316.455C440.432 313.518 438.139 310.598 435.657 307.738C433.35 305.079 431.142 302.638 429.024 300.388C430.505 297.823 432.604 293.551 433.746 288.63C435.324 281.827 434.375 278.416 432.736 278.215C431.161 278.022 429 282.213 428.302 287.916C427.896 291.23 427.865 295.872 427.917 299.22C423.616 294.719 419.685 291.005 416.032 287.84C417.166 285.354 418.859 280.897 419.459 275.863C420.238 269.326 418.998 266.228 417.442 266.208C415.946 266.19 414.353 270.339 414.285 275.754C414.243 279.151 414.769 283.954 415.18 287.108C410.702 283.287 406.64 280.284 402.82 277.643Z" fill="url(#paint22_linear)"/>
<path d="M557.528 398.931C551.225 410.91 535.629 416.094 528.699 423.994L504.157 449.253C504.874 446.597 489.413 422.417 456.536 410.599C415.44 395.827 402.12 366.844 409.521 350.248C416.814 333.895 422.708 344.039 430.28 330.204C437.852 316.369 433.882 292.085 442.884 283.523C453.886 273.059 458.865 288.575 471.968 268.173C486.079 246.202 481.88 218.321 503.961 224.289C525.417 230.088 516.53 259.449 523.009 270.973C533.192 289.085 547.339 275.105 553.791 290.287C560.244 305.469 548.41 320.316 549.744 328.286C552.313 343.64 563.433 334.429 569.241 355.545C573.607 371.418 565.408 383.958 557.528 398.931Z" fill="url(#paint23_linear)"/>
<path fill-rule="evenodd" clip-rule="evenodd" d="M502.389 274.998C504.916 273.414 509.284 270.264 512.958 265.866C517.621 260.282 518.341 256.664 516.912 255.707C515.537 254.787 511.559 257.667 508.231 262.642C506.053 265.898 503.524 270.946 502.02 274.103C500.966 271.56 499.916 269.15 498.887 266.787L498.887 266.787C498.593 266.114 498.302 265.445 498.012 264.778C497.678 261.107 496.709 255.539 494.167 250.326C490.55 242.907 486.66 240.889 484.542 242.317C482.507 243.69 483.317 249.421 487.095 255.03C489.4 258.451 493.381 262.733 496.183 265.585C496.471 266.249 496.76 266.913 497.051 267.582L497.052 267.582L497.052 267.582L497.052 267.582L497.052 267.583C498.422 270.726 499.824 273.945 501.219 277.441C498.181 275.688 493.359 273.035 489.79 271.611C484.232 269.395 479.323 269.273 478.711 270.81C478.074 272.409 480.714 274.984 487.717 276.946C493.257 278.498 498.662 278.615 501.634 278.487C503.3 282.735 504.951 287.407 506.517 292.845C504.01 291.398 500.353 289.394 497.596 288.295C493.015 286.468 488.952 286.41 488.431 287.717C487.89 289.077 490.052 291.234 495.832 292.832C500.118 294.018 504.318 294.136 506.854 294.034C508.362 299.423 509.785 305.559 511.061 312.754L511.056 312.763L511.062 312.76C511.227 313.689 511.389 314.635 511.549 315.599C508.812 313.555 504.257 310.29 500.844 308.454C495.683 305.677 490.908 305.033 490.128 306.483C489.318 307.99 491.589 310.81 498.19 313.491C503.478 315.638 508.805 316.32 511.696 316.501C512.029 318.558 512.351 320.698 512.659 322.926C513.481 328.87 513.864 334.696 513.919 340.303C512.01 337.639 509.03 334.035 505.183 330.934C499.174 326.09 495.325 325.395 494.337 326.93C493.388 328.406 496.861 332.135 502.198 335.573C505.615 337.774 510.621 340.595 513.925 342.247C513.899 349.709 513.305 356.755 512.415 363.145C508.978 359.778 502.981 354.663 498.525 351.429C491.817 346.559 485.359 344.481 483.623 346.875C481.817 349.365 484.151 354.183 493.069 358.953C500.178 362.755 507.908 364.129 512.211 364.563C511.778 367.481 511.286 370.253 510.762 372.857C509.423 379.504 507.875 385.039 506.573 389.058C505.922 391.068 505.334 392.695 504.865 393.891C504.385 395.114 504.054 395.824 503.92 396.047L505.632 397.08C505.866 396.692 506.252 395.831 506.727 394.622C507.212 393.384 507.814 391.718 508.476 389.675C509.799 385.588 511.367 379.979 512.722 373.252C513.057 371.588 513.379 369.854 513.682 368.058C517.96 367.347 525.548 365.486 532.371 361.263C540.971 355.941 542.997 350.986 541.039 348.615C539.155 346.335 532.841 348.815 526.452 354.098C522.503 357.364 517.324 362.339 514.031 365.897C515.353 357.357 516.19 347.525 515.85 337.011C518.631 335.327 523.046 332.237 526.842 327.953C531.961 322.176 532.837 318.362 531.351 317.303C529.922 316.284 526.036 319.579 522.352 324.751C520.252 327.698 517.603 331.882 515.772 335.039C515.585 330.993 515.221 326.852 514.639 322.652C514.108 318.81 513.538 315.229 512.935 311.875C515.849 310.405 520.426 307.699 524.496 303.787C530.061 298.439 531.239 294.707 529.842 293.532C528.5 292.402 523.971 294.979 519.885 299.839C517.478 302.703 514.603 307.064 512.63 310.208C511.358 303.411 509.954 297.574 508.474 292.42C511.013 290.82 515.329 287.69 518.965 283.337C523.628 277.753 524.348 274.136 522.918 273.178C521.544 272.258 517.566 275.139 514.238 280.113C512.119 283.281 509.669 288.143 508.152 291.312C506.302 285.031 504.343 279.771 502.389 274.998Z" fill="url(#paint24_linear)" fill-opacity="0.7"/>
<path fill-rule="evenodd" clip-rule="evenodd" d="M587.522 260.476C588.409 257.343 589.901 253.131 593.93 248.749C597.173 245.224 601.24 243.396 602.811 245.621C605.874 249.958 599.892 253.708 593.91 257.459C591.642 258.88 590.641 259.906 589.861 260.776L589.865 260.78C588.527 262.404 587.174 264.008 585.801 265.635L585.801 265.636L585.801 265.636C583.505 268.357 581.155 271.143 578.733 274.193C581.563 273.543 585.437 272.745 588.283 272.49C593.268 272.043 597.232 273.12 597.356 274.498C597.484 275.932 594.753 277.364 588.67 277.262C584.271 277.187 580.249 276.178 577.794 275.384C572.793 281.779 567.479 289.392 561.691 299.95C564.44 298.728 568.066 297.221 570.826 296.426C575.88 294.972 580.197 295.338 580.611 296.78C581.043 298.28 578.521 300.341 572.22 301.427C567.773 302.193 563.511 301.942 560.799 301.593C559.797 303.457 558.781 305.411 557.75 307.464L557.778 307.572L557.72 307.523C556.176 310.599 554.598 313.895 552.984 317.44C550.317 323.296 548.141 329.166 546.371 334.91C549.133 332.76 553.314 329.948 558.243 327.93C565.858 324.813 570.003 325.277 570.544 327.147C571.065 328.945 566.381 331.695 559.88 333.58C555.692 334.795 549.668 336.16 545.791 336.836C542.803 346.994 541.066 356.707 540.1 365.197C542.625 361.973 546.345 358.674 549.829 356.274C555.963 352.047 563.748 349.947 565.255 352.136C566.652 354.166 563.693 355.641 557.276 358.837L557.276 358.838C556.499 359.225 555.671 359.637 554.794 360.079C551.81 361.582 549.234 362.936 546.926 364.15L546.925 364.151C544.278 365.543 541.983 366.75 539.825 367.785C539.783 368.213 539.743 368.637 539.704 369.058C539.047 376.261 538.942 382.391 539.048 386.897C539.101 389.151 539.206 390.994 539.321 392.36C539.439 393.756 539.561 394.588 539.632 394.862L537.696 395.363C537.577 394.902 537.445 393.909 537.328 392.529C537.21 391.118 537.102 389.233 537.048 386.945C536.941 382.368 537.048 376.161 537.713 368.877C537.877 367.075 538.076 365.206 538.314 363.279C535.461 361.774 532.705 359.445 527.174 353.223C524.94 350.711 523.027 348.868 521.513 347.409C518.169 344.188 516.77 342.84 518.157 340.289C519.664 337.518 527.832 341.213 532.751 348.56C535.613 352.836 537.282 357.061 538.657 360.667C539.912 351.625 542.04 341.449 545.543 330.942C543.216 328.383 539.613 323.854 537.02 318.278C533.549 310.815 533.817 306.651 535.658 306.021C537.428 305.416 540.395 309.968 542.584 316.376C543.844 320.067 545.294 325.218 546.201 329.015C547.632 324.907 549.276 320.757 551.164 316.611C552.874 312.856 554.545 309.376 556.178 306.139C553.65 303.756 549.766 299.574 546.779 294.301C542.723 287.139 542.657 282.967 544.441 282.192C546.158 281.447 550 285.461 552.694 291.674C554.294 295.364 555.916 300.755 556.975 304.575C561.279 296.193 565.329 289.48 569.175 283.805C567.052 281.328 563.787 276.965 561.501 271.646C558.437 264.518 558.804 260.602 560.556 260.06C562.241 259.539 565.428 263.695 567.313 269.794C568.456 273.491 569.438 278.851 570.034 282.55C575.089 275.232 579.794 269.655 584.27 264.349L584.271 264.349L584.272 264.348C585.368 263.048 586.451 261.764 587.522 260.476Z" fill="url(#paint25_linear)"/>
</g>
</g>
<defs>
<linearGradient id="paint0_linear" x1="-849.559" y1="200.148" x2="-601.199" y2="-739.737" gradientUnits="userSpaceOnUse">
<stop offset="0.015625" stop-color="#0ACAC0"/>
<stop offset="0.630208" stop-color="#1D0F5C"/>
<stop offset="0.994792" stop-color="#160F30"/>
</linearGradient>
<linearGradient id="paint1_linear" x1="1433.25" y1="319.5" x2="1337.07" y2="132.385" gradientUnits="userSpaceOnUse">
<stop offset="0.00398809" stop-color="#184479"/>
<stop offset="1" stop-color="#483381" stop-opacity="0"/>
</linearGradient>
<linearGradient id="paint2_linear" x1="341.67" y1="76.4387" x2="236.986" y2="423.859" gradientUnits="userSpaceOnUse">
<stop stop-color="#1A2F6E" stop-opacity="0"/>
<stop offset="0.449893" stop-color="#1D1962"/>
</linearGradient>
<linearGradient id="paint3_linear" x1="1692.19" y1="159.019" x2="1672.51" y2="290.871" gradientUnits="userSpaceOnUse">
<stop stop-color="#796BB7" stop-opacity="0"/>
<stop offset="1" stop-color="#18487B"/>
</linearGradient>
<linearGradient id="paint4_linear" x1="-25.4753" y1="128.674" x2="26.9763" y2="400.016" gradientUnits="userSpaceOnUse">
<stop stop-color="#796BB7"/>
<stop offset="1" stop-color="#18487B"/>
</linearGradient>
<linearGradient id="paint5_linear" x1="166.409" y1="283.523" x2="-2.27349" y2="108.82" gradientUnits="userSpaceOnUse">
<stop stop-color="#11004E"/>
<stop offset="1" stop-color="#11004E" stop-opacity="0"/>
</linearGradient>
<linearGradient id="paint6_linear" x1="203.32" y1="272.389" x2="180.403" y2="92.2099" gradientUnits="userSpaceOnUse">
<stop stop-color="#11004E"/>
<stop offset="1" stop-color="#11004E" stop-opacity="0"/>
</linearGradient>
<linearGradient id="paint7_linear" x1="1755.63" y1="330.098" x2="1921.12" y2="55.3746" gradientUnits="userSpaceOnUse">
<stop stop-color="#24194B"/>
<stop offset="1" stop-color="#11004E" stop-opacity="0"/>
</linearGradient>
<linearGradient id="paint8_linear" x1="1670.76" y1="362.541" x2="1670.33" y2="118.222" gradientUnits="userSpaceOnUse">
<stop stop-color="#11004E"/>
<stop offset="1" stop-color="#11004E" stop-opacity="0"/>
</linearGradient>
<linearGradient id="paint9_linear" x1="1538.65" y1="304.362" x2="1619.34" y2="236.289" gradientUnits="userSpaceOnUse">
<stop stop-color="#11004E"/>
<stop offset="1" stop-color="#11004E" stop-opacity="0"/>
</linearGradient>
<linearGradient id="paint10_linear" x1="1522.18" y1="291.566" x2="1578.69" y2="180.877" gradientUnits="userSpaceOnUse">
<stop stop-color="#11004E"/>
<stop offset="1" stop-color="#11004E" stop-opacity="0"/>
</linearGradient>
<linearGradient id="paint11_linear" x1="1408.77" y1="176.5" x2="1601.65" y2="291.218" gradientUnits="userSpaceOnUse">
<stop stop-color="#796BB7" stop-opacity="0.95"/>
<stop offset="1" stop-color="#18487B"/>
</linearGradient>
<linearGradient id="paint12_linear" x1="1826.93" y1="159.959" x2="1903.43" y2="285.973" gradientUnits="userSpaceOnUse">
<stop stop-color="#482371" stop-opacity="0"/>
<stop offset="1" stop-color="#190F3E"/>
</linearGradient>
<linearGradient id="paint13_linear" x1="123.257" y1="110.084" x2="295.533" y2="312.518" gradientUnits="userSpaceOnUse">
<stop stop-color="#796BB7"/>
<stop offset="1" stop-color="#18487B"/>
</linearGradient>
<linearGradient id="paint14_linear" x1="1774.32" y1="366.002" x2="1579.53" y2="358.902" gradientUnits="userSpaceOnUse">
<stop stop-color="#1C0F54"/>
<stop offset="0.999648" stop-color="#3E4880"/>
</linearGradient>
<linearGradient id="paint15_linear" x1="1402.32" y1="240.793" x2="1463.97" y2="329.614" gradientUnits="userSpaceOnUse">
<stop stop-color="#150064" stop-opacity="0"/>
<stop offset="1" stop-color="#150064"/>
</linearGradient>
<linearGradient id="paint16_linear" x1="1471.62" y1="252.138" x2="1492.18" y2="338.607" gradientUnits="userSpaceOnUse">
<stop stop-color="#150064" stop-opacity="0"/>
<stop offset="1" stop-color="#150064"/>
</linearGradient>
<linearGradient id="paint17_linear" x1="1360.89" y1="249.802" x2="1366.71" y2="338.494" gradientUnits="userSpaceOnUse">
<stop stop-color="#150064" stop-opacity="0"/>
<stop offset="1" stop-color="#150064"/>
</linearGradient>
<linearGradient id="paint18_linear" x1="1668.52" y1="240.812" x2="1758.11" y2="368.405" gradientUnits="userSpaceOnUse">
<stop stop-color="#796BB7"/>
<stop offset="1" stop-color="#18487B"/>
</linearGradient>
<linearGradient id="paint19_linear" x1="294.436" y1="117.429" x2="363.113" y2="355.67" gradientUnits="userSpaceOnUse">
<stop stop-color="#B00095" stop-opacity="0.56"/>
<stop offset="1" stop-color="#150064"/>
</linearGradient>
<linearGradient id="paint20_linear" x1="491.831" y1="143.539" x2="312.717" y2="312.154" gradientUnits="userSpaceOnUse">
<stop stop-color="#796BB7"/>
<stop offset="1" stop-color="#18487B"/>
</linearGradient>
<linearGradient id="paint21_linear" x1="470.328" y1="320.331" x2="416.151" y2="191.338" gradientUnits="userSpaceOnUse">
<stop stop-color="#11004E"/>
<stop offset="1" stop-color="#11004E" stop-opacity="0"/>
</linearGradient>
<linearGradient id="paint22_linear" x1="449.987" y1="326.455" x2="368.087" y2="255.306" gradientUnits="userSpaceOnUse">
<stop stop-color="#11004E"/>
<stop offset="1" stop-color="#11004E" stop-opacity="0"/>
</linearGradient>
<linearGradient id="paint23_linear" x1="495.25" y1="168.41" x2="564.227" y2="389.49" gradientUnits="userSpaceOnUse">
<stop stop-color="#796BB7"/>
<stop offset="1" stop-color="#18487B"/>
</linearGradient>
<linearGradient id="paint24_linear" x1="516.672" y1="348.561" x2="478.104" y2="210.34" gradientUnits="userSpaceOnUse">
<stop stop-color="#0D003C"/>
<stop offset="1" stop-color="#371C9D" stop-opacity="0"/>
</linearGradient>
<linearGradient id="paint25_linear" x1="621.744" y1="244.046" x2="549.577" y2="313.333" gradientUnits="userSpaceOnUse">
<stop offset="0.0715084" stop-color="#B3A1F3" stop-opacity="0"/>
<stop offset="1" stop-color="#372577"/>
</linearGradient>
</defs>
</svg>
