<svg width="321" height="38" viewBox="0 0 321 38" fill="none" xmlns="http://www.w3.org/2000/svg">
<path d="M24.84 0.600487V29.0005H19.36V16.8805H6.48V29.0005H0.96V0.600487H6.48V12.0805H19.36V0.600487H24.84ZM39.6131 29.4005C37.3465 29.4005 35.3865 28.9072 33.7331 27.9205C32.1065 26.9338 30.8398 25.6272 29.9331 24.0005C29.0265 22.3472 28.5731 20.5605 28.5731 18.6405C28.5731 16.6672 29.0131 14.8538 29.8931 13.2005C30.7998 11.5205 32.0798 10.1872 33.7331 9.20049C35.3865 8.18715 37.3598 7.68049 39.6531 7.68049C41.9465 7.68049 43.9065 8.18715 45.5331 9.20049C47.1598 10.1872 48.3998 11.5072 49.2531 13.1605C50.1331 14.7872 50.5731 16.5472 50.5731 18.4405C50.5731 19.1338 50.5331 19.7338 50.4531 20.2405H34.2531C34.3865 21.8672 34.9865 23.1472 36.0531 24.0805C37.1465 25.0138 38.3998 25.4805 39.8131 25.4805C40.8798 25.4805 41.8798 25.2272 42.8131 24.7205C43.7731 24.1872 44.4265 23.4938 44.7731 22.6405L49.3731 23.9205C48.5998 25.5205 47.3598 26.8405 45.6531 27.8805C43.9465 28.8938 41.9331 29.4005 39.6131 29.4005ZM34.1331 16.8405H45.0931C44.9331 15.2672 44.3331 14.0005 43.2931 13.0405C42.2798 12.0538 41.0398 11.5605 39.5731 11.5605C38.1331 11.5605 36.8931 12.0538 35.8531 13.0405C34.8398 14.0005 34.2665 15.2672 34.1331 16.8405ZM53.8384 29.0005V8.04049H65.5184C66.9584 8.04049 68.1184 8.28049 68.9984 8.76049C69.9051 9.24049 70.5718 9.86715 70.9984 10.6405C71.4251 11.4138 71.6384 12.2405 71.6384 13.1205C71.6384 14.2938 71.3718 15.3205 70.8384 16.2005C70.3051 17.0805 69.5051 17.7605 68.4384 18.2405C69.6651 18.5605 70.6651 19.1472 71.4384 20.0005C72.2118 20.8538 72.5984 21.9605 72.5984 23.3205C72.5984 25.2938 71.9051 26.7338 70.5184 27.6405C69.1584 28.5472 67.3051 29.0005 64.9584 29.0005H53.8384ZM58.9184 16.7605H64.1584C64.8784 16.7605 65.4651 16.5072 65.9184 16.0005C66.3718 15.4672 66.5984 14.8405 66.5984 14.1205C66.5984 13.4272 66.3718 12.8538 65.9184 12.4005C65.4918 11.9205 64.9184 11.6805 64.1984 11.6805H58.9184V16.7605ZM58.9184 25.3605H64.7984C65.5451 25.3605 66.1584 25.1072 66.6384 24.6005C67.1451 24.0938 67.3984 23.4672 67.3984 22.7205C67.3984 21.9738 67.1584 21.3605 66.6784 20.8805C66.1984 20.3738 65.5851 20.1205 64.8384 20.1205H58.9184V25.3605ZM76.4947 29.0005V8.08049H81.8547V21.8405L91.2547 8.04049H96.1347V29.0005H90.7747V15.5605L81.4947 29.0005H76.4947ZM99.3059 34.0805V24.3205H99.8659C100.559 24.3205 101.199 24.0538 101.786 23.5205C102.373 22.9872 102.853 22.0272 103.226 20.6405C103.626 19.2538 103.866 17.2538 103.946 14.6405L104.186 8.04049H119.906V24.3205H122.826V34.0805H118.146V29.0005H104.026V34.0805H99.3059ZM106.626 24.3205H114.546V12.5605H108.866L108.746 15.1605C108.639 17.8272 108.413 19.8672 108.066 21.2805C107.719 22.6938 107.239 23.7072 106.626 24.3205ZM126.299 29.0005V8.08049H131.659V21.8405L141.059 8.04049H145.939V29.0005H140.579V15.5605L131.299 29.0005H126.299ZM150.831 29.0005V8.04049H156.431L162.991 20.1605L169.591 8.04049H175.111V29.0005H170.031V15.4405L164.671 25.2805H161.311L155.911 15.4405V29.0005H150.831ZM180.049 29.0005V8.04049H185.409V14.6405H189.089C191.623 14.6405 193.556 15.2805 194.889 16.5605C196.223 17.8405 196.889 19.5338 196.889 21.6405C196.889 23.8005 196.249 25.5738 194.969 26.9605C193.716 28.3205 191.876 29.0005 189.449 29.0005H180.049ZM200.169 29.0005V8.08049H205.529V29.0005H200.169ZM185.409 24.9205H188.609C189.703 24.9205 190.503 24.6138 191.009 24.0005C191.516 23.3605 191.769 22.5872 191.769 21.6805C191.769 20.8005 191.529 20.0672 191.049 19.4805C190.569 18.8672 189.743 18.5605 188.569 18.5605H185.409V24.9205ZM210.44 29.0005V8.08049H215.8V21.8405L225.2 8.04049H230.08V29.0005H224.72V15.5605L215.44 29.0005H210.44ZM220.28 6.08049C218.227 6.08049 216.613 5.56049 215.44 4.52049C214.267 3.45382 213.68 2.09382 213.68 0.440486H217C217 1.24049 217.253 1.90715 217.76 2.44049C218.293 2.97382 219.133 3.24049 220.28 3.24049C221.4 3.24049 222.2 2.98715 222.68 2.48049C223.187 1.97382 223.493 1.29382 223.6 0.440486H226.92C226.92 2.09382 226.333 3.45382 225.16 4.52049C223.987 5.56049 222.36 6.08049 220.28 6.08049ZM244.581 29.0005V8.04049H250.181L256.741 20.1605L263.341 8.04049H268.861V29.0005H263.781V15.4405L258.421 25.2805H255.061L249.661 15.4405V29.0005H244.581ZM273.799 29.0005V8.08049H279.159V21.8405L288.559 8.04049H293.439V29.0005H288.079V15.5605L278.799 29.0005H273.799ZM310.891 29.4005C309.237 29.4005 307.797 29.0272 306.571 28.2805C305.344 27.5338 304.384 26.5472 303.691 25.3205V37.5205H298.331V8.04049H303.011V11.6405C303.784 10.4138 304.784 9.45382 306.011 8.76049C307.264 8.04049 308.677 7.68049 310.251 7.68049C312.144 7.68049 313.824 8.17382 315.291 9.16049C316.757 10.1205 317.917 11.4272 318.771 13.0805C319.624 14.7072 320.051 16.5072 320.051 18.4805C320.051 20.5338 319.651 22.3872 318.851 24.0405C318.077 25.6672 316.997 26.9738 315.611 27.9605C314.251 28.9205 312.677 29.4005 310.891 29.4005ZM309.091 24.8405C310.184 24.8405 311.131 24.5472 311.931 23.9605C312.757 23.3472 313.397 22.5605 313.851 21.6005C314.331 20.6138 314.571 19.5738 314.571 18.4805C314.571 17.3072 314.317 16.2538 313.811 15.3205C313.304 14.3605 312.611 13.6138 311.731 13.0805C310.877 12.5205 309.891 12.2405 308.771 12.2405C307.757 12.2405 306.744 12.5738 305.731 13.2405C304.717 13.9072 304.037 14.7472 303.691 15.7605V20.6805C304.171 21.8538 304.904 22.8405 305.891 23.6405C306.877 24.4405 307.944 24.8405 309.091 24.8405Z" fill="url(#paint0_linear)"/>
<defs>
<linearGradient id="paint0_linear" x1="1.25301" y1="-8.9995" x2="306.644" y2="39.1999" gradientUnits="userSpaceOnUse">
<stop stop-color="#48DBD2"/>
<stop offset="0.0001" stop-color="#48DBD2"/>
<stop offset="1" stop-color="#6250AC"/>
</linearGradient>
</defs>
</svg>
