<svg width="766" height="90" viewBox="0 0 766 90" fill="none" xmlns="http://www.w3.org/2000/svg">
<path d="M57.416 0.839996V69H44.264V39.912H13.352V69H0.104V0.839996H13.352V28.392H44.264V0.839996H57.416ZM92.8715 69.96C87.4315 69.96 82.7275 68.776 78.7595 66.408C74.8555 64.04 71.8155 60.904 69.6395 57C67.4635 53.032 66.3755 48.744 66.3755 44.136C66.3755 39.4 67.4315 35.048 69.5435 31.08C71.7195 27.048 74.7915 23.848 78.7595 21.48C82.7275 19.048 87.4635 17.832 92.9675 17.832C98.4715 17.832 103.176 19.048 107.08 21.48C110.984 23.848 113.96 27.016 116.008 30.984C118.12 34.888 119.176 39.112 119.176 43.656C119.176 45.32 119.08 46.76 118.888 47.976H80.0075C80.3275 51.88 81.7675 54.952 84.3275 57.192C86.9515 59.432 89.9595 60.552 93.3515 60.552C95.9115 60.552 98.3115 59.944 100.552 58.728C102.856 57.448 104.424 55.784 105.256 53.736L116.296 56.808C114.44 60.648 111.464 63.816 107.368 66.312C103.272 68.744 98.4395 69.96 92.8715 69.96ZM79.7195 39.816H106.024C105.64 36.04 104.2 33 101.704 30.696C99.2715 28.328 96.2955 27.144 92.7755 27.144C89.3195 27.144 86.3435 28.328 83.8475 30.696C81.4155 33 80.0395 36.04 79.7195 39.816ZM127.012 69V18.696H155.044C158.5 18.696 161.284 19.272 163.396 20.424C165.572 21.576 167.172 23.08 168.196 24.936C169.22 26.792 169.732 28.776 169.732 30.888C169.732 33.704 169.092 36.168 167.812 38.28C166.532 40.392 164.612 42.024 162.052 43.176C164.996 43.944 167.396 45.352 169.252 47.4C171.108 49.448 172.036 52.104 172.036 55.368C172.036 60.104 170.372 63.56 167.044 65.736C163.78 67.912 159.332 69 153.7 69H127.012ZM139.204 39.624H151.78C153.508 39.624 154.916 39.016 156.004 37.8C157.092 36.52 157.636 35.016 157.636 33.288C157.636 31.624 157.092 30.248 156.004 29.16C154.98 28.008 153.604 27.432 151.876 27.432H139.204V39.624ZM139.204 60.264H153.316C155.108 60.264 156.58 59.656 157.732 58.44C158.948 57.224 159.556 55.72 159.556 53.928C159.556 52.136 158.98 50.664 157.828 49.512C156.676 48.296 155.204 47.688 153.412 47.688H139.204V60.264ZM181.387 69V18.792H194.251V51.816L216.811 18.696H228.523V69H215.659V36.744L193.387 69H181.387ZM236.134 81.192V57.768H237.478C239.142 57.768 240.678 57.128 242.086 55.848C243.494 54.568 244.646 52.264 245.542 48.936C246.502 45.608 247.078 40.808 247.27 34.536L247.846 18.696H285.574V57.768H292.582V81.192H281.35V69H247.462V81.192H236.134ZM253.702 57.768H272.71V29.544H259.078L258.79 35.784C258.534 42.184 257.99 47.08 257.158 50.472C256.326 53.864 255.174 56.296 253.702 57.768ZM300.919 69V18.792H313.783V51.816L336.343 18.696H348.055V69H335.191V36.744L312.919 69H300.919ZM359.794 69V18.696H373.234L388.978 47.784L404.818 18.696H418.066V69H405.874V36.456L393.01 60.072H384.946L371.986 36.456V69H359.794ZM429.919 69V18.696H442.783V34.536H451.615C457.695 34.536 462.335 36.072 465.535 39.144C468.735 42.216 470.335 46.28 470.335 51.336C470.335 56.52 468.799 60.776 465.727 64.104C462.719 67.368 458.303 69 452.479 69H429.919ZM478.207 69V18.792H491.071V69H478.207ZM442.783 59.208H450.463C453.087 59.208 455.007 58.472 456.223 57C457.439 55.464 458.047 53.608 458.047 51.432C458.047 49.32 457.471 47.56 456.319 46.152C455.167 44.68 453.183 43.944 450.367 43.944H442.783V59.208ZM502.856 69V18.792H515.72V51.816L538.28 18.696H549.992V69H537.128V36.744L514.856 69H502.856ZM526.472 13.992C521.544 13.992 517.672 12.744 514.856 10.248C512.04 7.688 510.632 4.424 510.632 0.455996H518.6C518.6 2.376 519.208 3.976 520.424 5.256C521.704 6.536 523.72 7.17599 526.472 7.17599C529.16 7.17599 531.08 6.568 532.232 5.352C533.448 4.136 534.184 2.504 534.44 0.455996H542.408C542.408 4.424 541 7.688 538.184 10.248C535.368 12.744 531.464 13.992 526.472 13.992ZM584.794 69V18.696H598.234L613.978 47.784L629.818 18.696H643.066V69H630.874V36.456L618.01 60.072H609.946L596.986 36.456V69H584.794ZM654.919 69V18.792H667.783V51.816L690.343 18.696H702.055V69H689.191V36.744L666.919 69H654.919ZM743.938 69.96C739.97 69.96 736.514 69.064 733.57 67.272C730.626 65.48 728.322 63.112 726.658 60.168V89.448H713.794V18.696H725.026V27.336C726.882 24.392 729.282 22.088 732.226 20.424C735.234 18.696 738.626 17.832 742.402 17.832C746.946 17.832 750.978 19.016 754.498 21.384C758.018 23.688 760.802 26.824 762.85 30.792C764.898 34.696 765.922 39.016 765.922 43.752C765.922 48.68 764.962 53.128 763.042 57.096C761.186 61 758.594 64.136 755.266 66.504C752.002 68.808 748.226 69.96 743.938 69.96ZM739.618 59.016C742.242 59.016 744.514 58.312 746.434 56.904C748.418 55.432 749.954 53.544 751.042 51.24C752.194 48.872 752.77 46.376 752.77 43.752C752.77 40.936 752.162 38.408 750.946 36.168C749.73 33.864 748.066 32.072 745.954 30.792C743.906 29.448 741.538 28.776 738.85 28.776C736.418 28.776 733.986 29.576 731.554 31.176C729.122 32.776 727.49 34.792 726.658 37.224V49.032C727.81 51.848 729.57 54.216 731.938 56.136C734.306 58.056 736.866 59.016 739.618 59.016Z" fill="url(#paint0_linear)"/>
<defs>
<linearGradient id="paint0_linear" x1="0.79116" y1="-21" x2="732.357" y2="94.0204" gradientUnits="userSpaceOnUse">
<stop stop-color="#48DBD2"/>
<stop offset="0.0001" stop-color="#48DBD2"/>
<stop offset="1" stop-color="#6250AC"/>
</linearGradient>
</defs>
</svg>
