<svg width="78" height="79" viewBox="0 0 78 79" fill="none" xmlns="http://www.w3.org/2000/svg">
<path fill-rule="evenodd" clip-rule="evenodd" d="M36 18.3333C36 20.9555 36.9256 23.671 38.8589 25.4426C43.2479 29.4645 45.9999 35.2441 45.9999 41.6665C45.9999 42.9617 45.888 44.2308 45.6733 45.4646C44.862 50.1265 46.6666 55.9348 46.6666 60.6667C46.6666 65.2691 42.9357 69 38.3333 69C36.723 69 35.2194 68.5433 33.945 67.7523C30.9951 65.9215 27.4719 63.6665 24 63.6665C11.8497 63.6665 2 53.8168 2 41.6665C2 36.6951 3.64898 32.1088 6.42982 28.4248C8.54342 25.6247 9.33339 21.8416 9.33339 18.3333C9.33339 10.9695 15.3029 5 22.6667 5C30.0305 5 36 10.9695 36 18.3333Z" fill="url(#paint0_linear)"/>
<g filter="url(#filter0_d)">
<path fill-rule="evenodd" clip-rule="evenodd" d="M42.8469 24.3719C42.2554 24.8672 41.4415 25.0403 40.7137 24.7846C32.7168 21.9753 23.9566 26.1807 21.1473 34.1776C18.338 42.1745 22.5433 50.9346 30.5402 53.744C38.5371 56.5533 47.2973 52.3479 50.1066 44.351C50.6448 42.819 51.8666 41.5915 53.3092 40.8462C55.4963 39.7163 57.2841 37.7615 58.1741 35.2282C59.9968 30.0396 57.3628 24.389 52.2908 22.6071C48.962 21.4377 45.4103 22.2255 42.8469 24.3719Z" fill="url(#paint1_linear)"/>
</g>
<defs>
<filter id="filter0_d" x="0.0605469" y="0.139404" width="77.4139" height="78.2119" filterUnits="userSpaceOnUse" color-interpolation-filters="sRGB">
<feFlood flood-opacity="0" result="BackgroundImageFix"/>
<feColorMatrix in="SourceAlpha" type="matrix" values="0 0 0 0 0 0 0 0 0 0 0 0 0 0 0 0 0 0 127 0"/>
<feOffset dy="2"/>
<feGaussianBlur stdDeviation="8"/>
<feColorMatrix type="matrix" values="0 0 0 0 0 0 0 0 0 0 0 0 0 0 0 0 0 0 0.35 0"/>
<feBlend mode="normal" in2="BackgroundImageFix" result="effect1_dropShadow"/>
<feBlend mode="normal" in="SourceGraphic" in2="effect1_dropShadow" result="shape"/>
</filter>
<linearGradient id="paint0_linear" x1="2.44846" y1="5.00001" x2="45.5873" y2="5.68932" gradientUnits="userSpaceOnUse">
<stop stop-color="#48DBD2"/>
<stop offset="0.0001" stop-color="#48DBD2"/>
<stop offset="1" stop-color="#6250AC"/>
</linearGradient>
<linearGradient id="paint1_linear" x1="14.0537" y1="47.4247" x2="31.098" y2="2.6767" gradientUnits="userSpaceOnUse">
<stop stop-color="#48DBD2"/>
<stop offset="0.0001" stop-color="#917EDE"/>
<stop offset="1" stop-color="#DB46C4"/>
</linearGradient>
</defs>
</svg>
