<svg width="20" height="20" viewBox="0 0 20 20" fill="none" xmlns="http://www.w3.org/2000/svg">
<path opacity="0.7" d="M19.2873 1.38982L19.2872 1.38976C19.1386 1.18611 18.9239 1.07593 18.6607 1.07593C18.5111 1.07593 18.336 1.11131 18.1384 1.19593L18.1382 1.19602L1.20863 8.43766L1.20859 8.43769C0.837848 8.59622 0.671178 8.77431 0.592556 8.9025C0.561705 8.9528 0.540608 9.00166 0.526445 9.0474L1.23848 8.74283L18.1627 1.50347C18.3608 1.41867 18.5273 1.38908 18.6607 1.38908C18.6954 1.38908 18.762 1.39088 18.8371 1.40783C18.891 1.42001 19.0658 1.46387 19.1883 1.63233M19.2873 1.38982L15.7007 19.0369C15.4748 19.0368 15.2047 18.9394 14.9227 18.6943L14.9204 18.6923L14.9187 18.6908L14.8935 18.668C14.8903 18.6651 14.8871 18.6623 14.8841 18.6597L11.7398 15.8226L11.3816 15.4994L11.0458 15.8459L8.87385 18.0869C8.87382 18.0869 8.87379 18.0869 8.87376 18.087C8.57672 18.3932 8.27954 18.5142 8.01881 18.5142C8.00701 18.5142 7.99517 18.514 7.9833 18.5134L8.67639 17.9298C8.71559 17.8968 8.75628 17.8597 8.79749 17.8173L8.79792 17.8169L10.8409 15.709L11.2015 15.3369L10.8168 14.9898L9.44401 13.751L8.80575 13.1751L8.62076 14.0146L7.86606 17.4398L7.64923 18.4238C7.59476 18.3966 7.54097 18.3629 7.48858 18.3225L7.86654 16.607L8.67998 12.9148L8.68002 12.9146C8.68755 12.8804 8.70181 12.854 8.71667 12.8364L8.71678 12.8362L12.9354 7.81324L12.3041 7.05775L5.52905 10.9362L5.18051 11.1357L5.30016 11.519L6.90095 16.6484L7.3996 18.2461C7.22999 18.0847 7.08082 17.8463 6.97908 17.5203C6.97908 17.5203 6.97908 17.5203 6.97908 17.5203L5.07998 11.435L5.00262 11.1872L4.75536 11.1079L1.24371 9.98178L1.24372 9.98176L1.24146 9.98107L1.24113 9.98095L1.23933 9.98034C0.864438 9.8461 0.691514 9.68042 0.60809 9.55965C0.58035 9.5195 0.559462 9.47987 0.54383 9.44186L1.28247 9.67867L4.84188 10.8198L5.05171 10.8871L5.24293 10.7776L15.2768 5.0336L15.2769 5.03355C15.2844 5.02923 15.2893 5.02821 15.2917 5.02789C15.2944 5.02754 15.2975 5.02759 15.3015 5.02864C15.3083 5.0304 15.3277 5.0379 15.3482 5.06851M19.2873 1.38982C19.4646 1.63275 19.5572 2.03281 19.4622 2.55842L19.4622 2.55846M19.2873 1.38982L19.4622 2.55846M19.1883 1.63233C19.1885 1.63264 19.1887 1.63294 19.189 1.63325L18.784 1.92652L19.1876 1.63142C19.1879 1.63172 19.1881 1.63203 19.1883 1.63233ZM19.1883 1.63233C19.2801 1.75837 19.3111 1.90874 19.3224 2.01999C19.3356 2.15016 19.329 2.30205 19.2977 2.4754L19.2977 2.47556L16.5238 17.8239L16.5237 17.8244C16.5077 17.9128 16.4695 18.0906 16.3853 18.2585C16.3142 18.4002 16.1112 18.7236 15.7005 18.7236C15.4128 18.7236 15.1618 18.5639 14.9901 18.4158L14.9817 18.4086L14.9818 18.4085L11.4524 15.224M11.4524 15.224L11.5011 15.2513C11.4714 15.2347 11.4473 15.2172 11.4286 15.2018C11.423 15.1972 11.4174 15.1924 11.4119 15.1875C11.4114 15.187 11.4108 15.1865 11.4103 15.186C11.3978 15.1746 11.3855 15.1623 11.3737 15.1491L11.3918 15.1693L11.4103 15.186L11.4119 15.1875L11.4524 15.224ZM11.4524 15.224L11.452 15.2238L11.4102 15.1861L9.28602 13.2694L8.92776 12.9461L9.2381 12.5766L15.3387 5.31273L15.3387 5.31271C15.3884 5.25356 15.3975 5.14228 15.3482 5.06851M15.3482 5.06851L15.7633 4.79028L15.3481 5.06834C15.3481 5.0684 15.3482 5.06846 15.3482 5.06851ZM19.4622 2.55846L16.6883 17.9066C16.544 18.7047 16.0995 19.0369 15.7008 19.0369L19.4622 2.55846ZM14.8903 18.6652C14.8907 18.6656 14.8911 18.666 14.8915 18.6663L14.8903 18.6652ZM14.8349 18.622C14.8343 18.6216 14.8375 18.6237 14.8411 18.6262L14.8366 18.6231L14.8353 18.6223L14.835 18.6221L14.8349 18.622L14.8349 18.622Z" fill="url(#paint0_linear)" stroke="url(#paint1_linear)"/>
<defs>
<linearGradient id="paint0_linear" x1="0.200803" y1="0.575932" x2="19.5104" y2="1.04225" gradientUnits="userSpaceOnUse">
<stop offset="0.197917" stop-color="#6250AC"/>
<stop offset="1" stop-color="#48DBD2"/>
</linearGradient>
<linearGradient id="paint1_linear" x1="0.200803" y1="0.575932" x2="19.5104" y2="1.04225" gradientUnits="userSpaceOnUse">
<stop offset="0.197917" stop-color="#6250AC"/>
<stop offset="1" stop-color="#48DBD2"/>
</linearGradient>
</defs>
</svg>
