<svg width="20" height="17" viewBox="0 0 20 17" fill="none" xmlns="http://www.w3.org/2000/svg">
<path opacity="0.7" d="M18.2303 2.94265C18.1269 2.80774 18.0991 2.62957 18.1566 2.46961L18.5457 1.38557C18.4656 1.41357 18.3832 1.44227 18.2996 1.47128C17.6538 1.69532 16.9004 1.95028 16.5796 2.0315C16.4201 2.07189 16.251 2.03123 16.1273 1.92277C14.7586 0.722798 12.6971 0.658114 11.2184 1.54457L18.2303 2.94265ZM18.2303 2.94265C18.3336 3.07755 18.4985 3.15071 18.6678 3.13689C18.7389 3.13108 18.7571 3.13006 18.9665 3.121C18.5275 3.70614 17.9715 4.44555 17.6955 4.80507L17.6954 4.80515C17.3688 5.23072 17.2155 5.77113 17.2442 6.31987L17.2442 6.31994C17.3918 9.13511 16.6798 11.7601 14.5929 13.5934C12.094 15.7887 8.3243 16.236 4.88643 15.7101C3.39789 15.4823 1.86442 14.7128 1.4203 14.476L1.42029 14.476L1.27842 14.4003M18.2303 2.94265L1.27842 14.4003M1.27842 14.4003L1.43563 14.3499L1.43572 14.3499C2.83751 13.9001 3.70848 13.6156 4.78565 13.1697C4.96845 13.0941 5.08944 12.9177 5.09427 12.72C5.0991 12.5222 4.98687 12.3402 4.80798 12.2557C3.8734 11.8142 3.15246 11.0211 2.80359 9.98834C2.80358 9.98832 2.80358 9.9883 2.80357 9.98828L2.67379 9.60391C2.69254 9.57928 2.70919 9.55266 2.72338 9.52422C2.8201 9.33043 2.78105 9.0964 2.62665 8.94451C2.4212 8.74239 2.259 8.53738 2.13307 8.35075L2.13304 8.35071C1.68091 7.68078 1.45405 6.87552 1.50164 6.21992C1.50164 6.2199 1.50164 6.21987 1.50165 6.21985L1.51105 6.09066C1.66006 6.09702 1.80749 6.03637 1.90919 5.91981C2.04655 5.76238 2.07154 5.53616 1.97187 5.35254C1.79538 5.02745 1.66824 4.68087 1.59339 4.31738M1.27842 14.4003L11.2184 1.54459C10.0343 2.25467 9.41654 3.44933 9.62633 4.85981C9.64947 5.01533 9.59809 5.17268 9.48764 5.28459C9.37719 5.3965 9.22052 5.44994 9.06471 5.42885C6.3184 5.05711 3.99791 3.78246 2.17478 1.64621C2.17478 1.6462 2.17477 1.64619 2.17476 1.64618L2.0896 1.54642L2.02761 1.65746L2.02759 1.6575C1.5623 2.4908 1.41193 3.43599 1.59339 4.31738M1.59339 4.31738L1.10367 4.41823M1.59339 4.31738L1.10367 4.41823M1.10367 4.41823C1.14094 4.59921 1.18966 4.77651 1.24951 4.94963L1.70922 5.12339L1.10367 4.41823ZM17.6624 3.35048L17.9292 2.60715C17.9943 2.42587 17.9495 2.22332 17.814 2.08644C17.6785 1.94956 17.4764 1.90268 17.2945 1.96593C17.0631 2.04634 16.831 2.11885 16.5481 2.18744L17.6624 3.35048ZM17.6624 3.35048C17.827 3.37168 17.972 3.47374 18.0467 3.62501C18.1309 3.79551 18.1111 3.99901 17.9956 4.15008C17.8736 4.30961 17.7274 4.50058 17.5515 4.72953C17.2162 5.16622 17.0425 5.73208 17.0736 6.32602C17.2333 9.3735 16.3822 11.8158 14.4695 13.496C12.2538 15.4425 8.75079 16.1569 4.91659 15.5702M17.6624 3.35048L16.548 2.18744C16.3777 2.22871 16.1857 2.18313 16.0376 2.0502C14.6094 0.767373 12.5837 0.900694 11.3173 1.65988L11.3173 1.6599C11.0096 1.84437 10.5008 2.21593 10.146 2.828C9.78114 3.45758 9.60243 4.30354 9.91163 5.36972L9.91167 5.36985C9.91235 5.37219 9.91296 5.37392 9.91356 5.37562C9.91808 5.38844 9.92204 5.39967 9.95088 5.6588C9.84432 5.6521 9.72624 5.6437 9.59708 5.63241C9.10609 5.58949 8.45646 5.5048 7.71313 5.31472C6.22823 4.93502 4.36715 4.13451 2.65191 2.39914C2.52593 2.27168 2.34138 2.22139 2.16816 2.26732C1.99494 2.31324 1.85955 2.44835 1.81326 2.62148C1.41956 4.09404 1.96738 5.60968 3.26476 6.59673L3.45968 6.74506L3.19781 6.71979C3.19779 6.71979 3.19776 6.71979 3.19774 6.71978C2.79895 6.68124 2.57507 6.64373 2.39462 6.59652C2.22136 6.55119 2.03708 6.60199 1.91153 6.7297C1.78597 6.85741 1.7383 7.04251 1.78656 7.21498C1.88207 7.55628 2.04053 7.92401 2.282 8.28204L2.2821 8.28218C2.65283 8.83145 3.35103 9.54192 4.55744 9.83012L4.67361 9.34381L4.55744 9.83012L4.8252 9.89409L4.56053 9.96599L4.56042 9.96602C4.31133 10.0338 4.06215 10.0745 3.80304 10.0892C3.62399 10.0994 3.46408 10.2046 3.38398 10.3651C3.30387 10.5255 3.31584 10.7166 3.41534 10.8658C4.06129 11.8345 5.10944 12.4209 6.33801 12.4976L6.62244 12.5153L6.3726 12.6307C4.92237 13.3002 4.03132 13.6452 2.87329 14.0338C2.67454 14.1005 2.53851 14.2841 2.53258 14.4937C2.52665 14.7032 2.65208 14.8942 2.84674 14.9721C3.44431 15.211 4.18511 15.4583 4.91659 15.5702M4.91659 15.5702L4.99222 15.0759M4.91659 15.5702L4.99222 15.0759M4.99222 15.0759C4.58641 15.0139 4.17247 14.9058 3.78112 14.7793M4.99222 15.0759C8.73825 15.6491 12.0724 14.9363 14.1396 13.1203L3.78112 14.7793M3.78112 14.7793C3.58963 14.8468 3.39443 14.9137 3.19146 14.9818L3.03238 14.5078L3.21802 14.0436C3.39553 14.1145 3.58283 14.1848 3.77569 14.2506M3.78112 14.7793L3.77569 14.2506M3.77569 14.2506C4.63297 13.9434 5.4374 13.6131 6.58218 13.0846L3.77569 14.2506Z" fill="url(#paint0_linear)" stroke="url(#paint1_linear)" stroke-linecap="round" stroke-linejoin="round"/>
<defs>
<linearGradient id="paint0_linear" x1="0.200803" y1="0.44257" x2="19.5058" y2="0.996187" gradientUnits="userSpaceOnUse">
<stop offset="0.197917" stop-color="#6250AC"/>
<stop offset="1" stop-color="#48DBD2"/>
</linearGradient>
<linearGradient id="paint1_linear" x1="0.200803" y1="0.44257" x2="19.5058" y2="0.996187" gradientUnits="userSpaceOnUse">
<stop offset="0.197917" stop-color="#6250AC"/>
<stop offset="1" stop-color="#48DBD2"/>
</linearGradient>
</defs>
</svg>
