<svg width="20" height="24" viewBox="0 0 20 24" fill="none" xmlns="http://www.w3.org/2000/svg">
<path d="M6.72727 10C5.74201 10.6986 4.83652 11.7411 4.07042 13.084C2.57013 15.7139 2 19.2808 2 23L10 23H18C18 19.2808 17.4299 15.7139 15.9296 13.084C15.1635 11.7411 14.258 10.6986 13.2727 10" stroke="white" stroke-width="2"/>
<path d="M15 6C15 7.33506 14.4781 8.54607 13.6251 9.44364C12.7129 10.4036 11.4269 11 10 11C8.57308 11 7.28711 10.4036 6.37488 9.44364C5.52192 8.54607 5 7.33506 5 6C5 3.23858 7.23858 1 10 1C12.7614 1 15 3.23858 15 6Z" stroke="white" stroke-width="2"/>
</svg>
