<svg width="25" height="24" viewBox="0 0 25 24" fill="none" xmlns="http://www.w3.org/2000/svg">
<g clip-path="url(#clip0)">
<path d="M21.8627 14.3766L21.8497 14.3645C21.6448 14.175 21.0171 13.5629 20.8055 13.2954C20.557 12.9617 20.6143 12.743 20.8005 12.4154C21.0358 12.0013 21.5073 11.3661 22.0063 10.6936C23.6044 8.54006 24.6362 7.04923 24.4238 5.99028L24.3094 5.42466L18.4073 5.42723C18.3866 5.483 18.0786 6.83862 16.779 9.14696C15.8365 10.8207 15.2184 11.3465 15.0006 11.4393L14.9669 11.4291C14.8961 11.3414 14.7723 11.1047 14.7214 10.4947C14.6683 9.85568 14.7154 9.08201 14.761 8.33385C14.8142 7.45652 14.8602 6.69882 14.7501 6.15668L14.5709 5.27349C14.3543 5.23881 13.5612 4.93225 11.3517 4.90895C9.4388 4.88932 8.87685 5.16616 8.60091 5.41017L7.68812 6.21723L8.84187 6.60617C9.28096 6.75423 9.42671 6.92503 9.54628 7.77172C9.62428 8.32357 9.66512 9.25098 9.58089 10.079C9.45986 11.2662 9.16963 11.487 9.15462 11.4988C9.10463 11.4817 8.68074 11.2959 7.94484 9.73698C7.43434 8.65583 6.98683 7.3769 6.6598 6.44307C6.28553 5.37366 6.35292 5.60134 6.16304 5.09608L0.453064 5.0959L0.822571 6.05358C2.36304 10.05 3.77643 13.1709 5.66792 15.4124C7.7577 17.889 10.3549 19.1857 13.8533 19.1857H14.5564V18.4812C14.5564 17.8226 14.6108 17.3483 14.7274 16.9888C14.7987 16.7697 14.8933 16.5886 14.9928 16.3987C15.1403 16.1191 15.2846 15.9993 15.3634 15.9815C15.4348 15.9652 15.5604 16.0177 15.6996 16.1217C16.0991 16.4202 16.4162 16.8124 16.752 17.2278C17.2365 17.8272 17.7375 18.4467 18.5324 18.8524C18.9667 19.074 19.7629 19.1859 20.201 19.1859C20.3169 19.1859 24.448 19.1857 24.4531 19.1857L24.4229 18.4522C24.3779 17.3555 23.5163 15.9841 21.8627 14.3766ZM20.2283 17.7767H20.217C19.9148 17.7817 19.3382 17.6824 19.1705 17.5969C18.6421 17.3272 18.2727 16.8702 17.8448 16.3411C17.4693 15.8764 17.0809 15.3959 16.5402 14.9921C16.1029 14.6654 15.7058 14.5698 15.3905 14.5698C15.2645 14.5698 15.1513 14.585 15.0543 14.607C14.6883 14.6896 14.1648 14.9534 13.7486 15.7421C13.6312 15.9665 13.4981 16.2206 13.3902 16.553C13.2772 16.9009 13.2069 17.2874 13.1734 17.7577C10.5371 17.6076 8.47987 16.5626 6.74183 14.5028C5.12592 12.5876 3.85462 9.90889 2.50824 6.50435C2.60566 6.50435 5.04664 6.50471 5.19074 6.50471C5.23487 6.62892 5.28248 6.76505 5.33302 6.90925C5.6855 7.91665 6.16835 9.29612 6.73726 10.4725C7.55189 12.1571 8.29585 12.9083 9.14931 12.9083C9.5754 12.9083 9.95754 12.7274 10.2544 12.3849C10.6775 11.8967 10.9232 11.0909 11.0056 9.92136C11.0706 8.99909 11.0102 8.08049 10.9388 7.57431C10.8798 7.15785 10.7958 6.72065 10.5907 6.32896C11.4647 6.28951 12.6349 6.35189 13.3763 6.45848C13.4437 6.82614 13.3997 7.54881 13.3573 8.24799C13.2545 9.93696 13.1485 11.6799 14.0408 12.4954C14.1977 12.6388 14.3642 12.7157 14.3689 12.7188L14.823 12.8584C14.9983 12.8043 16.0132 13.3202 17.9351 9.9597C18.5509 8.88296 19.1242 7.64219 19.4329 6.83183C20.1488 6.83036 22.588 6.83311 22.8746 6.83348C22.4686 7.7286 21.5066 9.00533 20.8778 9.85275C20.3296 10.5914 19.8562 11.2293 19.5785 11.718C19.0625 12.626 19.1493 13.4352 19.6867 14.1491L19.6951 14.1601C19.995 14.5426 20.7357 15.2508 20.8893 15.3935C22.0022 16.4762 22.5386 17.2539 22.7938 17.7765H20.2283V17.7767Z" fill="url(#paint0_linear)"/>
</g>
<defs>
<linearGradient id="paint0_linear" x1="0.694028" y1="4.90796" x2="23.8448" y2="5.79891" gradientUnits="userSpaceOnUse">
<stop offset="0.197917" stop-color="#6250AC"/>
<stop offset="1" stop-color="#48DBD2"/>
</linearGradient>
<clipPath id="clip0">
<rect width="24" height="24" fill="white" transform="translate(0.499939)"/>
</clipPath>
</defs>
</svg>
